<svg width="515" height="168" viewBox="0 0 515 168" fill="none" xmlns="http://www.w3.org/2000/svg">
<path d="M491.906 150.344C493.521 150.344 495.292 149.719 497.219 148.469C499.198 147.167 501.099 145.656 502.922 143.938C504.797 142.219 506.49 140.474 508 138.703C509.562 136.88 510.734 135.422 511.516 134.328C511.984 133.651 512.427 133.26 512.844 133.156C513.26 133 513.573 133.052 513.781 133.312C513.99 133.573 514.068 133.99 514.016 134.562C513.964 135.083 513.729 135.682 513.312 136.359C512.948 136.984 512.323 137.896 511.438 139.094C510.604 140.24 509.589 141.516 508.391 142.922C507.245 144.276 505.917 145.682 504.406 147.141C502.948 148.547 501.411 149.849 499.797 151.047C498.182 152.193 496.516 153.13 494.797 153.859C493.078 154.641 491.385 155.031 489.719 155.031C487.427 155.031 485.5 154.589 483.938 153.703C482.427 152.87 481.203 151.776 480.266 150.422C479.38 149.068 478.755 147.583 478.391 145.969C478.026 144.302 477.844 142.661 477.844 141.047C477.844 139.432 478.208 137.427 478.938 135.031C479.667 132.635 480.734 130.344 482.141 128.156C483.599 125.917 485.422 124.016 487.609 122.453C489.797 120.839 492.375 120.031 495.344 120.031C497.01 120.031 498.417 120.604 499.562 121.75C500.76 122.896 501.333 124.458 501.281 126.438C501.281 127.375 501.125 128.312 500.812 129.25C500.5 130.135 500.083 130.943 499.562 131.672C499.042 132.349 498.417 132.896 497.688 133.312C497.01 133.729 496.255 133.938 495.422 133.938C494.745 133.938 494.224 133.703 493.859 133.234C493.547 132.714 493.339 132.141 493.234 131.516C493.182 130.839 493.182 130.188 493.234 129.562C493.339 128.938 493.443 128.521 493.547 128.312C493.807 127.948 494.094 127.688 494.406 127.531C494.719 127.375 495.083 127.193 495.5 126.984C495.812 126.828 496.047 126.594 496.203 126.281C496.411 125.969 496.516 125.63 496.516 125.266C496.516 124.901 496.411 124.589 496.203 124.328C495.995 124.068 495.656 123.938 495.188 123.938C494.719 123.938 493.859 124.328 492.609 125.109C491.411 125.839 490.161 126.958 488.859 128.469C487.609 129.927 486.49 131.776 485.5 134.016C484.51 136.255 483.99 138.859 483.938 141.828C483.885 143.547 484.12 144.953 484.641 146.047C485.161 147.141 485.812 148 486.594 148.625C487.375 149.25 488.234 149.693 489.172 149.953C490.109 150.214 491.021 150.344 491.906 150.344Z" fill="white"/>
<path d="M473.859 106.984C473.703 107.557 473.391 108.13 472.922 108.703C472.505 109.224 472.01 109.666 471.438 110.031C470.917 110.343 470.37 110.552 469.797 110.656C469.224 110.76 468.755 110.656 468.391 110.343C467.297 109.51 466.724 108.625 466.672 107.687C466.62 106.697 466.854 105.786 467.375 104.953C467.896 104.067 468.547 103.338 469.328 102.765C470.109 102.14 470.786 101.776 471.359 101.671C471.932 101.567 472.401 101.697 472.766 102.062C473.182 102.375 473.495 102.817 473.703 103.39C473.911 103.911 474.016 104.51 474.016 105.187C474.068 105.864 474.016 106.463 473.859 106.984ZM463.078 123.625C463.339 123.312 463.833 123.052 464.562 122.843C465.292 122.635 466.047 122.479 466.828 122.375C467.609 122.218 468.312 122.14 468.938 122.14C469.615 122.088 470.005 122.088 470.109 122.14C470.161 122.192 470.031 122.739 469.719 123.781C469.406 124.822 469.016 126.046 468.547 127.453C468.078 128.859 467.583 130.317 467.062 131.828C466.542 133.286 466.151 134.484 465.891 135.421C465.63 136.359 465.318 137.427 464.953 138.625C464.589 139.77 464.25 140.916 463.938 142.062C463.677 143.156 463.495 144.197 463.391 145.187C463.286 146.177 463.365 146.932 463.625 147.453C463.885 148.078 464.172 148.52 464.484 148.781C464.797 148.989 465.135 149.093 465.5 149.093C466.542 149.093 467.844 148.52 469.406 147.375C471.021 146.229 472.635 144.875 474.25 143.312C475.917 141.697 477.453 140.083 478.859 138.468C480.266 136.802 481.307 135.474 481.984 134.484C482.401 133.963 482.818 133.625 483.234 133.468C483.703 133.312 484.068 133.338 484.328 133.546C484.641 133.755 484.797 134.093 484.797 134.562C484.849 135.031 484.693 135.578 484.328 136.203C483.495 137.661 482.271 139.406 480.656 141.437C479.042 143.416 477.323 145.343 475.5 147.218C473.677 149.041 471.88 150.604 470.109 151.906C468.391 153.208 466.984 153.885 465.891 153.937C465.005 153.989 464.12 153.833 463.234 153.468C462.401 153.156 461.62 152.713 460.891 152.14C460.214 151.515 459.641 150.812 459.172 150.031C458.703 149.197 458.443 148.338 458.391 147.453C458.234 146.151 458.234 144.38 458.391 142.14C458.547 139.849 458.833 137.531 459.25 135.187C459.667 132.791 460.188 130.526 460.812 128.39C461.49 126.255 462.245 124.666 463.078 123.625Z" fill="white"/>
<path d="M442.921 154.953C441.723 154.953 440.682 154.719 439.796 154.25C438.963 153.833 438.286 153.26 437.765 152.531C437.244 151.802 436.906 150.969 436.749 150.031C436.593 149.042 436.645 148 436.906 146.906C437.062 146.177 437.322 145.214 437.687 144.016C438.051 142.766 438.416 141.438 438.781 140.031C439.197 138.573 439.562 137.141 439.874 135.734C440.239 134.276 440.473 132.974 440.577 131.828C440.682 130.63 440.63 129.667 440.421 128.938C440.213 128.156 439.77 127.766 439.093 127.766C438.26 127.766 437.4 128.052 436.515 128.625C435.63 129.146 434.718 129.875 433.781 130.812C432.895 131.75 431.984 132.844 431.046 134.094C430.161 135.292 429.275 136.542 428.39 137.844C427.921 139.615 427.531 141.177 427.218 142.531C426.906 143.833 426.619 145.031 426.359 146.125C426.15 147.167 425.942 148.104 425.734 148.938C425.525 149.719 425.343 150.474 425.187 151.203C425.031 151.724 424.562 152.245 423.781 152.766C422.999 153.234 422.166 153.625 421.281 153.938C420.395 154.25 419.64 154.406 419.015 154.406C418.338 154.406 418.051 154.172 418.156 153.703C418.208 153.391 418.39 152.688 418.702 151.594C418.963 150.5 419.301 149.224 419.718 147.766C420.083 146.255 420.473 144.667 420.89 143C421.307 141.333 421.697 139.745 422.062 138.234C422.322 137.036 422.609 135.708 422.921 134.25C423.182 133 423.494 131.542 423.859 129.875C424.275 128.208 424.744 126.385 425.265 124.406C425.63 124.094 425.994 123.859 426.359 123.703C426.775 123.495 427.192 123.339 427.609 123.234C428.025 123.078 428.468 122.974 428.937 122.922C429.354 122.922 429.77 122.948 430.187 123C430.551 123.052 430.916 123.156 431.281 123.312C431.697 123.417 432.062 123.599 432.374 123.859C432.218 124.224 432.036 124.745 431.827 125.422C431.619 126.047 431.411 126.724 431.202 127.453C430.994 128.286 430.734 129.146 430.421 130.031C431.098 129.094 431.854 128.156 432.687 127.219C433.572 126.229 434.51 125.344 435.499 124.562C436.541 123.781 437.635 123.156 438.781 122.688C439.926 122.167 441.098 121.906 442.296 121.906C443.286 121.906 444.171 122.193 444.952 122.766C445.734 123.339 446.333 124.146 446.749 125.188C447.218 126.177 447.479 127.375 447.531 128.781C447.635 130.188 447.452 131.724 446.984 133.391L446.124 136.828C445.864 137.922 445.525 139.224 445.109 140.734C444.744 142.193 444.275 143.807 443.702 145.578C443.39 146.724 443.26 147.714 443.312 148.547C443.416 149.38 443.937 149.797 444.874 149.797C445.812 149.797 446.984 149.224 448.39 148.078C449.848 146.932 451.307 145.552 452.765 143.938C454.223 142.323 455.604 140.682 456.906 139.016C458.208 137.297 459.197 135.917 459.874 134.875C460.343 134.198 460.786 133.755 461.202 133.547C461.619 133.339 461.932 133.312 462.14 133.469C462.4 133.625 462.531 133.99 462.531 134.562C462.531 135.083 462.322 135.76 461.906 136.594C461.541 137.323 460.968 138.286 460.187 139.484C459.458 140.682 458.572 141.958 457.531 143.312C456.489 144.667 455.369 146.047 454.171 147.453C452.973 148.807 451.723 150.057 450.421 151.203C449.119 152.297 447.817 153.182 446.515 153.859C445.265 154.589 444.067 154.953 442.921 154.953Z" fill="white"/>
<path d="M414.953 106.984C414.797 107.557 414.484 108.13 414.016 108.703C413.599 109.224 413.104 109.666 412.531 110.031C412.01 110.343 411.464 110.552 410.891 110.656C410.318 110.76 409.849 110.656 409.484 110.343C408.391 109.51 407.818 108.625 407.766 107.687C407.714 106.697 407.948 105.786 408.469 104.953C408.99 104.067 409.641 103.338 410.422 102.765C411.203 102.14 411.88 101.776 412.453 101.671C413.026 101.567 413.495 101.697 413.859 102.062C414.276 102.375 414.589 102.817 414.797 103.39C415.005 103.911 415.109 104.51 415.109 105.187C415.161 105.864 415.109 106.463 414.953 106.984ZM404.172 123.625C404.432 123.312 404.927 123.052 405.656 122.843C406.385 122.635 407.141 122.479 407.922 122.375C408.703 122.218 409.406 122.14 410.031 122.14C410.708 122.088 411.099 122.088 411.203 122.14C411.255 122.192 411.125 122.739 410.812 123.781C410.5 124.822 410.109 126.046 409.641 127.453C409.172 128.859 408.677 130.317 408.156 131.828C407.635 133.286 407.245 134.484 406.984 135.421C406.724 136.359 406.411 137.427 406.047 138.625C405.682 139.77 405.344 140.916 405.031 142.062C404.771 143.156 404.589 144.197 404.484 145.187C404.38 146.177 404.458 146.932 404.719 147.453C404.979 148.078 405.266 148.52 405.578 148.781C405.891 148.989 406.229 149.093 406.594 149.093C407.635 149.093 408.938 148.52 410.5 147.375C412.115 146.229 413.729 144.875 415.344 143.312C417.01 141.697 418.547 140.083 419.953 138.468C421.359 136.802 422.401 135.474 423.078 134.484C423.495 133.963 423.911 133.625 424.328 133.468C424.797 133.312 425.161 133.338 425.422 133.546C425.734 133.755 425.891 134.093 425.891 134.562C425.943 135.031 425.786 135.578 425.422 136.203C424.589 137.661 423.365 139.406 421.75 141.437C420.135 143.416 418.417 145.343 416.594 147.218C414.771 149.041 412.974 150.604 411.203 151.906C409.484 153.208 408.078 153.885 406.984 153.937C406.099 153.989 405.214 153.833 404.328 153.468C403.495 153.156 402.714 152.713 401.984 152.14C401.307 151.515 400.734 150.812 400.266 150.031C399.797 149.197 399.536 148.338 399.484 147.453C399.328 146.151 399.328 144.38 399.484 142.14C399.641 139.849 399.927 137.531 400.344 135.187C400.76 132.791 401.281 130.526 401.906 128.39C402.583 126.255 403.339 124.666 404.172 123.625Z" fill="white"/>
<path d="M379.094 151.75C381.385 142.115 383.208 134.38 384.562 128.547C385.969 122.714 387.036 118.26 387.766 115.188C388.599 111.542 389.172 109.016 389.484 107.609C389.641 106.62 389.771 105.656 389.875 104.719C389.979 103.885 390.031 103.026 390.031 102.141C390.031 101.255 389.953 100.448 389.797 99.7188C390.214 99.4583 390.656 99.25 391.125 99.0938C391.646 98.9375 392.141 98.8073 392.609 98.7031C393.182 98.5469 393.755 98.4167 394.328 98.3125C394.901 98.2083 395.422 98.1562 395.891 98.1562C396.307 98.1562 396.698 98.2083 397.062 98.3125C397.427 98.3646 397.661 98.5208 397.766 98.7812C398.078 99.0417 398.208 99.5625 398.156 100.344C398.156 101.125 398.104 101.932 398 102.766C397.792 103.755 397.557 104.823 397.297 105.969C396.672 108.208 395.812 111.438 394.719 115.656C393.781 119.25 392.505 124.146 390.891 130.344C389.328 136.542 387.349 144.354 384.953 153.781C384.693 154.042 384.38 154.224 384.016 154.328C383.651 154.432 383.312 154.484 383 154.484C382.635 154.484 382.245 154.458 381.828 154.406C381.464 154.302 381.099 154.146 380.734 153.938C380.422 153.729 380.109 153.443 379.797 153.078C379.484 152.766 379.25 152.323 379.094 151.75Z" fill="white"/>
<path d="M353.156 167.531C350.552 167.531 348.182 166.906 346.047 165.656C343.964 164.406 342.167 162.688 340.656 160.5C339.198 158.312 338.078 155.76 337.297 152.844C336.568 149.875 336.255 146.724 336.359 143.391C336.464 140.266 336.854 136.88 337.531 133.234C338.26 129.589 339.276 125.943 340.578 122.297C341.88 118.599 343.443 115.057 345.266 111.672C347.141 108.234 349.276 105.214 351.672 102.609C354.068 100.005 356.724 97.9219 359.641 96.3594C362.557 94.7448 365.76 93.9375 369.25 93.9375C371.385 93.9375 373.182 94.3802 374.641 95.2656C376.151 96.099 377.349 97.2188 378.234 98.625C379.172 100.031 379.823 101.62 380.188 103.391C380.552 105.161 380.708 106.958 380.656 108.781C380.552 110.5 380.292 112.167 379.875 113.781C379.51 115.396 378.964 116.854 378.234 118.156C377.557 119.406 376.698 120.422 375.656 121.203C374.667 121.932 373.521 122.297 372.219 122.297C371.594 122.245 370.995 122.036 370.422 121.672C369.901 121.359 369.354 120.891 368.781 120.266C368.26 119.641 367.766 118.729 367.297 117.531C368.703 116.958 369.797 115.969 370.578 114.562C371.411 113.104 372.036 111.594 372.453 110.031C372.922 108.26 373.234 106.281 373.391 104.094C373.495 101.958 373.052 100.396 372.062 99.4062C371.073 98.4167 369.953 97.9219 368.703 97.9219C366.255 97.9219 363.677 99.1979 360.969 101.75C358.26 104.302 355.734 107.766 353.391 112.141C351.099 116.464 349.146 121.516 347.531 127.297C345.969 133.078 345.057 139.198 344.797 145.656C344.693 148.573 344.875 151.047 345.344 153.078C345.865 155.109 346.568 156.776 347.453 158.078C348.391 159.38 349.432 160.318 350.578 160.891C351.724 161.464 352.87 161.75 354.016 161.75C355.839 161.75 357.557 161.359 359.172 160.578C360.786 159.797 362.245 158.833 363.547 157.688C364.901 156.542 366.047 155.344 366.984 154.094C367.974 152.896 368.729 151.828 369.25 150.891C369.615 150.214 370.005 149.797 370.422 149.641C370.839 149.484 371.203 149.536 371.516 149.797C371.828 150.005 372.036 150.37 372.141 150.891C372.245 151.359 372.141 151.932 371.828 152.609C370.943 154.38 369.849 156.151 368.547 157.922C367.297 159.693 365.865 161.281 364.25 162.688C362.688 164.146 360.969 165.318 359.094 166.203C357.219 167.089 355.24 167.531 353.156 167.531Z" fill="white"/>
<path d="M295.266 151.75C297.557 142.115 299.38 134.38 300.734 128.547C302.141 122.714 303.208 118.26 303.938 115.188C304.771 111.542 305.344 109.016 305.656 107.609C305.812 106.62 305.943 105.656 306.047 104.719C306.151 103.885 306.203 103.026 306.203 102.141C306.203 101.255 306.125 100.448 305.969 99.7188C306.385 99.4583 306.828 99.25 307.297 99.0938C307.818 98.9375 308.312 98.8073 308.781 98.7031C309.354 98.5469 309.927 98.4167 310.5 98.3125C311.073 98.2083 311.594 98.1562 312.062 98.1562C312.479 98.1562 312.87 98.2083 313.234 98.3125C313.599 98.3646 313.833 98.5208 313.938 98.7812C314.25 99.0417 314.38 99.5625 314.328 100.344C314.328 101.125 314.276 101.932 314.172 102.766C313.964 103.755 313.729 104.823 313.469 105.969C312.844 108.208 311.984 111.438 310.891 115.656C309.953 119.25 308.677 124.146 307.062 130.344C305.5 136.542 303.521 144.354 301.125 153.781C300.865 154.042 300.552 154.224 300.188 154.328C299.823 154.432 299.484 154.484 299.172 154.484C298.807 154.484 298.417 154.458 298 154.406C297.635 154.302 297.271 154.146 296.906 153.938C296.594 153.729 296.281 153.443 295.969 153.078C295.656 152.766 295.422 152.323 295.266 151.75Z" fill="white"/>
<path d="M301.671 137.453C300.942 138.495 300.005 139.797 298.859 141.359C297.713 142.87 296.515 144.406 295.265 145.969C294.067 147.479 292.869 148.885 291.671 150.188C290.525 151.438 289.562 152.323 288.781 152.844C288.26 153.156 287.661 153.417 286.984 153.625C286.307 153.833 285.604 153.964 284.874 154.016C284.197 154.068 283.546 154.016 282.921 153.859C282.296 153.755 281.749 153.547 281.281 153.234C280.812 152.87 280.421 152.349 280.109 151.672C279.848 151.099 279.588 150.344 279.328 149.406C279.119 148.469 279.041 147.297 279.093 145.891C277.843 147.974 276.463 149.589 274.953 150.734C273.442 151.828 272.01 152.635 270.656 153.156C269.093 153.729 267.531 154.068 265.968 154.172C265.239 154.172 264.458 153.911 263.624 153.391C262.791 152.922 262.088 152.167 261.515 151.125C260.942 150.031 260.578 148.651 260.421 146.984C260.265 145.266 260.473 143.234 261.046 140.891C261.775 137.714 262.921 134.823 264.484 132.219C266.098 129.615 267.843 127.401 269.718 125.578C271.593 123.703 273.442 122.297 275.265 121.359C277.088 120.422 278.598 120.005 279.796 120.109C281.203 120.37 282.348 120.786 283.234 121.359C283.963 121.88 284.432 122.661 284.64 123.703C284.9 124.693 284.484 126.021 283.39 127.688C284.119 127.531 284.718 127.427 285.187 127.375C285.708 127.323 286.098 127.297 286.359 127.297C286.671 127.297 286.88 127.323 286.984 127.375C287.036 127.479 287.062 127.714 287.062 128.078C287.062 128.391 286.984 128.99 286.828 129.875C286.671 130.76 286.437 131.958 286.124 133.469C285.812 134.979 285.395 136.932 284.874 139.328C284.77 139.797 284.666 140.24 284.562 140.656C284.51 141.021 284.432 141.411 284.328 141.828C284.275 142.193 284.197 142.635 284.093 143.156C283.989 143.677 283.859 144.328 283.703 145.109C283.65 145.578 283.624 146.099 283.624 146.672C283.677 147.193 283.781 147.688 283.937 148.156C284.093 148.625 284.328 149.016 284.64 149.328C285.005 149.589 285.499 149.719 286.124 149.719C286.645 149.719 287.322 149.406 288.156 148.781C288.989 148.104 289.874 147.271 290.812 146.281C291.749 145.24 292.713 144.12 293.703 142.922C294.744 141.672 295.708 140.474 296.593 139.328C297.479 138.182 298.26 137.167 298.937 136.281C299.666 135.396 300.187 134.745 300.499 134.328C300.916 133.859 301.333 133.599 301.749 133.547C302.166 133.443 302.479 133.547 302.687 133.859C302.895 134.172 302.921 134.641 302.765 135.266C302.661 135.891 302.296 136.62 301.671 137.453ZM278.781 140.891C279.041 139.849 279.354 138.625 279.718 137.219C280.083 135.812 280.395 134.458 280.656 133.156C280.916 131.854 281.098 130.786 281.203 129.953C281.359 129.068 281.333 128.651 281.124 128.703C280.864 128.755 280.578 128.833 280.265 128.938C280.005 129.042 279.666 129.12 279.249 129.172C278.833 129.224 278.416 129.302 277.999 129.406C278.416 128.573 278.65 127.896 278.703 127.375C278.807 126.802 278.833 126.359 278.781 126.047C278.729 125.682 278.624 125.396 278.468 125.188C277.895 124.719 276.88 125.109 275.421 126.359C274.015 127.557 272.374 129.797 270.499 133.078C269.718 134.432 269.093 135.891 268.624 137.453C268.156 138.964 267.817 140.396 267.609 141.75C267.453 143.104 267.427 144.302 267.531 145.344C267.635 146.333 267.843 146.984 268.156 147.297C268.729 147.87 269.38 148.156 270.109 148.156C270.838 148.104 271.567 147.896 272.296 147.531C273.078 147.115 273.833 146.594 274.562 145.969C275.343 145.344 276.02 144.693 276.593 144.016C277.218 143.339 277.713 142.714 278.078 142.141C278.494 141.568 278.729 141.151 278.781 140.891Z" fill="white"/>
<path d="M266.282 133.234C266.49 132.922 266.751 132.74 267.063 132.688C267.428 132.583 267.714 132.609 267.923 132.766C268.131 132.922 268.235 133.182 268.235 133.547C268.287 133.911 268.157 134.406 267.845 135.031C266.803 137.01 265.423 139.146 263.704 141.438C262.037 143.729 260.266 145.891 258.391 147.922C256.516 149.901 254.694 151.542 252.923 152.844C251.152 154.146 249.668 154.797 248.47 154.797C246.751 154.797 245.319 154.458 244.173 153.781C243.027 153.104 242.115 152.271 241.438 151.281C240.813 150.292 240.371 149.224 240.11 148.078C239.85 146.88 239.772 145.786 239.876 144.797C239.928 143.964 240.11 142.479 240.423 140.344C240.735 138.156 241.152 135.656 241.673 132.844C242.194 129.979 242.766 126.932 243.391 123.703C244.069 120.422 244.772 117.271 245.501 114.25C244.615 114.354 243.73 114.458 242.845 114.562C241.959 114.667 241.152 114.719 240.423 114.719C238.756 114.719 237.194 114.536 235.735 114.172C234.225 113.755 233.105 113.365 232.376 113C231.959 112.792 231.777 112.505 231.829 112.141C231.881 111.724 232.037 111.333 232.298 110.969C232.558 110.552 232.897 110.214 233.313 109.953C233.678 109.641 234.016 109.484 234.329 109.484C235.319 109.589 236.386 109.693 237.532 109.797C238.678 109.849 239.928 109.849 241.282 109.797C242.272 109.745 243.209 109.667 244.095 109.562C245.032 109.458 245.944 109.328 246.829 109.172C247.506 106.672 248.157 104.51 248.782 102.688C249.459 100.812 250.058 99.5104 250.579 98.7812C250.735 98.5208 251.074 98.3125 251.595 98.1562C252.168 97.9479 252.766 97.8177 253.391 97.7656C254.016 97.6615 254.615 97.6615 255.188 97.7656C255.761 97.8177 256.178 98 256.438 98.3125C256.699 98.7292 256.803 99.7969 256.751 101.516C256.699 103.234 256.412 105.422 255.891 108.078C258.079 108.078 260.006 108.208 261.673 108.469C263.391 108.677 264.85 108.938 266.048 109.25C267.246 109.51 268.209 109.797 268.938 110.109C269.668 110.37 270.214 110.552 270.579 110.656C270.944 110.76 271.126 111.021 271.126 111.438C271.178 111.854 271.1 112.297 270.891 112.766C270.735 113.182 270.449 113.547 270.032 113.859C269.615 114.172 269.147 114.276 268.626 114.172C268.105 114.12 267.506 114.016 266.829 113.859C266.204 113.703 265.423 113.573 264.485 113.469C263.6 113.365 262.532 113.26 261.282 113.156C260.032 113.052 258.574 113 256.907 113C256.595 113 256.23 113.026 255.813 113.078C255.449 113.078 255.058 113.078 254.641 113.078C254.433 113.911 254.225 114.745 254.016 115.578C253.86 116.359 253.626 117.193 253.313 118.078C252.636 120.161 251.855 122.427 250.97 124.875C250.188 127.01 249.251 129.458 248.157 132.219C247.063 134.979 245.839 137.922 244.485 141.047C244.173 143.286 244.199 145.005 244.563 146.203C244.98 147.349 245.475 148.182 246.048 148.703C246.725 149.276 247.558 149.589 248.548 149.641C249.329 149.745 250.266 149.484 251.36 148.859C252.506 148.182 253.678 147.297 254.876 146.203C256.074 145.109 257.272 143.911 258.47 142.609C259.72 141.307 260.865 140.031 261.907 138.781C262.949 137.531 263.86 136.411 264.641 135.422C265.423 134.38 265.97 133.651 266.282 133.234Z" fill="white"/>
<path d="M223.702 154.953C222.505 154.953 221.463 154.719 220.577 154.25C219.744 153.833 219.067 153.26 218.546 152.531C218.025 151.802 217.687 150.969 217.531 150.031C217.374 149.042 217.426 148 217.687 146.906C217.843 146.177 218.104 145.214 218.468 144.016C218.833 142.766 219.197 141.438 219.562 140.031C219.979 138.573 220.343 137.141 220.656 135.734C221.02 134.276 221.255 132.974 221.359 131.828C221.463 130.63 221.411 129.667 221.202 128.938C220.994 128.156 220.551 127.766 219.874 127.766C219.041 127.766 218.182 128.052 217.296 128.625C216.411 129.146 215.499 129.875 214.562 130.812C213.676 131.75 212.765 132.844 211.827 134.094C210.942 135.292 210.057 136.542 209.171 137.844C208.702 139.615 208.312 141.177 207.999 142.531C207.687 143.833 207.4 145.031 207.14 146.125C206.932 147.167 206.723 148.104 206.515 148.938C206.307 149.719 206.124 150.474 205.968 151.203C205.812 151.724 205.343 152.245 204.562 152.766C203.781 153.234 202.947 153.625 202.062 153.938C201.176 154.25 200.421 154.406 199.796 154.406C199.119 154.406 198.833 154.172 198.937 153.703C198.989 153.391 199.171 152.688 199.484 151.594C199.744 150.5 200.083 149.224 200.499 147.766C200.864 146.255 201.255 144.667 201.671 143C202.088 141.333 202.479 139.745 202.843 138.234C203.104 137.036 203.39 135.708 203.702 134.25C203.963 133 204.275 131.542 204.64 129.875C205.057 128.208 205.525 126.385 206.046 124.406C206.411 124.094 206.775 123.859 207.14 123.703C207.557 123.495 207.973 123.339 208.39 123.234C208.807 123.078 209.249 122.974 209.718 122.922C210.135 122.922 210.551 122.948 210.968 123C211.333 123.052 211.697 123.156 212.062 123.312C212.479 123.417 212.843 123.599 213.156 123.859C212.999 124.224 212.817 124.745 212.609 125.422C212.4 126.047 212.192 126.724 211.984 127.453C211.775 128.286 211.515 129.146 211.202 130.031C211.88 129.094 212.635 128.156 213.468 127.219C214.354 126.229 215.291 125.344 216.281 124.562C217.322 123.781 218.416 123.156 219.562 122.688C220.708 122.167 221.88 121.906 223.077 121.906C224.067 121.906 224.952 122.193 225.734 122.766C226.515 123.339 227.114 124.146 227.531 125.188C227.999 126.177 228.26 127.375 228.312 128.781C228.416 130.188 228.234 131.724 227.765 133.391L226.906 136.828C226.645 137.922 226.307 139.224 225.89 140.734C225.525 142.193 225.057 143.807 224.484 145.578C224.171 146.724 224.041 147.714 224.093 148.547C224.197 149.38 224.718 149.797 225.656 149.797C226.593 149.797 227.765 149.224 229.171 148.078C230.63 146.932 232.088 145.552 233.546 143.938C235.005 142.323 236.385 140.682 237.687 139.016C238.989 137.297 239.979 135.917 240.656 134.875C241.124 134.198 241.567 133.755 241.984 133.547C242.4 133.339 242.713 133.312 242.921 133.469C243.182 133.625 243.312 133.99 243.312 134.562C243.312 135.083 243.104 135.76 242.687 136.594C242.322 137.323 241.749 138.286 240.968 139.484C240.239 140.682 239.354 141.958 238.312 143.312C237.27 144.667 236.15 146.047 234.952 147.453C233.755 148.807 232.505 150.057 231.202 151.203C229.9 152.297 228.598 153.182 227.296 153.859C226.046 154.589 224.848 154.953 223.702 154.953Z" fill="white"/>
<path d="M206.125 136.75C204.562 139.042 202.791 141.281 200.812 143.469C198.833 145.604 196.724 147.531 194.484 149.25C192.297 150.917 190.031 152.271 187.687 153.312C185.395 154.354 183.156 154.875 180.968 154.875C179.823 154.875 178.573 154.589 177.218 154.016C175.916 153.495 174.718 152.661 173.625 151.516C172.531 150.37 171.645 148.885 170.968 147.062C170.343 145.24 170.161 143.026 170.422 140.422C170.63 138.286 171.281 136.047 172.375 133.703C173.52 131.307 174.901 129.12 176.515 127.141C178.182 125.161 180.031 123.521 182.062 122.219C184.145 120.917 186.229 120.266 188.312 120.266C190.291 120.266 191.724 120.76 192.609 121.75C193.494 122.74 193.885 123.964 193.781 125.422C193.625 127.036 193.156 128.521 192.375 129.875C191.645 131.229 190.76 132.453 189.718 133.547C188.677 134.641 187.557 135.63 186.359 136.516C185.213 137.401 184.119 138.208 183.078 138.938C181.932 139.719 180.838 140.474 179.797 141.203C178.755 141.88 177.843 142.505 177.062 143.078C177.114 144.38 177.349 145.474 177.765 146.359C178.182 147.245 178.703 147.974 179.328 148.547C179.953 149.068 180.656 149.458 181.437 149.719C182.27 149.927 183.104 150.031 183.937 150.031C185.708 150.031 187.557 149.484 189.484 148.391C191.411 147.245 193.286 145.891 195.109 144.328C196.984 142.714 198.703 141.047 200.265 139.328C201.88 137.609 203.208 136.125 204.25 134.875C204.614 134.458 204.979 134.224 205.343 134.172C205.76 134.068 206.073 134.12 206.281 134.328C206.541 134.484 206.672 134.797 206.672 135.266C206.672 135.682 206.489 136.177 206.125 136.75ZM186.125 124.719C185.5 124.719 184.744 125.031 183.859 125.656C183.026 126.281 182.192 127.193 181.359 128.391C180.526 129.536 179.744 130.969 179.015 132.688C178.286 134.354 177.739 136.281 177.375 138.469C178 138 178.677 137.531 179.406 137.062C180.135 136.542 180.864 135.995 181.593 135.422C183.833 133.703 185.395 132.193 186.281 130.891C187.166 129.589 187.661 128.469 187.765 127.531C187.869 126.542 187.765 125.839 187.453 125.422C187.14 124.953 186.698 124.719 186.125 124.719Z" fill="white"/>
<path d="M120.422 163.078C119.953 162.766 119.719 162.427 119.719 162.062C119.667 161.698 119.745 161.333 119.953 160.969C120.161 160.552 120.474 160.135 120.891 159.719C121.307 159.354 121.802 158.417 122.375 156.906C122.948 155.448 123.547 153.677 124.172 151.594C124.849 149.458 125.5 147.141 126.125 144.641C126.802 142.141 127.427 139.693 128 137.297C128.573 134.901 129.068 132.688 129.484 130.656C129.901 128.625 130.214 127.01 130.422 125.812C130.682 124.354 130.969 122.766 131.281 121.047C131.542 119.536 131.828 117.792 132.141 115.812C132.453 113.781 132.74 111.542 133 109.094L139.25 106.281C140.135 105.865 140.76 105.969 141.125 106.594C141.49 107.167 141.49 108.391 141.125 110.266C140.969 111.203 140.682 112.74 140.266 114.875C139.849 116.958 139.354 119.276 138.781 121.828C138.26 124.328 137.688 126.906 137.062 129.562C136.49 132.167 135.917 134.484 135.344 136.516C134.823 138.443 134.224 140.656 133.547 143.156C132.349 147.427 130.682 153.26 128.547 160.656C129.276 161.906 130.63 162.531 132.609 162.531C134.797 162.531 137.323 161.698 140.188 160.031C143.104 158.365 145.917 155.865 148.625 152.531C151.333 149.198 153.703 145.031 155.734 140.031C157.818 134.979 159.12 129.094 159.641 122.375C159.901 118.729 159.719 115.526 159.094 112.766C158.469 110.005 157.505 107.688 156.203 105.812C154.953 103.938 153.391 102.531 151.516 101.594C149.693 100.656 147.661 100.188 145.422 100.188C140.161 100.188 134.719 102.375 129.094 106.75L128.703 100.266C130.057 98.7552 131.594 97.6094 133.312 96.8281C135.083 95.9948 136.724 95.3698 138.234 94.9531C140.005 94.4844 141.802 94.224 143.625 94.1719C146.958 94.1719 150.161 94.8229 153.234 96.125C156.359 97.375 159.042 99.3021 161.281 101.906C163.573 104.51 165.318 107.792 166.516 111.75C167.714 115.656 168.13 120.24 167.766 125.5C167.557 128.521 166.932 131.672 165.891 134.953C164.901 138.182 163.573 141.359 161.906 144.484C160.292 147.609 158.365 150.578 156.125 153.391C153.885 156.203 151.438 158.651 148.781 160.734C146.125 162.87 143.286 164.536 140.266 165.734C137.245 166.984 134.12 167.609 130.891 167.609C129.901 167.557 128.833 167.375 127.688 167.062C126.698 166.802 125.578 166.359 124.328 165.734C123.078 165.109 121.776 164.224 120.422 163.078Z" fill="white"/>
<path d="M273.468 43.4531C272.739 44.4948 271.802 45.7969 270.656 47.3594C269.51 48.8698 268.312 50.4062 267.062 51.9688C265.864 53.4792 264.666 54.8854 263.468 56.1875C262.322 57.4375 261.359 58.3229 260.578 58.8438C260.057 59.1562 259.458 59.4167 258.781 59.625C258.104 59.8333 257.4 59.9635 256.671 60.0156C255.994 60.0677 255.343 60.0156 254.718 59.8594C254.093 59.7552 253.546 59.5469 253.078 59.2344C252.609 58.8698 252.218 58.349 251.906 57.6719C251.645 57.099 251.385 56.3438 251.124 55.4062C250.916 54.4688 250.838 53.2969 250.89 51.8906C249.64 53.974 248.26 55.5885 246.749 56.7344C245.239 57.8281 243.807 58.6354 242.453 59.1562C240.89 59.7292 239.328 60.0677 237.765 60.1719C237.036 60.1719 236.255 59.9115 235.421 59.3906C234.588 58.9219 233.885 58.1667 233.312 57.125C232.739 56.0312 232.374 54.651 232.218 52.9844C232.062 51.2656 232.27 49.2344 232.843 46.8906C233.572 43.7135 234.718 40.8229 236.281 38.2188C237.895 35.6146 239.64 33.401 241.515 31.5781C243.39 29.7031 245.239 28.2969 247.062 27.3594C248.885 26.4219 250.395 26.0052 251.593 26.1094C252.999 26.3698 254.145 26.7865 255.031 27.3594C255.76 27.8802 256.229 28.6615 256.437 29.7031C256.697 30.6927 256.281 32.0208 255.187 33.6875C255.916 33.5312 256.515 33.4271 256.984 33.375C257.505 33.3229 257.895 33.2969 258.156 33.2969C258.468 33.2969 258.677 33.3229 258.781 33.375C258.833 33.4792 258.859 33.7135 258.859 34.0781C258.859 34.3906 258.781 34.9896 258.624 35.875C258.468 36.7604 258.234 37.9583 257.921 39.4688C257.609 40.9792 257.192 42.9323 256.671 45.3281C256.567 45.7969 256.463 46.2396 256.359 46.6562C256.307 47.0208 256.229 47.4115 256.124 47.8281C256.072 48.1927 255.994 48.6354 255.89 49.1562C255.786 49.6771 255.656 50.3281 255.499 51.1094C255.447 51.5781 255.421 52.099 255.421 52.6719C255.473 53.1927 255.578 53.6875 255.734 54.1562C255.89 54.625 256.124 55.0156 256.437 55.3281C256.802 55.5885 257.296 55.7188 257.921 55.7188C258.442 55.7188 259.119 55.4062 259.953 54.7812C260.786 54.1042 261.671 53.2708 262.609 52.2812C263.546 51.2396 264.51 50.1198 265.499 48.9219C266.541 47.6719 267.505 46.474 268.39 45.3281C269.275 44.1823 270.057 43.1667 270.734 42.2812C271.463 41.3958 271.984 40.7448 272.296 40.3281C272.713 39.8594 273.13 39.599 273.546 39.5469C273.963 39.4427 274.275 39.5469 274.484 39.8594C274.692 40.1719 274.718 40.6406 274.562 41.2656C274.458 41.8906 274.093 42.6198 273.468 43.4531ZM250.578 46.8906C250.838 45.849 251.15 44.625 251.515 43.2188C251.88 41.8125 252.192 40.4583 252.453 39.1562C252.713 37.8542 252.895 36.7865 252.999 35.9531C253.156 35.0677 253.13 34.651 252.921 34.7031C252.661 34.7552 252.374 34.8333 252.062 34.9375C251.802 35.0417 251.463 35.1198 251.046 35.1719C250.63 35.224 250.213 35.3021 249.796 35.4062C250.213 34.5729 250.447 33.8958 250.499 33.375C250.604 32.8021 250.63 32.3594 250.578 32.0469C250.525 31.6823 250.421 31.3958 250.265 31.1875C249.692 30.7188 248.677 31.1094 247.218 32.3594C245.812 33.5573 244.171 35.7969 242.296 39.0781C241.515 40.4323 240.89 41.8906 240.421 43.4531C239.953 44.9635 239.614 46.3958 239.406 47.75C239.249 49.1042 239.223 50.3021 239.328 51.3438C239.432 52.3333 239.64 52.9844 239.953 53.2969C240.525 53.8698 241.177 54.1562 241.906 54.1562C242.635 54.1042 243.364 53.8958 244.093 53.5312C244.874 53.1146 245.63 52.5938 246.359 51.9688C247.14 51.3438 247.817 50.6927 248.39 50.0156C249.015 49.3385 249.51 48.7135 249.874 48.1406C250.291 47.5677 250.525 47.151 250.578 46.8906Z" fill="white"/>
<path d="M212.375 55.4062C212.375 54.3125 212.479 53.0625 212.688 51.6562C212.948 50.25 213.26 48.8177 213.625 47.3594C213.99 45.849 214.354 44.3906 214.719 42.9844C215.083 41.5781 215.396 40.3281 215.656 39.2344C215.969 37.8802 215.943 36.8385 215.578 36.1094C215.214 35.3802 214.589 35.0156 213.703 35.0156C213.286 35.0156 212.453 35.3802 211.203 36.1094C210.005 36.8385 208.677 38.1146 207.219 39.9375C205.812 41.7083 204.406 44.1302 203 47.2031C201.646 50.224 200.578 54.0781 199.797 58.7656C198.807 59.2865 197.87 59.625 196.984 59.7812C196.516 59.8854 196.099 59.9635 195.734 60.0156C194.693 60.0677 194.016 59.8854 193.703 59.4688C193.391 59.1042 193.443 58.1667 193.859 56.6562C194.068 55.9271 194.432 54.7552 194.953 53.1406C195.526 51.526 196.073 49.7812 196.594 47.9062C197.115 45.9792 197.557 44.0781 197.922 42.2031C198.339 40.276 198.547 38.6094 198.547 37.2031C198.547 36.2135 198.365 35.5365 198 35.1719C197.688 34.8073 197.219 34.625 196.594 34.625C196.125 34.625 195.344 34.8854 194.25 35.4062C193.156 35.9271 191.932 36.9427 190.578 38.4531C189.224 39.9635 187.87 42.0729 186.516 44.7812C185.214 47.4375 184.094 50.901 183.156 55.1719V55.0156C183.052 55.4323 182.948 55.849 182.844 56.2656C182.74 56.6302 182.661 57.0208 182.609 57.4375C182.557 57.8542 182.479 58.2448 182.375 58.6094L178.469 60.3281C178.208 60.4323 177.87 60.5104 177.453 60.5625C177.089 60.6146 176.724 60.5365 176.359 60.3281C176.047 60.1719 175.812 59.8073 175.656 59.2344C175.5 58.6615 175.552 57.8021 175.812 56.6562L180.734 36.2656C180.891 35.5885 181.021 34.9375 181.125 34.3125C181.229 33.7396 181.281 33.1927 181.281 32.6719C181.333 32.099 181.307 31.6302 181.203 31.2656C182.089 30.849 182.87 30.5365 183.547 30.3281C184.224 30.1198 184.771 29.9635 185.188 29.8594C185.708 29.7031 186.151 29.625 186.516 29.625C188.182 29.625 188.729 31.0573 188.156 33.9219C187.948 34.7552 187.635 35.9792 187.219 37.5938C188.208 36.3438 189.25 35.1719 190.344 34.0781C191.49 32.9323 192.635 31.9167 193.781 31.0312C194.927 30.1458 196.073 29.4427 197.219 28.9219C198.417 28.401 199.589 28.1406 200.734 28.1406C201.62 28.1406 202.349 28.401 202.922 28.9219C203.547 29.4427 204.016 30.1458 204.328 31.0312C204.693 31.8646 204.901 32.8802 204.953 34.0781C205.005 35.224 204.953 36.4219 204.797 37.6719C205.63 36.5781 206.542 35.4844 207.531 34.3906C208.573 33.2448 209.641 32.2292 210.734 31.3438C211.88 30.4583 213.052 29.7292 214.25 29.1562C215.448 28.5833 216.646 28.2969 217.844 28.2969C219.25 28.2969 220.318 28.7135 221.047 29.5469C221.828 30.3802 222.349 31.4479 222.609 32.75C222.922 34.0521 223 35.4583 222.844 36.9688C222.74 38.4792 222.531 39.9375 222.219 41.3438L219.562 51.8906C218.99 54.4948 219.536 55.7969 221.203 55.7969C222.505 55.7969 223.938 55.1719 225.5 53.9219C227.062 52.6719 228.573 51.1875 230.031 49.4688C231.542 47.75 232.948 45.9792 234.25 44.1562C235.552 42.3333 236.646 40.875 237.531 39.7812C237.844 39.4167 238.156 39.2083 238.469 39.1562C238.833 39.1042 239.12 39.1823 239.328 39.3906C239.589 39.5469 239.719 39.8333 239.719 40.25C239.771 40.6667 239.641 41.1875 239.328 41.8125C238.286 43.6354 237.01 45.6667 235.5 47.9062C233.99 50.0938 232.323 52.151 230.5 54.0781C228.729 56.0052 226.828 57.6198 224.797 58.9219C222.766 60.224 220.656 60.875 218.469 60.875C217.74 60.875 217.01 60.7969 216.281 60.6406C215.604 60.4844 214.953 60.1979 214.328 59.7812C213.755 59.3646 213.286 58.8177 212.922 58.1406C212.557 57.4115 212.375 56.5 212.375 55.4062Z" fill="white"/>
<path d="M171.203 12.9839C171.047 13.5569 170.734 14.1298 170.266 14.7027C169.849 15.2235 169.354 15.6662 168.781 16.0308C168.26 16.3433 167.714 16.5516 167.141 16.6558C166.568 16.76 166.099 16.6558 165.734 16.3433C164.641 15.51 164.068 14.6246 164.016 13.6871C163.964 12.6975 164.198 11.786 164.719 10.9527C165.24 10.0673 165.891 9.33811 166.672 8.76519C167.453 8.14019 168.13 7.77561 168.703 7.67144C169.276 7.56727 169.745 7.69748 170.109 8.06207C170.526 8.37457 170.839 8.81727 171.047 9.39019C171.255 9.91102 171.359 10.51 171.359 11.1871C171.411 11.8641 171.359 12.4631 171.203 12.9839ZM160.422 29.6246C160.682 29.3121 161.177 29.0516 161.906 28.8433C162.635 28.635 163.391 28.4787 164.172 28.3746C164.953 28.2183 165.656 28.1402 166.281 28.1402C166.958 28.0881 167.349 28.0881 167.453 28.1402C167.505 28.1923 167.375 28.7391 167.062 29.7808C166.75 30.8225 166.359 32.0464 165.891 33.4527C165.422 34.8589 164.927 36.3173 164.406 37.8277C163.885 39.286 163.495 40.4839 163.234 41.4214C162.974 42.3589 162.661 43.4266 162.297 44.6246C161.932 45.7704 161.594 46.9162 161.281 48.0621C161.021 49.1558 160.839 50.1975 160.734 51.1871C160.63 52.1766 160.708 52.9319 160.969 53.4527C161.229 54.0777 161.516 54.5204 161.828 54.7808C162.141 54.9891 162.479 55.0933 162.844 55.0933C163.885 55.0933 165.188 54.5204 166.75 53.3746C168.365 52.2287 169.979 50.8746 171.594 49.3121C173.26 47.6975 174.797 46.0829 176.203 44.4683C177.609 42.8016 178.651 41.4735 179.328 40.4839C179.745 39.9631 180.161 39.6246 180.578 39.4683C181.047 39.3121 181.411 39.3381 181.672 39.5464C181.984 39.7548 182.141 40.0933 182.141 40.5621C182.193 41.0308 182.036 41.5777 181.672 42.2027C180.839 43.661 179.615 45.4058 178 47.4371C176.385 49.4162 174.667 51.3433 172.844 53.2183C171.021 55.0412 169.224 56.6037 167.453 57.9058C165.734 59.2079 164.328 59.885 163.234 59.9371C162.349 59.9891 161.464 59.8329 160.578 59.4683C159.745 59.1558 158.964 58.7131 158.234 58.1402C157.557 57.5152 156.984 56.8121 156.516 56.0308C156.047 55.1975 155.786 54.3381 155.734 53.4527C155.578 52.1506 155.578 50.3798 155.734 48.1402C155.891 45.8485 156.177 43.5308 156.594 41.1871C157.01 38.7912 157.531 36.5256 158.156 34.3902C158.833 32.2548 159.589 30.6662 160.422 29.6246Z" fill="white"/>
<path d="M157.062 41.8125C157.427 41.3958 157.792 41.1875 158.156 41.1875C158.573 41.1354 158.885 41.2396 159.094 41.5C159.354 41.7083 159.458 42.0469 159.406 42.5156C159.406 42.9844 159.198 43.5052 158.781 44.0781C157.792 45.4323 156.646 46.8385 155.344 48.2969C154.042 49.7031 152.635 51.0833 151.125 52.4375C149.667 53.7917 148.182 55.0677 146.672 56.2656C145.161 57.4635 143.703 58.4531 142.297 59.2344C140.734 60.1198 139.406 60.5625 138.312 60.5625C137.271 60.5625 136.229 59.8854 135.188 58.5312C134.25 57.3333 133.781 56.0573 133.781 54.7031C133.833 53.2969 134.146 51.5521 134.719 49.4688C135.083 48.1667 135.578 46.6302 136.203 44.8594C136.88 43.0365 137.401 41.2917 137.766 39.625C138.182 37.9583 138.312 36.5521 138.156 35.4062C138 34.2083 137.323 33.6094 136.125 33.6094C135.292 33.6094 134.38 33.8958 133.391 34.4688C132.453 35.0417 131.49 35.7969 130.5 36.7344C129.562 37.6198 128.651 38.6354 127.766 39.7812C126.88 40.9271 126.099 42.0469 125.422 43.1406C125.005 45.1719 124.589 47.1771 124.172 49.1562C123.807 50.8229 123.417 52.6458 123 54.625C122.635 56.5521 122.271 58.2708 121.906 59.7812C121.594 60.0417 121.255 60.224 120.891 60.3281C120.526 60.4323 120.188 60.4844 119.875 60.4844C119.51 60.4844 119.146 60.4583 118.781 60.4062C118.365 60.3021 117.974 60.1458 117.609 59.9375C117.297 59.7292 116.984 59.4427 116.672 59.0781C116.359 58.7656 116.125 58.3229 115.969 57.75C118.312 48.1146 120.161 40.3802 121.516 34.5469C122.87 28.7135 123.911 24.2604 124.641 21.1875C125.474 17.5417 126.047 15.0156 126.359 13.6094C126.516 12.6198 126.646 11.6562 126.75 10.7188C126.854 9.88542 126.906 9.02604 126.906 8.14062C126.906 7.25521 126.828 6.44792 126.672 5.71875C127.089 5.45833 127.531 5.25 128 5.09375C128.521 4.9375 129.016 4.80729 129.484 4.70312C130.057 4.54688 130.63 4.41667 131.203 4.3125C131.776 4.20833 132.297 4.15625 132.766 4.15625C133.182 4.15625 133.573 4.20833 133.938 4.3125C134.302 4.36458 134.536 4.52083 134.641 4.78125C134.953 5.04167 135.083 5.5625 135.031 6.34375C135.031 7.125 134.979 7.93229 134.875 8.76562C134.667 9.75521 134.432 10.8229 134.172 11.9688C133.078 16.1875 131.854 20.3021 130.5 24.3125C129.146 28.2708 127.896 32.5156 126.75 37.0469C127.427 36.0052 128.234 34.9375 129.172 33.8438C130.109 32.75 131.125 31.7604 132.219 30.875C133.365 29.9375 134.562 29.1823 135.812 28.6094C137.062 27.9844 138.391 27.6719 139.797 27.6719C140.526 27.6719 141.203 27.8021 141.828 28.0625C142.505 28.2708 143.078 28.6615 143.547 29.2344C144.068 29.7552 144.458 30.4844 144.719 31.4219C144.979 32.3073 145.083 33.4271 145.031 34.7812C145.031 35.6146 144.927 36.474 144.719 37.3594C144.562 38.2448 144.328 39.2344 144.016 40.3281C143.703 41.3698 143.286 42.5417 142.766 43.8438C142.297 45.1458 141.724 46.6562 141.047 48.375C140.578 49.5729 140.214 50.5885 139.953 51.4219C139.693 52.2552 139.745 52.9844 140.109 53.6094C140.578 54.4427 141.49 54.651 142.844 54.2344C144.25 53.7656 146.333 52.4115 149.094 50.1719C149.719 49.651 150.422 49 151.203 48.2188C151.984 47.4375 152.74 46.6562 153.469 45.875C154.198 45.0417 154.875 44.2604 155.5 43.5312C156.125 42.8021 156.646 42.2292 157.062 41.8125Z" fill="white"/>
<path d="M99.6406 56.3438C99.9531 56.5521 100.344 56.6562 100.812 56.6562C101.333 56.6562 101.828 56.5521 102.297 56.3438C102.818 56.1354 103.286 55.849 103.703 55.4844C104.172 55.1198 104.51 54.651 104.719 54.0781C104.927 53.5052 104.927 52.6979 104.719 51.6562C104.51 50.5625 104.172 49.4167 103.703 48.2188C103.286 46.9688 102.818 45.7188 102.297 44.4688C101.776 43.2188 101.333 42.0729 100.969 41.0312C100.656 40.25 100.396 39.5208 100.188 38.8438C99.9792 38.2708 99.7708 37.724 99.5625 37.2031C99.4062 36.6302 99.276 36.2396 99.1719 36.0312C98.9115 36.4479 98.4427 37.125 97.7656 38.0625C97.1406 39 96.4375 39.9896 95.6562 41.0312C94.9271 42.0208 94.224 42.9583 93.5469 43.8438C92.8698 44.6771 92.401 45.25 92.1406 45.5625C91.724 46.0312 91.3073 46.3177 90.8906 46.4219C90.526 46.474 90.2135 46.3958 89.9531 46.1875C89.6927 45.9271 89.5365 45.5885 89.4844 45.1719C89.4844 44.7031 89.6927 44.1562 90.1094 43.5312C90.4219 43.1146 90.8906 42.4635 91.5156 41.5781C92.1406 40.6406 92.7656 39.7031 93.3906 38.7656C94.0156 37.776 94.5885 36.9167 95.1094 36.1875C95.6302 35.4062 95.9167 34.9375 95.9688 34.7812C96.0729 34.3646 95.9167 33.8177 95.5 33.1406C95.1354 32.4635 95.0833 31.6823 95.3438 30.7969C95.5521 30.0677 96.0208 29.2344 96.75 28.2969C97.4792 27.3073 98.3385 26.4219 99.3281 25.6406C100.318 24.8594 101.333 24.2865 102.375 23.9219C103.417 23.5052 104.354 23.5052 105.188 23.9219C105.865 24.3385 106.411 24.8073 106.828 25.3281C107.245 25.7969 107.401 26.2917 107.297 26.8125C107.193 27.0729 107.036 27.4115 106.828 27.8281C106.62 28.2448 106.307 28.7656 105.891 29.3906C105.474 29.9635 104.875 30.7188 104.094 31.6562C104.25 32.8542 104.458 33.9479 104.719 34.9375C105.031 35.9271 105.318 36.7865 105.578 37.5156C105.891 38.401 106.229 39.2083 106.594 39.9375C107.062 40.875 107.557 41.8385 108.078 42.8281C108.599 43.8177 109.068 44.8073 109.484 45.7969C109.901 46.7344 110.24 47.6198 110.5 48.4531C110.76 49.2865 110.839 49.9896 110.734 50.5625C110.578 51.4479 110.109 52.5156 109.328 53.7656C108.599 55.0156 107.661 56.2396 106.516 57.4375C105.422 58.5833 104.146 59.5729 102.688 60.4062C101.281 61.2396 99.7969 61.6562 98.2344 61.6562C97.1406 61.6562 96.0729 61.3177 95.0312 60.6406C94.0417 59.9635 93.1823 59.1823 92.4531 58.2969C91.776 57.3594 91.2552 56.4479 90.8906 55.5625C90.5781 54.6771 90.5521 54 90.8125 53.5312C91.125 52.9062 91.4115 52.4115 91.6719 52.0469C91.9323 51.6823 92.3229 51.2656 92.8438 50.7969C93.0521 50.6406 93.3125 50.4583 93.625 50.25C93.8854 50.0938 94.25 49.9375 94.7188 49.7812C95.1875 49.625 95.7344 49.4427 96.3594 49.2344C96.8802 50.849 97.349 52.125 97.7656 53.0625C98.1823 53.9479 98.5208 54.651 98.7812 55.1719C99.0938 55.7448 99.3802 56.1354 99.6406 56.3438Z" fill="white"/>
<path d="M83.8594 12.9839C83.7031 13.5569 83.3906 14.1298 82.9219 14.7027C82.5052 15.2235 82.0104 15.6662 81.4375 16.0308C80.9167 16.3433 80.3698 16.5516 79.7969 16.6558C79.224 16.76 78.7552 16.6558 78.3906 16.3433C77.2969 15.51 76.724 14.6246 76.6719 13.6871C76.6198 12.6975 76.8542 11.786 77.375 10.9527C77.8958 10.0673 78.5469 9.33811 79.3281 8.76519C80.1094 8.14019 80.7865 7.77561 81.3594 7.67144C81.9323 7.56727 82.401 7.69748 82.7656 8.06207C83.1823 8.37457 83.4948 8.81727 83.7031 9.39019C83.9115 9.91102 84.0156 10.51 84.0156 11.1871C84.0677 11.8641 84.0156 12.4631 83.8594 12.9839ZM73.0781 29.6246C73.3385 29.3121 73.8333 29.0516 74.5625 28.8433C75.2917 28.635 76.0469 28.4787 76.8281 28.3746C77.6094 28.2183 78.3125 28.1402 78.9375 28.1402C79.6146 28.0881 80.0052 28.0881 80.1094 28.1402C80.1615 28.1923 80.0312 28.7391 79.7188 29.7808C79.4062 30.8225 79.0156 32.0464 78.5469 33.4527C78.0781 34.8589 77.5833 36.3173 77.0625 37.8277C76.5417 39.286 76.151 40.4839 75.8906 41.4214C75.6302 42.3589 75.3177 43.4266 74.9531 44.6246C74.5885 45.7704 74.25 46.9162 73.9375 48.0621C73.6771 49.1558 73.4948 50.1975 73.3906 51.1871C73.2865 52.1766 73.3646 52.9319 73.625 53.4527C73.8854 54.0777 74.1719 54.5204 74.4844 54.7808C74.7969 54.9891 75.1354 55.0933 75.5 55.0933C76.5417 55.0933 77.8438 54.5204 79.4062 53.3746C81.0208 52.2287 82.6354 50.8746 84.25 49.3121C85.9167 47.6975 87.4531 46.0829 88.8594 44.4683C90.2656 42.8016 91.3073 41.4735 91.9844 40.4839C92.401 39.9631 92.8177 39.6246 93.2344 39.4683C93.7031 39.3121 94.0677 39.3381 94.3281 39.5464C94.6406 39.7548 94.7969 40.0933 94.7969 40.5621C94.849 41.0308 94.6927 41.5777 94.3281 42.2027C93.4948 43.661 92.2708 45.4058 90.6562 47.4371C89.0417 49.4162 87.3229 51.3433 85.5 53.2183C83.6771 55.0412 81.8802 56.6037 80.1094 57.9058C78.3906 59.2079 76.9844 59.885 75.8906 59.9371C75.0052 59.9891 74.1198 59.8329 73.2344 59.4683C72.401 59.1558 71.6198 58.7131 70.8906 58.1402C70.2135 57.5152 69.6406 56.8121 69.1719 56.0308C68.7031 55.1975 68.4427 54.3381 68.3906 53.4527C68.2344 52.1506 68.2344 50.3798 68.3906 48.1402C68.5469 45.8485 68.8333 43.5308 69.25 41.1871C69.6667 38.7912 70.1875 36.5256 70.8125 34.3902C71.4896 32.2548 72.2448 30.6662 73.0781 29.6246Z" fill="white"/>
<path d="M9.79688 73.6094C7.76562 73.6615 6.09896 73.2969 4.79688 72.5156C3.44271 71.7344 2.40104 70.5885 1.67188 69.0781C0.890625 67.6198 0.395833 65.8229 0.1875 63.6875C-0.0208333 61.6042 -0.0208333 59.3125 0.1875 56.8125C0.447917 54.8854 0.916667 52.8802 1.59375 50.7969C2.16667 49.026 3.05208 47.0729 4.25 44.9375C5.39583 42.8021 6.95833 40.7188 8.9375 38.6875C9.35417 38.7917 9.69271 38.9219 9.95312 39.0781C10.2135 39.1823 10.4219 39.3125 10.5781 39.4688C10.7344 39.6771 10.8385 39.8594 10.8906 40.0156C10.9948 40.5885 10.8385 41.2396 10.4219 41.9688C10.0052 42.6979 9.58854 43.4792 9.17188 44.3125C8.02604 46.7083 7.16667 48.974 6.59375 51.1094C6.02083 53.2448 5.65625 55.224 5.5 57.0469C5.39583 58.6094 5.42188 60.0156 5.57812 61.2656C5.68229 62.5677 5.86458 63.6615 6.125 64.5469C6.38542 65.4844 6.67188 66.1875 6.98438 66.6562C7.29688 67.1771 7.58333 67.4375 7.84375 67.4375C8.10417 67.4375 8.36458 67.2552 8.625 66.8906C8.9375 66.526 9.22396 66.0833 9.48438 65.5625C9.79688 65.0417 10.1615 64.2344 10.5781 63.1406C10.9948 62.099 11.4375 60.875 11.9062 59.4688C12.375 58.0625 12.8177 56.5521 13.2344 54.9375C13.7031 53.2708 14.1198 51.6042 14.4844 49.9375C15.2135 46.6042 15.9948 42.8542 16.8281 38.6875C17.6615 34.4688 18.8854 30.0677 20.5 25.4844C21.0208 23.5573 21.6719 21.4479 22.4531 19.1562C23.0781 17.1771 23.8594 14.8854 24.7969 12.2812C25.7865 9.625 26.9062 6.76042 28.1562 3.6875C28.1562 3.42708 28.3646 3.19271 28.7812 2.98438C29.25 2.72396 29.7708 2.46354 30.3438 2.20312C30.9688 1.94271 31.6719 1.68229 32.4531 1.42188C33.4948 1.05729 34.3021 0.848958 34.875 0.796875C35.5 0.744792 35.9688 0.822917 36.2812 1.03125C36.5938 1.23958 36.8021 1.52604 36.9062 1.89062C37.0104 2.20312 37.0625 2.56771 37.0625 2.98438C37.1667 4.70312 37.2188 6.31771 37.2188 7.82812C37.2708 9.33854 37.3229 10.6667 37.375 11.8125C37.4271 13.1667 37.4531 14.3906 37.4531 15.4844C37.5052 16.9427 37.4271 18.8958 37.2188 21.3438C37.0104 23.7396 36.776 26.2656 36.5156 28.9219C36.3073 31.5781 36.099 34.1823 35.8906 36.7344C35.7344 39.2344 35.7083 41.3177 35.8125 42.9844C35.8125 43.8698 35.8385 44.7031 35.8906 45.4844C35.9948 46.2135 36.099 46.9427 36.2031 47.6719C36.8802 45.7969 37.6354 43.8438 38.4688 41.8125C39.3021 39.7292 40.1354 37.75 40.9688 35.875C41.8021 33.9479 42.5833 32.1771 43.3125 30.5625C44.0417 28.8958 44.6146 27.5156 45.0312 26.4219C45.6562 24.9635 46.4896 23.1146 47.5312 20.875C48.5729 18.6354 49.6146 16.3958 50.6562 14.1562C51.75 11.9167 52.7396 9.85938 53.625 7.98438C54.5625 6.10938 55.2396 4.80729 55.6562 4.07812C55.9688 3.55729 56.4896 3.08854 57.2188 2.67188C58 2.25521 58.8073 1.89062 59.6406 1.57812C60.526 1.26562 61.3333 1.05729 62.0625 0.953125C62.8438 0.796875 63.3646 0.770833 63.625 0.875C64.3021 1.03125 64.7708 1.23958 65.0312 1.5C65.3438 1.76042 65.526 1.94271 65.5781 2.04688C65.6823 2.25521 65.7604 2.61979 65.8125 3.14062C65.8646 3.60938 65.8385 4.36458 65.7344 5.40625C65.6302 6.65625 65.3177 8.55729 64.7969 11.1094C64.3281 13.6615 63.7292 16.5781 63 19.8594C62.3229 23.0885 61.5677 26.5521 60.7344 30.25C59.9531 33.9479 59.1979 37.5938 58.4688 41.1875C57.7396 44.7292 57.0885 48.0625 56.5156 51.1875C55.9948 54.3125 55.6562 56.9427 55.5 59.0781C55.3958 61.474 55.5521 63.5833 55.9688 65.4062C56.125 66.1875 56.3594 66.9427 56.6719 67.6719C56.9844 68.401 57.401 69.026 57.9219 69.5469C58.4427 70.1198 59.0677 70.5365 59.7969 70.7969C60.526 71.0573 61.3854 71.1354 62.375 71.0312C61.0729 71.9167 59.7969 72.5677 58.5469 72.9844C57.2969 73.401 56.0729 73.6094 54.875 73.6094C53.5729 73.6615 52.4271 73.4531 51.4375 72.9844C50.4479 72.5677 49.6146 71.9427 48.9375 71.1094C48.2604 70.3281 47.7656 69.3646 47.4531 68.2188C47.1406 67.125 47.0365 65.901 47.1406 64.5469C47.2448 63.2969 47.5833 61.2396 48.1562 58.375C48.7292 55.5104 49.4062 52.2812 50.1875 48.6875C51.0208 45.0417 51.9062 41.2656 52.8438 37.3594C53.8333 33.401 54.7448 29.7031 55.5781 26.2656C56.4635 22.776 57.2188 19.7812 57.8438 17.2812C58.4688 14.7812 58.8594 13.1406 59.0156 12.3594C59.1198 11.7344 59.1979 11.1615 59.25 10.6406C59.3542 10.0677 59.4583 9.57292 59.5625 9.15625C59.0417 10.1979 58.3906 11.4479 57.6094 12.9062C56.8802 14.3646 56.099 15.9271 55.2656 17.5938C54.4323 19.2604 53.5729 21.0052 52.6875 22.8281C51.8542 24.599 51.0469 26.3177 50.2656 27.9844C48.9635 30.6927 47.6875 33.4792 46.4375 36.3438C45.1875 39.1562 44.0677 41.8385 43.0781 44.3906C42.0885 46.9427 41.2552 49.2344 40.5781 51.2656C39.9531 53.2969 39.5885 54.8594 39.4844 55.9531V57.0469C39.4844 57.3594 39.4844 57.724 39.4844 58.1406C39.5365 58.5573 39.6146 58.9479 39.7188 59.3125L36.5938 61.7344C36.125 61.8906 35.7083 62.0208 35.3438 62.125C35.0312 62.2292 34.7188 62.2812 34.4062 62.2812C33.2083 62.2812 32.2969 61.6562 31.6719 60.4062C31.0469 59.2604 30.474 57.0208 29.9531 53.6875C29.4323 50.3542 29.276 46.2656 29.4844 41.4219C29.5885 39.026 29.7448 36.6042 29.9531 34.1562C30.2135 31.7083 30.4479 29.3646 30.6562 27.125C30.9167 24.8854 31.151 22.8021 31.3594 20.875C31.5677 18.8958 31.6719 17.2031 31.6719 15.7969C31.724 14.7552 31.6979 13.8177 31.5938 12.9844C31.4896 12.099 31.3854 11.2917 31.2812 10.5625C30.8125 11.7604 30.2917 13.401 29.7188 15.4844C29.1458 17.5156 28.5469 19.7812 27.9219 22.2812C27.2969 24.7812 26.6458 27.4115 25.9688 30.1719C25.3438 32.9323 24.7188 35.5885 24.0938 38.1406C23.5208 40.6927 22.974 43.0625 22.4531 45.25C21.9323 47.3854 21.5156 49.1042 21.2031 50.4062C20.6823 52.4896 20.1615 54.8594 19.6406 57.5156C19.1198 60.1719 18.4688 62.6719 17.6875 65.0156C16.9062 67.4115 15.8906 69.4167 14.6406 71.0312C13.3906 72.6979 11.776 73.5573 9.79688 73.6094Z" fill="white"/>
</svg>
