<svg width="685" height="75" viewBox="0 0 685 75" fill="none" xmlns="http://www.w3.org/2000/svg">
<path d="M9.79688 74.6094C7.76562 74.6615 6.09896 74.2969 4.79688 73.5156C3.44271 72.7344 2.40104 71.5885 1.67188 70.0781C0.890625 68.6198 0.395833 66.8229 0.1875 64.6875C-0.0208333 62.6042 -0.0208333 60.3125 0.1875 57.8125C0.447917 55.8854 0.916667 53.8802 1.59375 51.7969C2.16667 50.026 3.05208 48.0729 4.25 45.9375C5.39583 43.8021 6.95833 41.7188 8.9375 39.6875C9.35417 39.7917 9.69271 39.9219 9.95312 40.0781C10.2135 40.1823 10.4219 40.3125 10.5781 40.4688C10.7344 40.6771 10.8385 40.8594 10.8906 41.0156C10.9948 41.5885 10.8385 42.2396 10.4219 42.9688C10.0052 43.6979 9.58854 44.4792 9.17188 45.3125C8.02604 47.7083 7.16667 49.974 6.59375 52.1094C6.02083 54.2448 5.65625 56.224 5.5 58.0469C5.39583 59.6094 5.42188 61.0156 5.57812 62.2656C5.68229 63.5677 5.86458 64.6615 6.125 65.5469C6.38542 66.4844 6.67188 67.1875 6.98438 67.6562C7.29688 68.1771 7.58333 68.4375 7.84375 68.4375C8.10417 68.4375 8.36458 68.2552 8.625 67.8906C8.9375 67.526 9.22396 67.0833 9.48438 66.5625C9.79688 66.0417 10.1615 65.2344 10.5781 64.1406C10.9948 63.099 11.4375 61.875 11.9062 60.4688C12.375 59.0625 12.8177 57.5521 13.2344 55.9375C13.7031 54.2708 14.1198 52.6042 14.4844 50.9375C15.2135 47.6042 15.9948 43.8542 16.8281 39.6875C17.6615 35.4688 18.8854 31.0677 20.5 26.4844C21.0208 24.5573 21.6719 22.4479 22.4531 20.1562C23.0781 18.1771 23.8594 15.8854 24.7969 13.2812C25.7865 10.625 26.9062 7.76042 28.1562 4.6875C28.1562 4.42708 28.3646 4.19271 28.7812 3.98438C29.25 3.72396 29.7708 3.46354 30.3438 3.20312C30.9688 2.94271 31.6719 2.68229 32.4531 2.42188C33.4948 2.05729 34.3021 1.84896 34.875 1.79688C35.5 1.74479 35.9688 1.82292 36.2812 2.03125C36.5938 2.23958 36.8021 2.52604 36.9062 2.89062C37.0104 3.20312 37.0625 3.56771 37.0625 3.98438C37.1667 5.70312 37.2188 7.31771 37.2188 8.82812C37.2708 10.3385 37.3229 11.6667 37.375 12.8125C37.4271 14.1667 37.4531 15.3906 37.4531 16.4844C37.5052 17.9427 37.4271 19.8958 37.2188 22.3438C37.0104 24.7396 36.776 27.2656 36.5156 29.9219C36.3073 32.5781 36.099 35.1823 35.8906 37.7344C35.7344 40.2344 35.7083 42.3177 35.8125 43.9844C35.8125 44.8698 35.8385 45.7031 35.8906 46.4844C35.9948 47.2135 36.099 47.9427 36.2031 48.6719C36.8802 46.7969 37.6354 44.8438 38.4688 42.8125C39.3021 40.7292 40.1354 38.75 40.9688 36.875C41.8021 34.9479 42.5833 33.1771 43.3125 31.5625C44.0417 29.8958 44.6146 28.5156 45.0312 27.4219C45.6562 25.9635 46.4896 24.1146 47.5312 21.875C48.5729 19.6354 49.6146 17.3958 50.6562 15.1562C51.75 12.9167 52.7396 10.8594 53.625 8.98438C54.5625 7.10938 55.2396 5.80729 55.6562 5.07812C55.9688 4.55729 56.4896 4.08854 57.2188 3.67188C58 3.25521 58.8073 2.89062 59.6406 2.57812C60.526 2.26562 61.3333 2.05729 62.0625 1.95312C62.8438 1.79688 63.3646 1.77083 63.625 1.875C64.3021 2.03125 64.7708 2.23958 65.0312 2.5C65.3438 2.76042 65.526 2.94271 65.5781 3.04688C65.6823 3.25521 65.7604 3.61979 65.8125 4.14062C65.8646 4.60938 65.8385 5.36458 65.7344 6.40625C65.6302 7.65625 65.3177 9.55729 64.7969 12.1094C64.3281 14.6615 63.7292 17.5781 63 20.8594C62.3229 24.0885 61.5677 27.5521 60.7344 31.25C59.9531 34.9479 59.1979 38.5938 58.4688 42.1875C57.7396 45.7292 57.0885 49.0625 56.5156 52.1875C55.9948 55.3125 55.6562 57.9427 55.5 60.0781C55.3958 62.474 55.5521 64.5833 55.9688 66.4062C56.125 67.1875 56.3594 67.9427 56.6719 68.6719C56.9844 69.401 57.401 70.026 57.9219 70.5469C58.4427 71.1198 59.0677 71.5365 59.7969 71.7969C60.526 72.0573 61.3854 72.1354 62.375 72.0312C61.0729 72.9167 59.7969 73.5677 58.5469 73.9844C57.2969 74.401 56.0729 74.6094 54.875 74.6094C53.5729 74.6615 52.4271 74.4531 51.4375 73.9844C50.4479 73.5677 49.6146 72.9427 48.9375 72.1094C48.2604 71.3281 47.7656 70.3646 47.4531 69.2188C47.1406 68.125 47.0365 66.901 47.1406 65.5469C47.2448 64.2969 47.5833 62.2396 48.1562 59.375C48.7292 56.5104 49.4062 53.2812 50.1875 49.6875C51.0208 46.0417 51.9062 42.2656 52.8438 38.3594C53.8333 34.401 54.7448 30.7031 55.5781 27.2656C56.4635 23.776 57.2188 20.7812 57.8438 18.2812C58.4688 15.7812 58.8594 14.1406 59.0156 13.3594C59.1198 12.7344 59.1979 12.1615 59.25 11.6406C59.3542 11.0677 59.4583 10.5729 59.5625 10.1562C59.0417 11.1979 58.3906 12.4479 57.6094 13.9062C56.8802 15.3646 56.099 16.9271 55.2656 18.5938C54.4323 20.2604 53.5729 22.0052 52.6875 23.8281C51.8542 25.599 51.0469 27.3177 50.2656 28.9844C48.9635 31.6927 47.6875 34.4792 46.4375 37.3438C45.1875 40.1562 44.0677 42.8385 43.0781 45.3906C42.0885 47.9427 41.2552 50.2344 40.5781 52.2656C39.9531 54.2969 39.5885 55.8594 39.4844 56.9531V58.0469C39.4844 58.3594 39.4844 58.724 39.4844 59.1406C39.5365 59.5573 39.6146 59.9479 39.7188 60.3125L36.5938 62.7344C36.125 62.8906 35.7083 63.0208 35.3438 63.125C35.0312 63.2292 34.7188 63.2812 34.4062 63.2812C33.2083 63.2812 32.2969 62.6562 31.6719 61.4062C31.0469 60.2604 30.474 58.0208 29.9531 54.6875C29.4323 51.3542 29.276 47.2656 29.4844 42.4219C29.5885 40.026 29.7448 37.6042 29.9531 35.1562C30.2135 32.7083 30.4479 30.3646 30.6562 28.125C30.9167 25.8854 31.151 23.8021 31.3594 21.875C31.5677 19.8958 31.6719 18.2031 31.6719 16.7969C31.724 15.7552 31.6979 14.8177 31.5938 13.9844C31.4896 13.099 31.3854 12.2917 31.2812 11.5625C30.8125 12.7604 30.2917 14.401 29.7188 16.4844C29.1458 18.5156 28.5469 20.7812 27.9219 23.2812C27.2969 25.7812 26.6458 28.4115 25.9688 31.1719C25.3438 33.9323 24.7188 36.5885 24.0938 39.1406C23.5208 41.6927 22.974 44.0625 22.4531 46.25C21.9323 48.3854 21.5156 50.1042 21.2031 51.4062C20.6823 53.4896 20.1615 55.8594 19.6406 58.5156C19.1198 61.1719 18.4688 63.6719 17.6875 66.0156C16.9062 68.4115 15.8906 70.4167 14.6406 72.0312C13.3906 73.6979 11.776 74.5573 9.79688 74.6094Z" fill="white"/>
<path d="M83.8594 13.9844C83.7031 14.5573 83.3906 15.1302 82.9219 15.7031C82.5052 16.224 82.0104 16.6667 81.4375 17.0312C80.9167 17.3438 80.3698 17.5521 79.7969 17.6562C79.224 17.7604 78.7552 17.6562 78.3906 17.3438C77.2969 16.5104 76.724 15.625 76.6719 14.6875C76.6198 13.6979 76.8542 12.7865 77.375 11.9531C77.8958 11.0677 78.5469 10.3385 79.3281 9.76562C80.1094 9.14062 80.7865 8.77604 81.3594 8.67188C81.9323 8.56771 82.401 8.69792 82.7656 9.0625C83.1823 9.375 83.4948 9.81771 83.7031 10.3906C83.9115 10.9115 84.0156 11.5104 84.0156 12.1875C84.0677 12.8646 84.0156 13.4635 83.8594 13.9844ZM73.0781 30.625C73.3385 30.3125 73.8333 30.0521 74.5625 29.8438C75.2917 29.6354 76.0469 29.4792 76.8281 29.375C77.6094 29.2188 78.3125 29.1406 78.9375 29.1406C79.6146 29.0885 80.0052 29.0885 80.1094 29.1406C80.1615 29.1927 80.0312 29.7396 79.7188 30.7812C79.4062 31.8229 79.0156 33.0469 78.5469 34.4531C78.0781 35.8594 77.5833 37.3177 77.0625 38.8281C76.5417 40.2865 76.151 41.4844 75.8906 42.4219C75.6302 43.3594 75.3177 44.4271 74.9531 45.625C74.5885 46.7708 74.25 47.9167 73.9375 49.0625C73.6771 50.1562 73.4948 51.1979 73.3906 52.1875C73.2865 53.1771 73.3646 53.9323 73.625 54.4531C73.8854 55.0781 74.1719 55.5208 74.4844 55.7812C74.7969 55.9896 75.1354 56.0938 75.5 56.0938C76.5417 56.0938 77.8438 55.5208 79.4062 54.375C81.0208 53.2292 82.6354 51.875 84.25 50.3125C85.9167 48.6979 87.4531 47.0833 88.8594 45.4688C90.2656 43.8021 91.3073 42.474 91.9844 41.4844C92.401 40.9635 92.8177 40.625 93.2344 40.4688C93.7031 40.3125 94.0677 40.3385 94.3281 40.5469C94.6406 40.7552 94.7969 41.0938 94.7969 41.5625C94.849 42.0312 94.6927 42.5781 94.3281 43.2031C93.4948 44.6615 92.2708 46.4062 90.6562 48.4375C89.0417 50.4167 87.3229 52.3438 85.5 54.2188C83.6771 56.0417 81.8802 57.6042 80.1094 58.9062C78.3906 60.2083 76.9844 60.8854 75.8906 60.9375C75.0052 60.9896 74.1198 60.8333 73.2344 60.4688C72.401 60.1562 71.6198 59.7135 70.8906 59.1406C70.2135 58.5156 69.6406 57.8125 69.1719 57.0312C68.7031 56.1979 68.4427 55.3385 68.3906 54.4531C68.2344 53.151 68.2344 51.3802 68.3906 49.1406C68.5469 46.849 68.8333 44.5312 69.25 42.1875C69.6667 39.7917 70.1875 37.526 70.8125 35.3906C71.4896 33.2552 72.2448 31.6667 73.0781 30.625Z" fill="white"/>
<path d="M99.6406 57.3438C99.9531 57.5521 100.344 57.6562 100.812 57.6562C101.333 57.6562 101.828 57.5521 102.297 57.3438C102.818 57.1354 103.286 56.849 103.703 56.4844C104.172 56.1198 104.51 55.651 104.719 55.0781C104.927 54.5052 104.927 53.6979 104.719 52.6562C104.51 51.5625 104.172 50.4167 103.703 49.2188C103.286 47.9688 102.818 46.7188 102.297 45.4688C101.776 44.2188 101.333 43.0729 100.969 42.0312C100.656 41.25 100.396 40.5208 100.188 39.8438C99.9792 39.2708 99.7708 38.724 99.5625 38.2031C99.4062 37.6302 99.276 37.2396 99.1719 37.0312C98.9115 37.4479 98.4427 38.125 97.7656 39.0625C97.1406 40 96.4375 40.9896 95.6562 42.0312C94.9271 43.0208 94.224 43.9583 93.5469 44.8438C92.8698 45.6771 92.401 46.25 92.1406 46.5625C91.724 47.0312 91.3073 47.3177 90.8906 47.4219C90.526 47.474 90.2135 47.3958 89.9531 47.1875C89.6927 46.9271 89.5365 46.5885 89.4844 46.1719C89.4844 45.7031 89.6927 45.1562 90.1094 44.5312C90.4219 44.1146 90.8906 43.4635 91.5156 42.5781C92.1406 41.6406 92.7656 40.7031 93.3906 39.7656C94.0156 38.776 94.5885 37.9167 95.1094 37.1875C95.6302 36.4062 95.9167 35.9375 95.9688 35.7812C96.0729 35.3646 95.9167 34.8177 95.5 34.1406C95.1354 33.4635 95.0833 32.6823 95.3438 31.7969C95.5521 31.0677 96.0208 30.2344 96.75 29.2969C97.4792 28.3073 98.3385 27.4219 99.3281 26.6406C100.318 25.8594 101.333 25.2865 102.375 24.9219C103.417 24.5052 104.354 24.5052 105.188 24.9219C105.865 25.3385 106.411 25.8073 106.828 26.3281C107.245 26.7969 107.401 27.2917 107.297 27.8125C107.193 28.0729 107.036 28.4115 106.828 28.8281C106.62 29.2448 106.307 29.7656 105.891 30.3906C105.474 30.9635 104.875 31.7188 104.094 32.6562C104.25 33.8542 104.458 34.9479 104.719 35.9375C105.031 36.9271 105.318 37.7865 105.578 38.5156C105.891 39.401 106.229 40.2083 106.594 40.9375C107.062 41.875 107.557 42.8385 108.078 43.8281C108.599 44.8177 109.068 45.8073 109.484 46.7969C109.901 47.7344 110.24 48.6198 110.5 49.4531C110.76 50.2865 110.839 50.9896 110.734 51.5625C110.578 52.4479 110.109 53.5156 109.328 54.7656C108.599 56.0156 107.661 57.2396 106.516 58.4375C105.422 59.5833 104.146 60.5729 102.688 61.4062C101.281 62.2396 99.7969 62.6562 98.2344 62.6562C97.1406 62.6562 96.0729 62.3177 95.0312 61.6406C94.0417 60.9635 93.1823 60.1823 92.4531 59.2969C91.776 58.3594 91.2552 57.4479 90.8906 56.5625C90.5781 55.6771 90.5521 55 90.8125 54.5312C91.125 53.9062 91.4115 53.4115 91.6719 53.0469C91.9323 52.6823 92.3229 52.2656 92.8438 51.7969C93.0521 51.6406 93.3125 51.4583 93.625 51.25C93.8854 51.0938 94.25 50.9375 94.7188 50.7812C95.1875 50.625 95.7344 50.4427 96.3594 50.2344C96.8802 51.849 97.349 53.125 97.7656 54.0625C98.1823 54.9479 98.5208 55.651 98.7812 56.1719C99.0938 56.7448 99.3802 57.1354 99.6406 57.3438Z" fill="white"/>
<path d="M157.062 42.8125C157.427 42.3958 157.792 42.1875 158.156 42.1875C158.573 42.1354 158.885 42.2396 159.094 42.5C159.354 42.7083 159.458 43.0469 159.406 43.5156C159.406 43.9844 159.198 44.5052 158.781 45.0781C157.792 46.4323 156.646 47.8385 155.344 49.2969C154.042 50.7031 152.635 52.0833 151.125 53.4375C149.667 54.7917 148.182 56.0677 146.672 57.2656C145.161 58.4635 143.703 59.4531 142.297 60.2344C140.734 61.1198 139.406 61.5625 138.312 61.5625C137.271 61.5625 136.229 60.8854 135.188 59.5312C134.25 58.3333 133.781 57.0573 133.781 55.7031C133.833 54.2969 134.146 52.5521 134.719 50.4688C135.083 49.1667 135.578 47.6302 136.203 45.8594C136.88 44.0365 137.401 42.2917 137.766 40.625C138.182 38.9583 138.312 37.5521 138.156 36.4062C138 35.2083 137.323 34.6094 136.125 34.6094C135.292 34.6094 134.38 34.8958 133.391 35.4688C132.453 36.0417 131.49 36.7969 130.5 37.7344C129.562 38.6198 128.651 39.6354 127.766 40.7812C126.88 41.9271 126.099 43.0469 125.422 44.1406C125.005 46.1719 124.589 48.1771 124.172 50.1562C123.807 51.8229 123.417 53.6458 123 55.625C122.635 57.5521 122.271 59.2708 121.906 60.7812C121.594 61.0417 121.255 61.224 120.891 61.3281C120.526 61.4323 120.188 61.4844 119.875 61.4844C119.51 61.4844 119.146 61.4583 118.781 61.4062C118.365 61.3021 117.974 61.1458 117.609 60.9375C117.297 60.7292 116.984 60.4427 116.672 60.0781C116.359 59.7656 116.125 59.3229 115.969 58.75C118.312 49.1146 120.161 41.3802 121.516 35.5469C122.87 29.7135 123.911 25.2604 124.641 22.1875C125.474 18.5417 126.047 16.0156 126.359 14.6094C126.516 13.6198 126.646 12.6562 126.75 11.7188C126.854 10.8854 126.906 10.026 126.906 9.14062C126.906 8.25521 126.828 7.44792 126.672 6.71875C127.089 6.45833 127.531 6.25 128 6.09375C128.521 5.9375 129.016 5.80729 129.484 5.70312C130.057 5.54688 130.63 5.41667 131.203 5.3125C131.776 5.20833 132.297 5.15625 132.766 5.15625C133.182 5.15625 133.573 5.20833 133.938 5.3125C134.302 5.36458 134.536 5.52083 134.641 5.78125C134.953 6.04167 135.083 6.5625 135.031 7.34375C135.031 8.125 134.979 8.93229 134.875 9.76562C134.667 10.7552 134.432 11.8229 134.172 12.9688C133.078 17.1875 131.854 21.3021 130.5 25.3125C129.146 29.2708 127.896 33.5156 126.75 38.0469C127.427 37.0052 128.234 35.9375 129.172 34.8438C130.109 33.75 131.125 32.7604 132.219 31.875C133.365 30.9375 134.562 30.1823 135.812 29.6094C137.062 28.9844 138.391 28.6719 139.797 28.6719C140.526 28.6719 141.203 28.8021 141.828 29.0625C142.505 29.2708 143.078 29.6615 143.547 30.2344C144.068 30.7552 144.458 31.4844 144.719 32.4219C144.979 33.3073 145.083 34.4271 145.031 35.7812C145.031 36.6146 144.927 37.474 144.719 38.3594C144.562 39.2448 144.328 40.2344 144.016 41.3281C143.703 42.3698 143.286 43.5417 142.766 44.8438C142.297 46.1458 141.724 47.6562 141.047 49.375C140.578 50.5729 140.214 51.5885 139.953 52.4219C139.693 53.2552 139.745 53.9844 140.109 54.6094C140.578 55.4427 141.49 55.651 142.844 55.2344C144.25 54.7656 146.333 53.4115 149.094 51.1719C149.719 50.651 150.422 50 151.203 49.2188C151.984 48.4375 152.74 47.6562 153.469 46.875C154.198 46.0417 154.875 45.2604 155.5 44.5312C156.125 43.8021 156.646 43.2292 157.062 42.8125Z" fill="white"/>
<path d="M171.203 13.9844C171.047 14.5573 170.734 15.1302 170.266 15.7031C169.849 16.224 169.354 16.6667 168.781 17.0312C168.26 17.3438 167.714 17.5521 167.141 17.6562C166.568 17.7604 166.099 17.6562 165.734 17.3438C164.641 16.5104 164.068 15.625 164.016 14.6875C163.964 13.6979 164.198 12.7865 164.719 11.9531C165.24 11.0677 165.891 10.3385 166.672 9.76562C167.453 9.14062 168.13 8.77604 168.703 8.67188C169.276 8.56771 169.745 8.69792 170.109 9.0625C170.526 9.375 170.839 9.81771 171.047 10.3906C171.255 10.9115 171.359 11.5104 171.359 12.1875C171.411 12.8646 171.359 13.4635 171.203 13.9844ZM160.422 30.625C160.682 30.3125 161.177 30.0521 161.906 29.8438C162.635 29.6354 163.391 29.4792 164.172 29.375C164.953 29.2188 165.656 29.1406 166.281 29.1406C166.958 29.0885 167.349 29.0885 167.453 29.1406C167.505 29.1927 167.375 29.7396 167.062 30.7812C166.75 31.8229 166.359 33.0469 165.891 34.4531C165.422 35.8594 164.927 37.3177 164.406 38.8281C163.885 40.2865 163.495 41.4844 163.234 42.4219C162.974 43.3594 162.661 44.4271 162.297 45.625C161.932 46.7708 161.594 47.9167 161.281 49.0625C161.021 50.1562 160.839 51.1979 160.734 52.1875C160.63 53.1771 160.708 53.9323 160.969 54.4531C161.229 55.0781 161.516 55.5208 161.828 55.7812C162.141 55.9896 162.479 56.0938 162.844 56.0938C163.885 56.0938 165.188 55.5208 166.75 54.375C168.365 53.2292 169.979 51.875 171.594 50.3125C173.26 48.6979 174.797 47.0833 176.203 45.4688C177.609 43.8021 178.651 42.474 179.328 41.4844C179.745 40.9635 180.161 40.625 180.578 40.4688C181.047 40.3125 181.411 40.3385 181.672 40.5469C181.984 40.7552 182.141 41.0938 182.141 41.5625C182.193 42.0312 182.036 42.5781 181.672 43.2031C180.839 44.6615 179.615 46.4062 178 48.4375C176.385 50.4167 174.667 52.3438 172.844 54.2188C171.021 56.0417 169.224 57.6042 167.453 58.9062C165.734 60.2083 164.328 60.8854 163.234 60.9375C162.349 60.9896 161.464 60.8333 160.578 60.4688C159.745 60.1562 158.964 59.7135 158.234 59.1406C157.557 58.5156 156.984 57.8125 156.516 57.0312C156.047 56.1979 155.786 55.3385 155.734 54.4531C155.578 53.151 155.578 51.3802 155.734 49.1406C155.891 46.849 156.177 44.5312 156.594 42.1875C157.01 39.7917 157.531 37.526 158.156 35.3906C158.833 33.2552 159.589 31.6667 160.422 30.625Z" fill="white"/>
<path d="M212.375 56.4062C212.375 55.3125 212.479 54.0625 212.688 52.6562C212.948 51.25 213.26 49.8177 213.625 48.3594C213.99 46.849 214.354 45.3906 214.719 43.9844C215.083 42.5781 215.396 41.3281 215.656 40.2344C215.969 38.8802 215.943 37.8385 215.578 37.1094C215.214 36.3802 214.589 36.0156 213.703 36.0156C213.286 36.0156 212.453 36.3802 211.203 37.1094C210.005 37.8385 208.677 39.1146 207.219 40.9375C205.812 42.7083 204.406 45.1302 203 48.2031C201.646 51.224 200.578 55.0781 199.797 59.7656C198.807 60.2865 197.87 60.625 196.984 60.7812C196.516 60.8854 196.099 60.9635 195.734 61.0156C194.693 61.0677 194.016 60.8854 193.703 60.4688C193.391 60.1042 193.443 59.1667 193.859 57.6562C194.068 56.9271 194.432 55.7552 194.953 54.1406C195.526 52.526 196.073 50.7812 196.594 48.9062C197.115 46.9792 197.557 45.0781 197.922 43.2031C198.339 41.276 198.547 39.6094 198.547 38.2031C198.547 37.2135 198.365 36.5365 198 36.1719C197.688 35.8073 197.219 35.625 196.594 35.625C196.125 35.625 195.344 35.8854 194.25 36.4062C193.156 36.9271 191.932 37.9427 190.578 39.4531C189.224 40.9635 187.87 43.0729 186.516 45.7812C185.214 48.4375 184.094 51.901 183.156 56.1719V56.0156C183.052 56.4323 182.948 56.849 182.844 57.2656C182.74 57.6302 182.661 58.0208 182.609 58.4375C182.557 58.8542 182.479 59.2448 182.375 59.6094L178.469 61.3281C178.208 61.4323 177.87 61.5104 177.453 61.5625C177.089 61.6146 176.724 61.5365 176.359 61.3281C176.047 61.1719 175.812 60.8073 175.656 60.2344C175.5 59.6615 175.552 58.8021 175.812 57.6562L180.734 37.2656C180.891 36.5885 181.021 35.9375 181.125 35.3125C181.229 34.7396 181.281 34.1927 181.281 33.6719C181.333 33.099 181.307 32.6302 181.203 32.2656C182.089 31.849 182.87 31.5365 183.547 31.3281C184.224 31.1198 184.771 30.9635 185.188 30.8594C185.708 30.7031 186.151 30.625 186.516 30.625C188.182 30.625 188.729 32.0573 188.156 34.9219C187.948 35.7552 187.635 36.9792 187.219 38.5938C188.208 37.3438 189.25 36.1719 190.344 35.0781C191.49 33.9323 192.635 32.9167 193.781 32.0312C194.927 31.1458 196.073 30.4427 197.219 29.9219C198.417 29.401 199.589 29.1406 200.734 29.1406C201.62 29.1406 202.349 29.401 202.922 29.9219C203.547 30.4427 204.016 31.1458 204.328 32.0312C204.693 32.8646 204.901 33.8802 204.953 35.0781C205.005 36.224 204.953 37.4219 204.797 38.6719C205.63 37.5781 206.542 36.4844 207.531 35.3906C208.573 34.2448 209.641 33.2292 210.734 32.3438C211.88 31.4583 213.052 30.7292 214.25 30.1562C215.448 29.5833 216.646 29.2969 217.844 29.2969C219.25 29.2969 220.318 29.7135 221.047 30.5469C221.828 31.3802 222.349 32.4479 222.609 33.75C222.922 35.0521 223 36.4583 222.844 37.9688C222.74 39.4792 222.531 40.9375 222.219 42.3438L219.562 52.8906C218.99 55.4948 219.536 56.7969 221.203 56.7969C222.505 56.7969 223.938 56.1719 225.5 54.9219C227.062 53.6719 228.573 52.1875 230.031 50.4688C231.542 48.75 232.948 46.9792 234.25 45.1562C235.552 43.3333 236.646 41.875 237.531 40.7812C237.844 40.4167 238.156 40.2083 238.469 40.1562C238.833 40.1042 239.12 40.1823 239.328 40.3906C239.589 40.5469 239.719 40.8333 239.719 41.25C239.771 41.6667 239.641 42.1875 239.328 42.8125C238.286 44.6354 237.01 46.6667 235.5 48.9062C233.99 51.0938 232.323 53.151 230.5 55.0781C228.729 57.0052 226.828 58.6198 224.797 59.9219C222.766 61.224 220.656 61.875 218.469 61.875C217.74 61.875 217.01 61.7969 216.281 61.6406C215.604 61.4844 214.953 61.1979 214.328 60.7812C213.755 60.3646 213.286 59.8177 212.922 59.1406C212.557 58.4115 212.375 57.5 212.375 56.4062Z" fill="white"/>
<path d="M273.469 44.4531C272.74 45.4948 271.802 46.7969 270.656 48.3594C269.51 49.8698 268.312 51.4062 267.062 52.9688C265.865 54.4792 264.667 55.8854 263.469 57.1875C262.323 58.4375 261.359 59.3229 260.578 59.8438C260.057 60.1562 259.458 60.4167 258.781 60.625C258.104 60.8333 257.401 60.9635 256.672 61.0156C255.995 61.0677 255.344 61.0156 254.719 60.8594C254.094 60.7552 253.547 60.5469 253.078 60.2344C252.609 59.8698 252.219 59.349 251.906 58.6719C251.646 58.099 251.385 57.3438 251.125 56.4062C250.917 55.4688 250.839 54.2969 250.891 52.8906C249.641 54.974 248.26 56.5885 246.75 57.7344C245.24 58.8281 243.807 59.6354 242.453 60.1562C240.891 60.7292 239.328 61.0677 237.766 61.1719C237.036 61.1719 236.255 60.9115 235.422 60.3906C234.589 59.9219 233.885 59.1667 233.312 58.125C232.74 57.0312 232.375 55.651 232.219 53.9844C232.062 52.2656 232.271 50.2344 232.844 47.8906C233.573 44.7135 234.719 41.8229 236.281 39.2188C237.896 36.6146 239.641 34.401 241.516 32.5781C243.391 30.7031 245.24 29.2969 247.062 28.3594C248.885 27.4219 250.396 27.0052 251.594 27.1094C253 27.3698 254.146 27.7865 255.031 28.3594C255.76 28.8802 256.229 29.6615 256.438 30.7031C256.698 31.6927 256.281 33.0208 255.188 34.6875C255.917 34.5312 256.516 34.4271 256.984 34.375C257.505 34.3229 257.896 34.2969 258.156 34.2969C258.469 34.2969 258.677 34.3229 258.781 34.375C258.833 34.4792 258.859 34.7135 258.859 35.0781C258.859 35.3906 258.781 35.9896 258.625 36.875C258.469 37.7604 258.234 38.9583 257.922 40.4688C257.609 41.9792 257.193 43.9323 256.672 46.3281C256.568 46.7969 256.464 47.2396 256.359 47.6562C256.307 48.0208 256.229 48.4115 256.125 48.8281C256.073 49.1927 255.995 49.6354 255.891 50.1562C255.786 50.6771 255.656 51.3281 255.5 52.1094C255.448 52.5781 255.422 53.099 255.422 53.6719C255.474 54.1927 255.578 54.6875 255.734 55.1562C255.891 55.625 256.125 56.0156 256.438 56.3281C256.802 56.5885 257.297 56.7188 257.922 56.7188C258.443 56.7188 259.12 56.4062 259.953 55.7812C260.786 55.1042 261.672 54.2708 262.609 53.2812C263.547 52.2396 264.51 51.1198 265.5 49.9219C266.542 48.6719 267.505 47.474 268.391 46.3281C269.276 45.1823 270.057 44.1667 270.734 43.2812C271.464 42.3958 271.984 41.7448 272.297 41.3281C272.714 40.8594 273.13 40.599 273.547 40.5469C273.964 40.4427 274.276 40.5469 274.484 40.8594C274.693 41.1719 274.719 41.6406 274.562 42.2656C274.458 42.8906 274.094 43.6198 273.469 44.4531ZM250.578 47.8906C250.839 46.849 251.151 45.625 251.516 44.2188C251.88 42.8125 252.193 41.4583 252.453 40.1562C252.714 38.8542 252.896 37.7865 253 36.9531C253.156 36.0677 253.13 35.651 252.922 35.7031C252.661 35.7552 252.375 35.8333 252.062 35.9375C251.802 36.0417 251.464 36.1198 251.047 36.1719C250.63 36.224 250.214 36.3021 249.797 36.4062C250.214 35.5729 250.448 34.8958 250.5 34.375C250.604 33.8021 250.63 33.3594 250.578 33.0469C250.526 32.6823 250.422 32.3958 250.266 32.1875C249.693 31.7188 248.677 32.1094 247.219 33.3594C245.812 34.5573 244.172 36.7969 242.297 40.0781C241.516 41.4323 240.891 42.8906 240.422 44.4531C239.953 45.9635 239.615 47.3958 239.406 48.75C239.25 50.1042 239.224 51.3021 239.328 52.3438C239.432 53.3333 239.641 53.9844 239.953 54.2969C240.526 54.8698 241.177 55.1562 241.906 55.1562C242.635 55.1042 243.365 54.8958 244.094 54.5312C244.875 54.1146 245.63 53.5938 246.359 52.9688C247.141 52.3438 247.818 51.6927 248.391 51.0156C249.016 50.3385 249.51 49.7135 249.875 49.1406C250.292 48.5677 250.526 48.151 250.578 47.8906Z" fill="white"/>
<path d="M290.969 70.0781C290.5 69.7656 290.266 69.4271 290.266 69.0625C290.214 68.6979 290.292 68.3333 290.5 67.9688C290.708 67.5521 291.021 67.1354 291.438 66.7188C291.854 66.3542 292.349 65.4167 292.922 63.9062C293.495 62.4479 294.094 60.6771 294.719 58.5938C295.396 56.4583 296.047 54.1406 296.672 51.6406C297.349 49.1406 297.974 46.6927 298.547 44.2969C299.12 41.901 299.615 39.6875 300.031 37.6562C300.448 35.625 300.76 34.0104 300.969 32.8125C301.229 31.3542 301.516 29.7656 301.828 28.0469C302.089 26.5365 302.375 24.7917 302.688 22.8125C303 20.7812 303.286 18.5417 303.547 16.0938L309.797 13.2812C310.682 12.8646 311.307 12.9688 311.672 13.5938C312.036 14.1667 312.036 15.3906 311.672 17.2656C311.516 18.2031 311.229 19.7396 310.812 21.875C310.396 23.9583 309.901 26.276 309.328 28.8281C308.807 31.3281 308.234 33.9062 307.609 36.5625C307.036 39.1667 306.464 41.4844 305.891 43.5156C305.37 45.4427 304.771 47.6562 304.094 50.1562C302.896 54.4271 301.229 60.2604 299.094 67.6562C299.823 68.9062 301.177 69.5312 303.156 69.5312C305.344 69.5312 307.87 68.6979 310.734 67.0312C313.651 65.3646 316.464 62.8646 319.172 59.5312C321.88 56.1979 324.25 52.0312 326.281 47.0312C328.365 41.9792 329.667 36.0938 330.188 29.375C330.448 25.7292 330.266 22.526 329.641 19.7656C329.016 17.0052 328.052 14.6875 326.75 12.8125C325.5 10.9375 323.938 9.53125 322.062 8.59375C320.24 7.65625 318.208 7.1875 315.969 7.1875C310.708 7.1875 305.266 9.375 299.641 13.75L299.25 7.26562C300.604 5.75521 302.141 4.60938 303.859 3.82812C305.63 2.99479 307.271 2.36979 308.781 1.95312C310.552 1.48438 312.349 1.22396 314.172 1.17188C317.505 1.17188 320.708 1.82292 323.781 3.125C326.906 4.375 329.589 6.30208 331.828 8.90625C334.12 11.5104 335.865 14.7917 337.062 18.75C338.26 22.6562 338.677 27.2396 338.312 32.5C338.104 35.5208 337.479 38.6719 336.438 41.9531C335.448 45.1823 334.12 48.3594 332.453 51.4844C330.839 54.6094 328.911 57.5781 326.672 60.3906C324.432 63.2031 321.984 65.651 319.328 67.7344C316.672 69.8698 313.833 71.5365 310.812 72.7344C307.792 73.9844 304.667 74.6094 301.438 74.6094C300.448 74.5573 299.38 74.375 298.234 74.0625C297.245 73.8021 296.125 73.3594 294.875 72.7344C293.625 72.1094 292.323 71.224 290.969 70.0781Z" fill="white"/>
<path d="M376.672 43.75C375.109 46.0417 373.339 48.2812 371.359 50.4688C369.38 52.6042 367.271 54.5312 365.031 56.25C362.844 57.9167 360.578 59.2708 358.234 60.3125C355.943 61.3542 353.703 61.875 351.516 61.875C350.37 61.875 349.12 61.5885 347.766 61.0156C346.464 60.4948 345.266 59.6615 344.172 58.5156C343.078 57.3698 342.193 55.8854 341.516 54.0625C340.891 52.2396 340.708 50.026 340.969 47.4219C341.177 45.2865 341.828 43.0469 342.922 40.7031C344.068 38.3073 345.448 36.1198 347.062 34.1406C348.729 32.1615 350.578 30.5208 352.609 29.2188C354.693 27.9167 356.776 27.2656 358.859 27.2656C360.839 27.2656 362.271 27.7604 363.156 28.75C364.042 29.7396 364.432 30.9635 364.328 32.4219C364.172 34.0365 363.703 35.5208 362.922 36.875C362.193 38.2292 361.307 39.4531 360.266 40.5469C359.224 41.6406 358.104 42.6302 356.906 43.5156C355.76 44.401 354.667 45.2083 353.625 45.9375C352.479 46.7188 351.385 47.474 350.344 48.2031C349.302 48.8802 348.391 49.5052 347.609 50.0781C347.661 51.3802 347.896 52.474 348.312 53.3594C348.729 54.2448 349.25 54.974 349.875 55.5469C350.5 56.0677 351.203 56.4583 351.984 56.7188C352.818 56.9271 353.651 57.0312 354.484 57.0312C356.255 57.0312 358.104 56.4844 360.031 55.3906C361.958 54.2448 363.833 52.8906 365.656 51.3281C367.531 49.7135 369.25 48.0469 370.812 46.3281C372.427 44.6094 373.755 43.125 374.797 41.875C375.161 41.4583 375.526 41.224 375.891 41.1719C376.307 41.0677 376.62 41.1198 376.828 41.3281C377.089 41.4844 377.219 41.7969 377.219 42.2656C377.219 42.6823 377.036 43.1771 376.672 43.75ZM356.672 31.7188C356.047 31.7188 355.292 32.0312 354.406 32.6562C353.573 33.2812 352.74 34.1927 351.906 35.3906C351.073 36.5365 350.292 37.9688 349.562 39.6875C348.833 41.3542 348.286 43.2812 347.922 45.4688C348.547 45 349.224 44.5312 349.953 44.0625C350.682 43.5417 351.411 42.9948 352.141 42.4219C354.38 40.7031 355.943 39.1927 356.828 37.8906C357.714 36.5885 358.208 35.4688 358.312 34.5312C358.417 33.5417 358.312 32.8385 358 32.4219C357.688 31.9531 357.245 31.7188 356.672 31.7188Z" fill="white"/>
<path d="M394.25 61.9531C393.052 61.9531 392.01 61.7188 391.125 61.25C390.292 60.8333 389.615 60.2604 389.094 59.5312C388.573 58.8021 388.234 57.9688 388.078 57.0312C387.922 56.0417 387.974 55 388.234 53.9062C388.391 53.1771 388.651 52.2135 389.016 51.0156C389.38 49.7656 389.745 48.4375 390.109 47.0312C390.526 45.5729 390.891 44.1406 391.203 42.7344C391.568 41.276 391.802 39.974 391.906 38.8281C392.01 37.6302 391.958 36.6667 391.75 35.9375C391.542 35.1562 391.099 34.7656 390.422 34.7656C389.589 34.7656 388.729 35.0521 387.844 35.625C386.958 36.1458 386.047 36.875 385.109 37.8125C384.224 38.75 383.312 39.8438 382.375 41.0938C381.49 42.2917 380.604 43.5417 379.719 44.8438C379.25 46.6146 378.859 48.1771 378.547 49.5312C378.234 50.8333 377.948 52.0312 377.688 53.125C377.479 54.1667 377.271 55.1042 377.062 55.9375C376.854 56.7188 376.672 57.474 376.516 58.2031C376.359 58.724 375.891 59.2448 375.109 59.7656C374.328 60.2344 373.495 60.625 372.609 60.9375C371.724 61.25 370.969 61.4062 370.344 61.4062C369.667 61.4062 369.38 61.1719 369.484 60.7031C369.536 60.3906 369.719 59.6875 370.031 58.5938C370.292 57.5 370.63 56.224 371.047 54.7656C371.411 53.2552 371.802 51.6667 372.219 50C372.635 48.3333 373.026 46.7448 373.391 45.2344C373.651 44.0365 373.938 42.7083 374.25 41.25C374.51 40 374.823 38.5417 375.188 36.875C375.604 35.2083 376.073 33.3854 376.594 31.4062C376.958 31.0938 377.323 30.8594 377.688 30.7031C378.104 30.4948 378.521 30.3385 378.938 30.2344C379.354 30.0781 379.797 29.974 380.266 29.9219C380.682 29.9219 381.099 29.9479 381.516 30C381.88 30.0521 382.245 30.1562 382.609 30.3125C383.026 30.4167 383.391 30.599 383.703 30.8594C383.547 31.224 383.365 31.7448 383.156 32.4219C382.948 33.0469 382.74 33.724 382.531 34.4531C382.323 35.2865 382.062 36.1458 381.75 37.0312C382.427 36.0938 383.182 35.1562 384.016 34.2188C384.901 33.2292 385.839 32.3438 386.828 31.5625C387.87 30.7812 388.964 30.1562 390.109 29.6875C391.255 29.1667 392.427 28.9062 393.625 28.9062C394.615 28.9062 395.5 29.1927 396.281 29.7656C397.062 30.3385 397.661 31.1458 398.078 32.1875C398.547 33.1771 398.807 34.375 398.859 35.7812C398.964 37.1875 398.781 38.724 398.312 40.3906L397.453 43.8281C397.193 44.9219 396.854 46.224 396.438 47.7344C396.073 49.1927 395.604 50.8073 395.031 52.5781C394.719 53.724 394.589 54.7135 394.641 55.5469C394.745 56.3802 395.266 56.7969 396.203 56.7969C397.141 56.7969 398.312 56.224 399.719 55.0781C401.177 53.9323 402.635 52.5521 404.094 50.9375C405.552 49.3229 406.932 47.6823 408.234 46.0156C409.536 44.2969 410.526 42.9167 411.203 41.875C411.672 41.1979 412.115 40.7552 412.531 40.5469C412.948 40.3385 413.26 40.3125 413.469 40.4688C413.729 40.625 413.859 40.9896 413.859 41.5625C413.859 42.0833 413.651 42.7604 413.234 43.5938C412.87 44.3229 412.297 45.2865 411.516 46.4844C410.786 47.6823 409.901 48.9583 408.859 50.3125C407.818 51.6667 406.698 53.0469 405.5 54.4531C404.302 55.8073 403.052 57.0573 401.75 58.2031C400.448 59.2969 399.146 60.1823 397.844 60.8594C396.594 61.5885 395.396 61.9531 394.25 61.9531Z" fill="white"/>
<path d="M436.828 40.2344C437.036 39.9219 437.297 39.7396 437.609 39.6875C437.974 39.5833 438.26 39.6094 438.469 39.7656C438.677 39.9219 438.781 40.1823 438.781 40.5469C438.833 40.9115 438.703 41.4062 438.391 42.0312C437.349 44.0104 435.969 46.1458 434.25 48.4375C432.583 50.7292 430.812 52.8906 428.938 54.9219C427.062 56.901 425.24 58.5417 423.469 59.8438C421.698 61.1458 420.214 61.7969 419.016 61.7969C417.297 61.7969 415.865 61.4583 414.719 60.7812C413.573 60.1042 412.661 59.2708 411.984 58.2812C411.359 57.2917 410.917 56.224 410.656 55.0781C410.396 53.8802 410.318 52.7865 410.422 51.7969C410.474 50.9635 410.656 49.4792 410.969 47.3438C411.281 45.1562 411.698 42.6562 412.219 39.8438C412.74 36.9792 413.312 33.9323 413.938 30.7031C414.615 27.4219 415.318 24.2708 416.047 21.25C415.161 21.3542 414.276 21.4583 413.391 21.5625C412.505 21.6667 411.698 21.7188 410.969 21.7188C409.302 21.7188 407.74 21.5365 406.281 21.1719C404.771 20.7552 403.651 20.3646 402.922 20C402.505 19.7917 402.323 19.5052 402.375 19.1406C402.427 18.724 402.583 18.3333 402.844 17.9688C403.104 17.5521 403.443 17.2135 403.859 16.9531C404.224 16.6406 404.562 16.4844 404.875 16.4844C405.865 16.5885 406.932 16.6927 408.078 16.7969C409.224 16.849 410.474 16.849 411.828 16.7969C412.818 16.7448 413.755 16.6667 414.641 16.5625C415.578 16.4583 416.49 16.3281 417.375 16.1719C418.052 13.6719 418.703 11.5104 419.328 9.6875C420.005 7.8125 420.604 6.51042 421.125 5.78125C421.281 5.52083 421.62 5.3125 422.141 5.15625C422.714 4.94792 423.312 4.81771 423.938 4.76562C424.562 4.66146 425.161 4.66146 425.734 4.76562C426.307 4.81771 426.724 5 426.984 5.3125C427.245 5.72917 427.349 6.79688 427.297 8.51562C427.245 10.2344 426.958 12.4219 426.438 15.0781C428.625 15.0781 430.552 15.2083 432.219 15.4688C433.938 15.6771 435.396 15.9375 436.594 16.25C437.792 16.5104 438.755 16.7969 439.484 17.1094C440.214 17.3698 440.76 17.5521 441.125 17.6562C441.49 17.7604 441.672 18.0208 441.672 18.4375C441.724 18.8542 441.646 19.2969 441.438 19.7656C441.281 20.1823 440.995 20.5469 440.578 20.8594C440.161 21.1719 439.693 21.276 439.172 21.1719C438.651 21.1198 438.052 21.0156 437.375 20.8594C436.75 20.7031 435.969 20.5729 435.031 20.4688C434.146 20.3646 433.078 20.2604 431.828 20.1562C430.578 20.0521 429.12 20 427.453 20C427.141 20 426.776 20.026 426.359 20.0781C425.995 20.0781 425.604 20.0781 425.188 20.0781C424.979 20.9115 424.771 21.7448 424.562 22.5781C424.406 23.3594 424.172 24.1927 423.859 25.0781C423.182 27.1615 422.401 29.4271 421.516 31.875C420.734 34.0104 419.797 36.4583 418.703 39.2188C417.609 41.9792 416.385 44.9219 415.031 48.0469C414.719 50.2865 414.745 52.0052 415.109 53.2031C415.526 54.349 416.021 55.1823 416.594 55.7031C417.271 56.276 418.104 56.5885 419.094 56.6406C419.875 56.7448 420.812 56.4844 421.906 55.8594C423.052 55.1823 424.224 54.2969 425.422 53.2031C426.62 52.1094 427.818 50.9115 429.016 49.6094C430.266 48.3073 431.411 47.0312 432.453 45.7812C433.495 44.5312 434.406 43.4115 435.188 42.4219C435.969 41.3802 436.516 40.651 436.828 40.2344Z" fill="white"/>
<path d="M472.219 44.4531C471.49 45.4948 470.552 46.7969 469.406 48.3594C468.26 49.8698 467.062 51.4062 465.812 52.9688C464.615 54.4792 463.417 55.8854 462.219 57.1875C461.073 58.4375 460.109 59.3229 459.328 59.8438C458.807 60.1562 458.208 60.4167 457.531 60.625C456.854 60.8333 456.151 60.9635 455.422 61.0156C454.745 61.0677 454.094 61.0156 453.469 60.8594C452.844 60.7552 452.297 60.5469 451.828 60.2344C451.359 59.8698 450.969 59.349 450.656 58.6719C450.396 58.099 450.135 57.3438 449.875 56.4062C449.667 55.4688 449.589 54.2969 449.641 52.8906C448.391 54.974 447.01 56.5885 445.5 57.7344C443.99 58.8281 442.557 59.6354 441.203 60.1562C439.641 60.7292 438.078 61.0677 436.516 61.1719C435.786 61.1719 435.005 60.9115 434.172 60.3906C433.339 59.9219 432.635 59.1667 432.062 58.125C431.49 57.0312 431.125 55.651 430.969 53.9844C430.812 52.2656 431.021 50.2344 431.594 47.8906C432.323 44.7135 433.469 41.8229 435.031 39.2188C436.646 36.6146 438.391 34.401 440.266 32.5781C442.141 30.7031 443.99 29.2969 445.812 28.3594C447.635 27.4219 449.146 27.0052 450.344 27.1094C451.75 27.3698 452.896 27.7865 453.781 28.3594C454.51 28.8802 454.979 29.6615 455.188 30.7031C455.448 31.6927 455.031 33.0208 453.938 34.6875C454.667 34.5312 455.266 34.4271 455.734 34.375C456.255 34.3229 456.646 34.2969 456.906 34.2969C457.219 34.2969 457.427 34.3229 457.531 34.375C457.583 34.4792 457.609 34.7135 457.609 35.0781C457.609 35.3906 457.531 35.9896 457.375 36.875C457.219 37.7604 456.984 38.9583 456.672 40.4688C456.359 41.9792 455.943 43.9323 455.422 46.3281C455.318 46.7969 455.214 47.2396 455.109 47.6562C455.057 48.0208 454.979 48.4115 454.875 48.8281C454.823 49.1927 454.745 49.6354 454.641 50.1562C454.536 50.6771 454.406 51.3281 454.25 52.1094C454.198 52.5781 454.172 53.099 454.172 53.6719C454.224 54.1927 454.328 54.6875 454.484 55.1562C454.641 55.625 454.875 56.0156 455.188 56.3281C455.552 56.5885 456.047 56.7188 456.672 56.7188C457.193 56.7188 457.87 56.4062 458.703 55.7812C459.536 55.1042 460.422 54.2708 461.359 53.2812C462.297 52.2396 463.26 51.1198 464.25 49.9219C465.292 48.6719 466.255 47.474 467.141 46.3281C468.026 45.1823 468.807 44.1667 469.484 43.2812C470.214 42.3958 470.734 41.7448 471.047 41.3281C471.464 40.8594 471.88 40.599 472.297 40.5469C472.714 40.4427 473.026 40.5469 473.234 40.8594C473.443 41.1719 473.469 41.6406 473.312 42.2656C473.208 42.8906 472.844 43.6198 472.219 44.4531ZM449.328 47.8906C449.589 46.849 449.901 45.625 450.266 44.2188C450.63 42.8125 450.943 41.4583 451.203 40.1562C451.464 38.8542 451.646 37.7865 451.75 36.9531C451.906 36.0677 451.88 35.651 451.672 35.7031C451.411 35.7552 451.125 35.8333 450.812 35.9375C450.552 36.0417 450.214 36.1198 449.797 36.1719C449.38 36.224 448.964 36.3021 448.547 36.4062C448.964 35.5729 449.198 34.8958 449.25 34.375C449.354 33.8021 449.38 33.3594 449.328 33.0469C449.276 32.6823 449.172 32.3958 449.016 32.1875C448.443 31.7188 447.427 32.1094 445.969 33.3594C444.562 34.5573 442.922 36.7969 441.047 40.0781C440.266 41.4323 439.641 42.8906 439.172 44.4531C438.703 45.9635 438.365 47.3958 438.156 48.75C438 50.1042 437.974 51.3021 438.078 52.3438C438.182 53.3333 438.391 53.9844 438.703 54.2969C439.276 54.8698 439.927 55.1562 440.656 55.1562C441.385 55.1042 442.115 54.8958 442.844 54.5312C443.625 54.1146 444.38 53.5938 445.109 52.9688C445.891 52.3438 446.568 51.6927 447.141 51.0156C447.766 50.3385 448.26 49.7135 448.625 49.1406C449.042 48.5677 449.276 48.151 449.328 47.8906Z" fill="white"/>
<path d="M465.812 58.75C468.104 49.1146 469.927 41.3802 471.281 35.5469C472.688 29.7135 473.755 25.2604 474.484 22.1875C475.318 18.5417 475.891 16.0156 476.203 14.6094C476.359 13.6198 476.49 12.6562 476.594 11.7188C476.698 10.8854 476.75 10.026 476.75 9.14062C476.75 8.25521 476.672 7.44792 476.516 6.71875C476.932 6.45833 477.375 6.25 477.844 6.09375C478.365 5.9375 478.859 5.80729 479.328 5.70312C479.901 5.54688 480.474 5.41667 481.047 5.3125C481.62 5.20833 482.141 5.15625 482.609 5.15625C483.026 5.15625 483.417 5.20833 483.781 5.3125C484.146 5.36458 484.38 5.52083 484.484 5.78125C484.797 6.04167 484.927 6.5625 484.875 7.34375C484.875 8.125 484.823 8.93229 484.719 9.76562C484.51 10.7552 484.276 11.8229 484.016 12.9688C483.391 15.2083 482.531 18.4375 481.438 22.6562C480.5 26.25 479.224 31.1458 477.609 37.3438C476.047 43.5417 474.068 51.3542 471.672 60.7812C471.411 61.0417 471.099 61.224 470.734 61.3281C470.37 61.4323 470.031 61.4844 469.719 61.4844C469.354 61.4844 468.964 61.4583 468.547 61.4062C468.182 61.3021 467.818 61.1458 467.453 60.9375C467.141 60.7292 466.828 60.4427 466.516 60.0781C466.203 59.7656 465.969 59.3229 465.812 58.75Z" fill="white"/>
<path d="M523.703 74.5312C521.099 74.5312 518.729 73.9062 516.594 72.6562C514.51 71.4062 512.714 69.6875 511.203 67.5C509.745 65.3125 508.625 62.7604 507.844 59.8438C507.115 56.875 506.802 53.724 506.906 50.3906C507.01 47.2656 507.401 43.8802 508.078 40.2344C508.807 36.5885 509.823 32.9427 511.125 29.2969C512.427 25.599 513.99 22.0573 515.812 18.6719C517.688 15.2344 519.823 12.2135 522.219 9.60938C524.615 7.00521 527.271 4.92188 530.188 3.35938C533.104 1.74479 536.307 0.9375 539.797 0.9375C541.932 0.9375 543.729 1.38021 545.188 2.26562C546.698 3.09896 547.896 4.21875 548.781 5.625C549.719 7.03125 550.37 8.61979 550.734 10.3906C551.099 12.1615 551.255 13.9583 551.203 15.7812C551.099 17.5 550.839 19.1667 550.422 20.7812C550.057 22.3958 549.51 23.8542 548.781 25.1562C548.104 26.4062 547.245 27.4219 546.203 28.2031C545.214 28.9323 544.068 29.2969 542.766 29.2969C542.141 29.2448 541.542 29.0365 540.969 28.6719C540.448 28.3594 539.901 27.8906 539.328 27.2656C538.807 26.6406 538.312 25.7292 537.844 24.5312C539.25 23.9583 540.344 22.9688 541.125 21.5625C541.958 20.1042 542.583 18.5938 543 17.0312C543.469 15.2604 543.781 13.2812 543.938 11.0938C544.042 8.95833 543.599 7.39583 542.609 6.40625C541.62 5.41667 540.5 4.92188 539.25 4.92188C536.802 4.92188 534.224 6.19792 531.516 8.75C528.807 11.3021 526.281 14.7656 523.938 19.1406C521.646 23.4635 519.693 28.5156 518.078 34.2969C516.516 40.0781 515.604 46.1979 515.344 52.6562C515.24 55.5729 515.422 58.0469 515.891 60.0781C516.411 62.1094 517.115 63.776 518 65.0781C518.938 66.3802 519.979 67.3177 521.125 67.8906C522.271 68.4635 523.417 68.75 524.562 68.75C526.385 68.75 528.104 68.3594 529.719 67.5781C531.333 66.7969 532.792 65.8333 534.094 64.6875C535.448 63.5417 536.594 62.3438 537.531 61.0938C538.521 59.8958 539.276 58.8281 539.797 57.8906C540.161 57.2135 540.552 56.7969 540.969 56.6406C541.385 56.4844 541.75 56.5365 542.062 56.7969C542.375 57.0052 542.583 57.3698 542.688 57.8906C542.792 58.3594 542.688 58.9323 542.375 59.6094C541.49 61.3802 540.396 63.151 539.094 64.9219C537.844 66.6927 536.411 68.2812 534.797 69.6875C533.234 71.1458 531.516 72.3177 529.641 73.2031C527.766 74.0885 525.786 74.5312 523.703 74.5312Z" fill="white"/>
<path d="M549.641 58.75C551.932 49.1146 553.755 41.3802 555.109 35.5469C556.516 29.7135 557.583 25.2604 558.312 22.1875C559.146 18.5417 559.719 16.0156 560.031 14.6094C560.188 13.6198 560.318 12.6562 560.422 11.7188C560.526 10.8854 560.578 10.026 560.578 9.14062C560.578 8.25521 560.5 7.44792 560.344 6.71875C560.76 6.45833 561.203 6.25 561.672 6.09375C562.193 5.9375 562.688 5.80729 563.156 5.70312C563.729 5.54688 564.302 5.41667 564.875 5.3125C565.448 5.20833 565.969 5.15625 566.438 5.15625C566.854 5.15625 567.245 5.20833 567.609 5.3125C567.974 5.36458 568.208 5.52083 568.312 5.78125C568.625 6.04167 568.755 6.5625 568.703 7.34375C568.703 8.125 568.651 8.93229 568.547 9.76562C568.339 10.7552 568.104 11.8229 567.844 12.9688C567.219 15.2083 566.359 18.4375 565.266 22.6562C564.328 26.25 563.052 31.1458 561.438 37.3438C559.875 43.5417 557.896 51.3542 555.5 60.7812C555.24 61.0417 554.927 61.224 554.562 61.3281C554.198 61.4323 553.859 61.4844 553.547 61.4844C553.182 61.4844 552.792 61.4583 552.375 61.4062C552.01 61.3021 551.646 61.1458 551.281 60.9375C550.969 60.7292 550.656 60.4427 550.344 60.0781C550.031 59.7656 549.797 59.3229 549.641 58.75Z" fill="white"/>
<path d="M585.5 13.9844C585.344 14.5573 585.031 15.1302 584.562 15.7031C584.146 16.224 583.651 16.6667 583.078 17.0312C582.557 17.3438 582.01 17.5521 581.438 17.6562C580.865 17.7604 580.396 17.6562 580.031 17.3438C578.938 16.5104 578.365 15.625 578.312 14.6875C578.26 13.6979 578.495 12.7865 579.016 11.9531C579.536 11.0677 580.188 10.3385 580.969 9.76562C581.75 9.14062 582.427 8.77604 583 8.67188C583.573 8.56771 584.042 8.69792 584.406 9.0625C584.823 9.375 585.135 9.81771 585.344 10.3906C585.552 10.9115 585.656 11.5104 585.656 12.1875C585.708 12.8646 585.656 13.4635 585.5 13.9844ZM574.719 30.625C574.979 30.3125 575.474 30.0521 576.203 29.8438C576.932 29.6354 577.688 29.4792 578.469 29.375C579.25 29.2188 579.953 29.1406 580.578 29.1406C581.255 29.0885 581.646 29.0885 581.75 29.1406C581.802 29.1927 581.672 29.7396 581.359 30.7812C581.047 31.8229 580.656 33.0469 580.188 34.4531C579.719 35.8594 579.224 37.3177 578.703 38.8281C578.182 40.2865 577.792 41.4844 577.531 42.4219C577.271 43.3594 576.958 44.4271 576.594 45.625C576.229 46.7708 575.891 47.9167 575.578 49.0625C575.318 50.1562 575.135 51.1979 575.031 52.1875C574.927 53.1771 575.005 53.9323 575.266 54.4531C575.526 55.0781 575.812 55.5208 576.125 55.7812C576.438 55.9896 576.776 56.0938 577.141 56.0938C578.182 56.0938 579.484 55.5208 581.047 54.375C582.661 53.2292 584.276 51.875 585.891 50.3125C587.557 48.6979 589.094 47.0833 590.5 45.4688C591.906 43.8021 592.948 42.474 593.625 41.4844C594.042 40.9635 594.458 40.625 594.875 40.4688C595.344 40.3125 595.708 40.3385 595.969 40.5469C596.281 40.7552 596.438 41.0938 596.438 41.5625C596.49 42.0312 596.333 42.5781 595.969 43.2031C595.135 44.6615 593.911 46.4062 592.297 48.4375C590.682 50.4167 588.964 52.3438 587.141 54.2188C585.318 56.0417 583.521 57.6042 581.75 58.9062C580.031 60.2083 578.625 60.8854 577.531 60.9375C576.646 60.9896 575.76 60.8333 574.875 60.4688C574.042 60.1562 573.26 59.7135 572.531 59.1406C571.854 58.5156 571.281 57.8125 570.812 57.0312C570.344 56.1979 570.083 55.3385 570.031 54.4531C569.875 53.151 569.875 51.3802 570.031 49.1406C570.188 46.849 570.474 44.5312 570.891 42.1875C571.307 39.7917 571.828 37.526 572.453 35.3906C573.13 33.2552 573.885 31.6667 574.719 30.625Z" fill="white"/>
<path d="M613.469 61.9531C612.271 61.9531 611.229 61.7188 610.344 61.25C609.51 60.8333 608.833 60.2604 608.312 59.5312C607.792 58.8021 607.453 57.9688 607.297 57.0312C607.141 56.0417 607.193 55 607.453 53.9062C607.609 53.1771 607.87 52.2135 608.234 51.0156C608.599 49.7656 608.964 48.4375 609.328 47.0312C609.745 45.5729 610.109 44.1406 610.422 42.7344C610.786 41.276 611.021 39.974 611.125 38.8281C611.229 37.6302 611.177 36.6667 610.969 35.9375C610.76 35.1562 610.318 34.7656 609.641 34.7656C608.807 34.7656 607.948 35.0521 607.062 35.625C606.177 36.1458 605.266 36.875 604.328 37.8125C603.443 38.75 602.531 39.8438 601.594 41.0938C600.708 42.2917 599.823 43.5417 598.938 44.8438C598.469 46.6146 598.078 48.1771 597.766 49.5312C597.453 50.8333 597.167 52.0312 596.906 53.125C596.698 54.1667 596.49 55.1042 596.281 55.9375C596.073 56.7188 595.891 57.474 595.734 58.2031C595.578 58.724 595.109 59.2448 594.328 59.7656C593.547 60.2344 592.714 60.625 591.828 60.9375C590.943 61.25 590.188 61.4062 589.562 61.4062C588.885 61.4062 588.599 61.1719 588.703 60.7031C588.755 60.3906 588.938 59.6875 589.25 58.5938C589.51 57.5 589.849 56.224 590.266 54.7656C590.63 53.2552 591.021 51.6667 591.438 50C591.854 48.3333 592.245 46.7448 592.609 45.2344C592.87 44.0365 593.156 42.7083 593.469 41.25C593.729 40 594.042 38.5417 594.406 36.875C594.823 35.2083 595.292 33.3854 595.812 31.4062C596.177 31.0938 596.542 30.8594 596.906 30.7031C597.323 30.4948 597.74 30.3385 598.156 30.2344C598.573 30.0781 599.016 29.974 599.484 29.9219C599.901 29.9219 600.318 29.9479 600.734 30C601.099 30.0521 601.464 30.1562 601.828 30.3125C602.245 30.4167 602.609 30.599 602.922 30.8594C602.766 31.224 602.583 31.7448 602.375 32.4219C602.167 33.0469 601.958 33.724 601.75 34.4531C601.542 35.2865 601.281 36.1458 600.969 37.0312C601.646 36.0938 602.401 35.1562 603.234 34.2188C604.12 33.2292 605.057 32.3438 606.047 31.5625C607.089 30.7812 608.182 30.1562 609.328 29.6875C610.474 29.1667 611.646 28.9062 612.844 28.9062C613.833 28.9062 614.719 29.1927 615.5 29.7656C616.281 30.3385 616.88 31.1458 617.297 32.1875C617.766 33.1771 618.026 34.375 618.078 35.7812C618.182 37.1875 618 38.724 617.531 40.3906L616.672 43.8281C616.411 44.9219 616.073 46.224 615.656 47.7344C615.292 49.1927 614.823 50.8073 614.25 52.5781C613.938 53.724 613.807 54.7135 613.859 55.5469C613.964 56.3802 614.484 56.7969 615.422 56.7969C616.359 56.7969 617.531 56.224 618.938 55.0781C620.396 53.9323 621.854 52.5521 623.312 50.9375C624.771 49.3229 626.151 47.6823 627.453 46.0156C628.755 44.2969 629.745 42.9167 630.422 41.875C630.891 41.1979 631.333 40.7552 631.75 40.5469C632.167 40.3385 632.479 40.3125 632.688 40.4688C632.948 40.625 633.078 40.9896 633.078 41.5625C633.078 42.0833 632.87 42.7604 632.453 43.5938C632.089 44.3229 631.516 45.2865 630.734 46.4844C630.005 47.6823 629.12 48.9583 628.078 50.3125C627.036 51.6667 625.917 53.0469 624.719 54.4531C623.521 55.8073 622.271 57.0573 620.969 58.2031C619.667 59.2969 618.365 60.1823 617.062 60.8594C615.812 61.5885 614.615 61.9531 613.469 61.9531Z" fill="white"/>
<path d="M644.406 13.9844C644.25 14.5573 643.938 15.1302 643.469 15.7031C643.052 16.224 642.557 16.6667 641.984 17.0312C641.464 17.3438 640.917 17.5521 640.344 17.6562C639.771 17.7604 639.302 17.6562 638.938 17.3438C637.844 16.5104 637.271 15.625 637.219 14.6875C637.167 13.6979 637.401 12.7865 637.922 11.9531C638.443 11.0677 639.094 10.3385 639.875 9.76562C640.656 9.14062 641.333 8.77604 641.906 8.67188C642.479 8.56771 642.948 8.69792 643.312 9.0625C643.729 9.375 644.042 9.81771 644.25 10.3906C644.458 10.9115 644.562 11.5104 644.562 12.1875C644.615 12.8646 644.562 13.4635 644.406 13.9844ZM633.625 30.625C633.885 30.3125 634.38 30.0521 635.109 29.8438C635.839 29.6354 636.594 29.4792 637.375 29.375C638.156 29.2188 638.859 29.1406 639.484 29.1406C640.161 29.0885 640.552 29.0885 640.656 29.1406C640.708 29.1927 640.578 29.7396 640.266 30.7812C639.953 31.8229 639.562 33.0469 639.094 34.4531C638.625 35.8594 638.13 37.3177 637.609 38.8281C637.089 40.2865 636.698 41.4844 636.438 42.4219C636.177 43.3594 635.865 44.4271 635.5 45.625C635.135 46.7708 634.797 47.9167 634.484 49.0625C634.224 50.1562 634.042 51.1979 633.938 52.1875C633.833 53.1771 633.911 53.9323 634.172 54.4531C634.432 55.0781 634.719 55.5208 635.031 55.7812C635.344 55.9896 635.682 56.0938 636.047 56.0938C637.089 56.0938 638.391 55.5208 639.953 54.375C641.568 53.2292 643.182 51.875 644.797 50.3125C646.464 48.6979 648 47.0833 649.406 45.4688C650.812 43.8021 651.854 42.474 652.531 41.4844C652.948 40.9635 653.365 40.625 653.781 40.4688C654.25 40.3125 654.615 40.3385 654.875 40.5469C655.188 40.7552 655.344 41.0938 655.344 41.5625C655.396 42.0312 655.24 42.5781 654.875 43.2031C654.042 44.6615 652.818 46.4062 651.203 48.4375C649.589 50.4167 647.87 52.3438 646.047 54.2188C644.224 56.0417 642.427 57.6042 640.656 58.9062C638.938 60.2083 637.531 60.8854 636.438 60.9375C635.552 60.9896 634.667 60.8333 633.781 60.4688C632.948 60.1562 632.167 59.7135 631.438 59.1406C630.76 58.5156 630.188 57.8125 629.719 57.0312C629.25 56.1979 628.99 55.3385 628.938 54.4531C628.781 53.151 628.781 51.3802 628.938 49.1406C629.094 46.849 629.38 44.5312 629.797 42.1875C630.214 39.7917 630.734 37.526 631.359 35.3906C632.036 33.2552 632.792 31.6667 633.625 30.625Z" fill="white"/>
<path d="M662.453 57.3438C664.068 57.3438 665.839 56.7188 667.766 55.4688C669.745 54.1667 671.646 52.6562 673.469 50.9375C675.344 49.2188 677.036 47.474 678.547 45.7031C680.109 43.8802 681.281 42.4219 682.062 41.3281C682.531 40.651 682.974 40.2604 683.391 40.1562C683.807 40 684.12 40.0521 684.328 40.3125C684.536 40.5729 684.615 40.9896 684.562 41.5625C684.51 42.0833 684.276 42.6823 683.859 43.3594C683.495 43.9844 682.87 44.8958 681.984 46.0938C681.151 47.2396 680.135 48.5156 678.938 49.9219C677.792 51.276 676.464 52.6823 674.953 54.1406C673.495 55.5469 671.958 56.849 670.344 58.0469C668.729 59.1927 667.062 60.1302 665.344 60.8594C663.625 61.6406 661.932 62.0312 660.266 62.0312C657.974 62.0312 656.047 61.5885 654.484 60.7031C652.974 59.8698 651.75 58.776 650.812 57.4219C649.927 56.0677 649.302 54.5833 648.938 52.9688C648.573 51.3021 648.391 49.6615 648.391 48.0469C648.391 46.4323 648.755 44.4271 649.484 42.0312C650.214 39.6354 651.281 37.3438 652.688 35.1562C654.146 32.9167 655.969 31.0156 658.156 29.4531C660.344 27.8385 662.922 27.0312 665.891 27.0312C667.557 27.0312 668.964 27.6042 670.109 28.75C671.307 29.8958 671.88 31.4583 671.828 33.4375C671.828 34.375 671.672 35.3125 671.359 36.25C671.047 37.1354 670.63 37.9427 670.109 38.6719C669.589 39.349 668.964 39.8958 668.234 40.3125C667.557 40.7292 666.802 40.9375 665.969 40.9375C665.292 40.9375 664.771 40.7031 664.406 40.2344C664.094 39.7135 663.885 39.1406 663.781 38.5156C663.729 37.8385 663.729 37.1875 663.781 36.5625C663.885 35.9375 663.99 35.5208 664.094 35.3125C664.354 34.9479 664.641 34.6875 664.953 34.5312C665.266 34.375 665.63 34.1927 666.047 33.9844C666.359 33.8281 666.594 33.5938 666.75 33.2812C666.958 32.9688 667.062 32.6302 667.062 32.2656C667.062 31.901 666.958 31.5885 666.75 31.3281C666.542 31.0677 666.203 30.9375 665.734 30.9375C665.266 30.9375 664.406 31.3281 663.156 32.1094C661.958 32.8385 660.708 33.9583 659.406 35.4688C658.156 36.9271 657.036 38.776 656.047 41.0156C655.057 43.2552 654.536 45.8594 654.484 48.8281C654.432 50.5469 654.667 51.9531 655.188 53.0469C655.708 54.1406 656.359 55 657.141 55.625C657.922 56.25 658.781 56.6927 659.719 56.9531C660.656 57.2135 661.568 57.3438 662.453 57.3438Z" fill="white"/>
</svg>
