<svg width="714" height="63" viewBox="0 0 714 63" fill="none" xmlns="http://www.w3.org/2000/svg">
<path d="M17.8567 32.541C14.8687 36.789 9.3607 41.649 3.4567 44.925C2.8807 43.917 1.6567 42.333 0.720703 41.433C6.9127 38.301 12.7447 32.757 15.4087 28.293H19.9087C23.7607 33.837 29.6287 38.553 35.3527 41.001C34.2727 42.117 33.3007 43.557 32.5087 44.889C26.9647 41.829 20.9167 36.825 17.8567 32.541ZM5.6167 49.425H30.2407V53.169H5.6167V49.425ZM7.4527 41.469H28.5847V45.249H7.4527V41.469ZM2.7367 57.525H33.4807V61.377H2.7367V57.525ZM15.5887 43.161H20.1607V59.685H15.5887V43.161Z" fill="white"/>
<path d="M38.5567 34.269C39.9607 34.233 41.4007 34.161 42.0847 34.089C45.1087 33.801 51.0127 33.297 57.6367 32.721C61.3447 32.397 65.2687 32.181 67.8247 32.073L67.8607 36.717C65.9167 36.717 62.8207 36.753 60.8767 37.185C56.5567 38.337 53.2807 43.017 53.2807 47.265C53.2807 53.205 58.8247 55.329 64.9087 55.653L63.2527 60.585C55.6927 60.117 48.5647 56.049 48.5647 48.237C48.5647 43.053 51.4807 38.985 53.9287 37.149C50.5447 37.509 43.2007 38.265 39.0247 39.201L38.5567 34.269Z" fill="white"/>
<path d="M88.0927 33.837C92.5207 34.449 99.7207 34.269 103.573 33.801V38.445C99.1807 38.877 92.6287 38.877 88.1287 38.445L88.0927 33.837ZM90.9727 49.209C90.6847 50.433 90.5407 51.297 90.5407 52.233C90.5407 53.853 91.9447 54.825 95.6167 54.825C98.8207 54.825 101.485 54.537 104.617 53.853L104.725 58.713C102.385 59.181 99.4687 59.433 95.4007 59.433C89.2087 59.433 86.2207 57.201 86.2207 53.529C86.2207 52.089 86.4367 50.685 86.8687 48.849L90.9727 49.209ZM82.5487 31.425C82.2967 32.181 81.8287 34.017 81.6847 34.665C81.1807 37.041 79.9207 44.241 79.9207 47.841C79.9207 48.561 79.9567 49.461 80.0647 50.181C80.6047 48.957 81.1807 47.733 81.7207 46.509L83.9527 48.273C82.9087 51.297 81.7207 55.185 81.3607 57.093C81.2527 57.633 81.1447 58.425 81.1447 58.785C81.1807 59.181 81.1807 59.793 81.2167 60.297L77.0767 60.549C76.3567 58.101 75.6727 53.709 75.6727 48.813C75.6727 43.377 76.7527 37.329 77.1487 34.521C77.2927 33.549 77.4727 32.181 77.5087 31.029L82.5487 31.425Z" fill="white"/>
<path d="M123.697 29.769C123.553 30.453 123.409 32.001 123.373 32.901C123.193 35.745 123.085 39.633 123.085 42.981C123.085 46.905 123.301 53.133 123.301 55.221C123.301 59.649 121.717 60.873 119.341 60.873C115.849 60.873 110.881 57.849 110.881 54.033C110.881 50.541 115.381 46.869 120.385 45.105C123.589 43.953 127.225 43.377 129.961 43.377C135.505 43.377 139.897 46.257 139.897 51.225C139.897 55.509 137.665 58.713 131.941 60.117C130.285 60.477 128.665 60.585 127.189 60.729L125.569 56.049C127.153 56.049 128.737 56.049 129.961 55.797C132.877 55.293 135.217 53.817 135.217 51.225C135.217 48.741 133.057 47.337 129.925 47.337C126.865 47.337 123.697 47.985 120.889 49.101C117.649 50.325 115.345 52.269 115.345 53.817C115.345 54.969 117.037 55.941 117.973 55.941C118.621 55.941 119.089 55.653 119.089 54.393C119.089 52.521 118.909 47.517 118.909 43.161C118.909 39.057 118.945 34.593 118.945 32.937C118.945 32.217 118.837 30.417 118.729 29.769H123.697ZM133.957 33.693C136.693 35.025 140.869 37.365 142.813 38.733L140.617 42.405C138.889 40.965 134.209 38.265 131.977 37.185L133.957 33.693ZM111.853 35.673C113.977 35.925 115.525 35.925 116.821 35.925C120.565 35.925 126.181 35.241 129.889 34.161L129.997 38.625C125.929 39.561 120.133 40.209 116.965 40.209C114.589 40.209 113.185 40.173 111.961 40.029L111.853 35.673Z" fill="white"/>
<path d="M153.325 33.297C153.073 34.557 152.893 36.681 152.893 37.689C152.893 40.029 152.893 42.693 153.109 45.321C153.613 50.505 154.693 54.069 156.961 54.069C158.689 54.069 160.093 49.821 160.777 46.977L164.413 51.333C162.001 57.633 159.769 59.793 156.889 59.793C152.893 59.793 149.473 56.265 148.465 46.617C148.105 43.305 148.069 39.057 148.069 36.861C148.069 35.889 148.033 34.341 147.781 33.225L153.325 33.297ZM171.325 34.089C174.745 38.229 177.517 47.229 177.913 52.737L173.161 54.609C172.621 48.777 170.677 40.065 166.753 35.601L171.325 34.089Z" fill="white"/>
<path d="M181.467 34.269C182.871 34.233 184.311 34.161 184.995 34.089C188.019 33.801 193.923 33.297 200.547 32.721C204.255 32.397 208.179 32.181 210.735 32.073L210.771 36.717C208.827 36.717 205.731 36.753 203.787 37.185C199.467 38.337 196.191 43.017 196.191 47.265C196.191 53.205 201.735 55.329 207.819 55.653L206.163 60.585C198.603 60.117 191.475 56.049 191.475 48.237C191.475 43.053 194.391 38.985 196.839 37.149C193.455 37.509 186.111 38.265 181.935 39.201L181.467 34.269Z" fill="white"/>
<path d="M229.419 28.473L232.047 30.993C228.987 31.929 224.775 32.469 221.247 32.721C221.139 32.001 220.707 30.813 220.311 30.093C223.551 29.769 227.259 29.157 229.419 28.473ZM245.043 28.473L247.671 31.029C244.359 31.965 239.823 32.505 236.007 32.757C235.863 32.001 235.431 30.849 235.071 30.129C238.599 29.805 242.667 29.193 245.043 28.473ZM219.123 29.229L223.731 30.381C223.695 30.705 223.479 30.849 222.867 30.993V32.721C222.867 35.565 222.183 39.921 218.871 42.981C218.295 42.117 216.927 40.785 216.063 40.281C218.727 37.869 219.123 34.917 219.123 32.541V29.229ZM234.027 29.265L238.635 30.345C238.599 30.669 238.383 30.849 237.771 30.921V32.757C237.771 35.349 236.979 39.093 233.163 41.613C232.659 40.713 231.399 39.309 230.535 38.733C233.523 36.861 234.027 34.629 234.027 32.577V29.265ZM220.815 33.801H232.767V36.969H220.815V33.801ZM235.647 33.801H249.111V36.969H235.647V33.801ZM225.567 34.881H229.383V40.713H225.567V34.881ZM240.687 34.881H244.539V40.749H240.687V34.881ZM225.207 47.985V49.533H240.903V47.985H225.207ZM225.207 51.981V53.565H240.903V51.981H225.207ZM225.207 43.989V45.537H240.903V43.989H225.207ZM221.031 41.397H245.259V56.157H221.031V41.397ZM234.927 58.029L238.527 55.977C242.307 57.345 246.771 59.145 249.327 60.405L244.287 62.349C242.271 61.125 238.563 59.397 234.927 58.029ZM226.935 55.869L230.895 57.633C227.943 59.541 223.263 61.341 219.591 62.385C218.835 61.521 217.359 59.937 216.387 59.217C220.203 58.497 224.487 57.237 226.935 55.869Z" fill="white"/>
<path d="M272.187 34.341C271.683 38.013 270.963 42.225 269.703 46.473C267.543 53.745 264.447 58.209 260.523 58.209C256.491 58.209 253.179 53.781 253.179 47.697C253.179 39.417 260.415 32.289 269.739 32.289C278.631 32.289 284.283 38.481 284.283 46.365C284.283 53.925 279.639 59.289 270.567 60.693L267.831 56.445C269.235 56.265 270.243 56.085 271.215 55.869C275.787 54.753 279.387 51.477 279.387 46.185C279.387 40.533 275.859 36.501 269.631 36.501C261.999 36.501 257.823 42.729 257.823 47.265C257.823 50.901 259.263 52.665 260.631 52.665C262.179 52.665 263.547 50.361 265.059 45.501C266.103 42.117 266.895 37.977 267.255 34.197L272.187 34.341Z" fill="white"/>
<path d="M289.071 31.425H320.679V35.097H289.071V31.425ZM302.427 28.365H306.891V33.261H302.427V28.365ZM290.511 45.969H316.827V49.533H294.723V62.277H290.511V45.969ZM315.207 45.969H319.563V57.705C319.563 59.685 319.167 60.837 317.763 61.485C316.395 62.133 314.487 62.205 311.895 62.205C311.751 60.981 311.139 59.253 310.563 58.137C312.183 58.209 314.019 58.209 314.523 58.173C315.063 58.173 315.207 58.029 315.207 57.597V45.969ZM297.963 51.189H301.707V60.909H297.963V51.189ZM299.835 51.189H311.787V59.253H299.835V56.373H307.971V54.069H299.835V51.189ZM299.079 39.381V41.541H310.419V39.381H299.079ZM294.975 36.501H314.775V44.457H294.975V36.501Z" fill="white"/>
<path d="M332.235 33.297C331.983 34.557 331.803 36.681 331.803 37.689C331.803 40.029 331.803 42.693 332.019 45.321C332.523 50.505 333.603 54.069 335.871 54.069C337.599 54.069 339.003 49.821 339.687 46.977L343.323 51.333C340.911 57.633 338.679 59.793 335.799 59.793C331.803 59.793 328.383 56.265 327.375 46.617C327.015 43.305 326.979 39.057 326.979 36.861C326.979 35.889 326.943 34.341 326.691 33.225L332.235 33.297ZM350.235 34.089C353.655 38.229 356.427 47.229 356.823 52.737L352.071 54.609C351.531 48.777 349.587 40.065 345.663 35.601L350.235 34.089Z" fill="white"/>
<path d="M391.275 36.645C390.879 37.329 390.375 38.301 390.087 39.201C389.115 42.441 387.063 47.229 383.787 51.225C380.367 55.401 376.047 58.713 369.279 61.377L365.031 57.597C372.375 55.365 376.371 52.233 379.539 48.669C381.987 45.861 384.075 41.541 384.651 38.877H372.519L374.175 34.773C375.759 34.773 383.319 34.773 384.435 34.773C385.551 34.773 386.775 34.629 387.567 34.341L391.275 36.645ZM379.539 30.921C378.675 32.181 377.739 33.837 377.343 34.593C374.895 38.949 370.611 44.025 365.427 47.553L361.395 44.565C367.695 40.713 370.863 36.069 372.627 32.973C373.167 32.109 373.923 30.453 374.247 29.193L379.539 30.921Z" fill="white"/>
<path d="M423.783 31.065C423.711 32.073 423.675 33.225 423.675 34.701C423.675 36.537 423.675 40.029 423.675 41.793C423.675 49.569 422.163 52.881 419.463 55.833C417.087 58.461 413.379 60.189 410.751 61.053L406.971 57.057C410.571 56.229 413.451 54.861 415.647 52.521C418.095 49.821 418.599 47.121 418.599 41.505C418.599 39.705 418.599 36.249 418.599 34.701C418.599 33.225 418.491 32.073 418.347 31.065H423.783ZM407.115 31.389C407.043 32.217 406.971 33.009 406.971 34.125C406.971 35.709 406.971 44.277 406.971 46.293C406.971 47.193 407.043 48.597 407.115 49.425H401.859C401.931 48.777 402.039 47.373 402.039 46.257C402.039 44.205 402.039 35.709 402.039 34.125C402.039 33.477 402.003 32.217 401.895 31.389H407.115Z" fill="white"/>
<path d="M436.995 34.557C438.327 34.701 439.983 34.773 441.243 34.773C444.267 34.773 454.167 34.773 456.147 34.773C457.587 34.773 459.099 34.701 460.143 34.557V39.777C459.099 39.741 457.407 39.669 456.147 39.669C454.239 39.669 443.259 39.669 441.243 39.669C439.875 39.669 438.219 39.741 436.995 39.777V34.557ZM433.971 52.197C435.375 52.269 437.067 52.413 438.507 52.413C440.775 52.413 456.903 52.413 459.171 52.413C460.359 52.413 461.907 52.305 463.131 52.197V57.705C461.835 57.561 460.215 57.453 459.171 57.453C456.903 57.453 440.775 57.453 438.507 57.453C437.067 57.453 435.339 57.561 433.971 57.705V52.197Z" fill="white"/>
<path d="M485.055 37.653C485.739 39.165 487.503 43.881 488.007 45.537L483.723 47.013C483.255 45.285 481.671 40.929 480.807 39.057L485.055 37.653ZM498.339 40.245C497.943 41.433 497.727 42.189 497.511 42.909C496.575 46.545 495.027 50.289 492.579 53.421C489.231 57.777 484.767 60.765 480.555 62.385L476.775 58.533C480.699 57.453 485.739 54.717 488.691 50.973C491.139 47.949 492.903 43.161 493.299 38.625L498.339 40.245ZM476.703 39.525C477.603 41.361 479.367 45.753 480.051 47.769L475.659 49.389C475.083 47.481 473.247 42.657 472.383 41.109L476.703 39.525Z" fill="white"/>
<path d="M535.275 36.645C534.879 37.329 534.375 38.301 534.087 39.201C533.115 42.441 531.063 47.229 527.787 51.225C524.367 55.401 520.047 58.713 513.279 61.377L509.031 57.597C516.375 55.365 520.371 52.233 523.539 48.669C525.987 45.861 528.075 41.541 528.651 38.877H516.519L518.175 34.773C519.759 34.773 527.319 34.773 528.435 34.773C529.551 34.773 530.775 34.629 531.567 34.341L535.275 36.645ZM523.539 30.921C522.675 32.181 521.739 33.837 521.343 34.593C518.895 38.949 514.611 44.025 509.427 47.553L505.395 44.565C511.695 40.713 514.863 36.069 516.627 32.973C517.167 32.109 517.923 30.453 518.247 29.193L523.539 30.921Z" fill="white"/>
<path d="M556.407 30.129C556.119 31.461 555.651 33.585 554.643 36.177C553.887 37.941 552.843 39.993 551.835 41.433C552.807 41.001 554.715 40.749 555.939 40.749C558.927 40.749 561.195 42.513 561.195 45.861C561.195 47.805 561.303 51.729 561.339 53.997H557.019C557.163 52.305 557.235 49.245 557.199 47.301C557.199 44.997 555.759 44.241 554.247 44.241C552.267 44.241 549.999 45.429 548.631 46.725C547.551 47.805 546.543 49.101 545.319 50.685L541.467 47.805C546.075 43.557 548.847 39.669 550.359 35.709C551.079 33.765 551.547 31.569 551.655 29.733L556.407 30.129ZM542.835 33.477C544.671 33.729 547.335 33.873 549.171 33.873C553.923 33.873 560.439 33.621 565.659 32.685L565.623 36.861C560.547 37.581 553.311 37.905 548.919 37.905C547.443 37.905 544.815 37.833 542.835 37.653V33.477ZM571.347 43.701C570.231 44.025 568.287 44.745 567.063 45.213C564.723 46.113 561.483 47.409 558.099 49.137C554.823 50.829 553.059 52.377 553.059 54.357C553.059 56.337 554.787 56.877 558.279 56.877C561.339 56.877 565.371 56.481 568.539 55.833L568.395 60.477C565.983 60.801 561.591 61.125 558.171 61.125C552.555 61.125 548.343 59.721 548.343 55.077C548.343 50.073 553.491 47.121 557.811 44.961C561.123 43.233 563.391 42.369 565.551 41.361C566.955 40.749 568.215 40.173 569.583 39.489L571.347 43.701Z" fill="white"/>
<path d="M583.083 38.733H602.631V42.801H583.083V38.733ZM583.083 47.085H602.631V51.153H583.083V47.085ZM583.083 55.401H602.631V59.613H583.083V55.401ZM579.951 30.381H605.619V61.845H601.047V34.629H584.307V61.845H579.951V30.381Z" fill="white"/>
<path d="M626.499 28.473H630.783V38.265C630.783 39.597 631.143 39.777 633.267 39.777C634.239 39.777 638.343 39.777 639.531 39.777C641.331 39.777 641.619 39.201 641.871 35.637C642.771 36.285 644.607 36.933 645.759 37.185C645.219 42.297 643.959 43.629 639.855 43.629C638.775 43.629 633.879 43.629 632.835 43.629C627.795 43.629 626.499 42.405 626.499 38.265V28.473ZM640.431 29.985L643.635 33.117C639.639 34.773 634.275 36.069 629.667 36.933C629.451 35.997 628.839 34.557 628.371 33.729C632.691 32.829 637.515 31.389 640.431 29.985ZM626.427 45.717H643.995V62.061H639.711V49.281H630.495V62.241H626.427V45.717ZM628.587 51.513H641.187V54.861H628.587V51.513ZM628.407 57.237H641.187V60.657H628.407V57.237ZM611.667 46.797C615.015 46.077 620.019 44.853 624.699 43.629L625.203 47.589C620.919 48.813 616.311 50.001 612.711 50.937L611.667 46.797ZM612.207 35.205H624.627V39.237H612.207V35.205ZM616.707 28.437H620.955V57.597C620.955 59.685 620.595 60.765 619.371 61.413C618.147 62.061 616.419 62.205 613.863 62.169C613.755 61.089 613.179 59.325 612.675 58.245C614.079 58.281 615.555 58.281 616.023 58.281C616.527 58.245 616.707 58.101 616.707 57.597V28.437Z" fill="white"/>
<path d="M660.267 30.453C660.051 31.965 659.871 33.837 659.799 35.277C659.619 39.165 659.367 47.193 659.367 51.657C659.367 55.293 661.527 56.481 664.335 56.481C670.275 56.481 674.019 53.061 676.647 49.137L679.923 53.133C677.583 56.589 672.471 61.377 664.263 61.377C658.359 61.377 654.579 58.785 654.579 52.629C654.579 47.805 654.903 38.373 654.903 35.277C654.903 33.549 654.759 31.821 654.471 30.417L660.267 30.453Z" fill="white"/>
<path d="M684.377 34.269C685.781 34.233 687.221 34.161 687.905 34.089C690.929 33.801 696.833 33.297 703.457 32.721C707.165 32.397 711.089 32.181 713.645 32.073L713.681 36.717C711.737 36.717 708.641 36.753 706.697 37.185C702.377 38.337 699.101 43.017 699.101 47.265C699.101 53.205 704.645 55.329 710.729 55.653L709.073 60.585C701.513 60.117 694.385 56.049 694.385 48.237C694.385 43.053 697.301 38.985 699.749 37.149C696.365 37.509 689.021 38.265 684.845 39.201L684.377 34.269Z" fill="white"/>
<rect x="588" width="9" height="9" rx="4.5" fill="white"/>
<rect x="515" width="9" height="9" rx="4.5" fill="white"/>
<rect x="480" width="9" height="9" rx="4.5" fill="white"/>
<rect x="444" width="9" height="9" rx="4.5" fill="white"/>
<rect x="410" width="9" height="9" rx="4.5" fill="white"/>
<rect x="373" width="9" height="9" rx="4.5" fill="white"/>
<rect x="335" width="9" height="9" rx="4.5" fill="white"/>
<rect x="301" width="9" height="9" rx="4.5" fill="white"/>
<rect x="625" width="9" height="9" rx="4.5" fill="white"/>
</svg>
