<svg width="49" height="452" viewBox="0 0 49 452" fill="none" xmlns="http://www.w3.org/2000/svg">
<path d="M15.3758 17.3594C18.4157 25.5834 21.5628 28.8646 29.569 32.3596L26.0993 37.1919C16.9057 32.827 12.3266 25.4692 10.1699 19.7273L15.3758 17.3594Z" fill="white"/>
<path d="M17.9261 6.00393C19.5516 5.99765 20.7876 7.33898 20.6768 8.85785C20.5024 11.248 20.688 12.9725 21.1879 15.1101C21.4625 16.2842 20.8413 17.4768 19.8541 18.2449C18.5235 19.2802 17.507 20.5994 16.6991 21.735C15.5792 23.309 11.7256 23.1959 10.8733 21.4811C9.12176 17.9572 7.93476 11.4647 10.4925 7.0783C10.8942 6.38929 11.7032 6.02811 12.5414 6.02485L17.9261 6.00393Z" fill="white"/>
<path d="M42.5999 32.0811C42.8021 30.5705 41.5289 29.26 39.9056 29.1804C37.351 29.0551 35.5454 28.6751 33.3398 27.9533C32.1282 27.5568 30.7894 27.9909 29.8565 28.8164C28.599 29.929 27.0785 30.7155 25.7776 31.3301C23.9745 32.182 23.6309 35.7786 25.346 36.7772C28.8708 38.8295 35.61 40.7139 40.5672 38.8634C41.3458 38.5726 41.826 37.864 41.9302 37.0851L42.5999 32.0811Z" fill="white"/>
<path d="M25 198V211" stroke="white" stroke-width="3" stroke-linecap="round"/>
<path d="M24 292V305" stroke="white" stroke-width="3" stroke-linecap="round"/>
<path d="M23.1231 187.559C18.4431 187.559 15.2831 185.839 13.2031 183.439L16.0031 179.719C17.7631 181.439 19.8831 182.799 22.5631 182.799C25.6031 182.799 27.6431 181.279 27.6431 178.639C27.6431 175.719 25.9231 173.919 19.4831 173.919V169.679C24.9231 169.679 26.6831 167.839 26.6831 165.199C26.6831 162.879 25.2431 161.479 22.7231 161.479C20.6031 161.479 18.8831 162.479 17.1231 164.119L14.1231 160.479C16.6831 158.279 19.5231 156.879 22.9631 156.879C28.6831 156.879 32.5631 159.679 32.5631 164.759C32.5631 167.919 30.8031 170.279 27.6431 171.479V171.679C31.0031 172.639 33.5631 175.079 33.5631 178.999C33.5631 184.439 28.8031 187.559 23.1231 187.559Z" fill="white"/>
<path d="M23.2431 153.558C18.5631 153.558 15.4431 151.718 13.2031 149.518L15.9631 145.798C17.6031 147.438 19.7231 148.798 22.4431 148.798C25.5631 148.798 27.6831 146.838 27.6831 143.318C27.6831 139.878 25.6831 137.958 22.7231 137.958C20.9631 137.958 20.0031 138.398 18.2831 139.518L15.5631 137.758L16.4031 123.398H32.2431V128.318H21.4831L20.9231 134.598C22.0831 134.078 23.1231 133.798 24.4831 133.798C29.4431 133.798 33.6031 136.718 33.6031 143.198C33.6031 149.758 28.6831 153.558 23.2431 153.558Z" fill="white"/>
<path d="M23.964 119.558C18.284 119.558 14.084 116.318 14.084 111.678C14.084 107.878 16.404 105.358 19.124 103.918V103.758C16.884 102.118 15.204 99.838 15.204 96.718C15.204 91.958 19.004 88.918 24.164 88.918C29.404 88.918 32.764 92.038 32.764 96.758C32.764 99.718 30.884 102.158 28.964 103.558V103.758C31.684 105.238 33.924 107.598 33.924 111.678C33.924 116.158 29.924 119.558 23.964 119.558ZM25.844 102.118C27.284 100.598 27.964 98.918 27.964 97.158C27.964 94.718 26.484 93.038 24.044 93.038C22.004 93.038 20.404 94.358 20.404 96.718C20.404 99.478 22.724 100.878 25.844 102.118ZM24.084 115.398C26.644 115.398 28.444 113.998 28.444 111.438C28.444 108.358 25.684 107.118 21.884 105.518C20.244 106.798 19.124 108.798 19.124 110.998C19.124 113.678 21.324 115.398 24.084 115.398Z" fill="white"/>
<path d="M24.0029 85.5589C17.9629 85.5589 13.9629 80.3189 13.9629 70.0789C13.9629 59.8789 17.9629 54.8789 24.0029 54.8789C30.0029 54.8789 34.0029 59.8789 34.0029 70.0789C34.0029 80.3189 30.0029 85.5589 24.0029 85.5589ZM24.0029 80.9589C26.5629 80.9589 28.4429 78.3989 28.4429 70.0789C28.4429 61.7989 26.5629 59.3989 24.0029 59.3989C21.4429 59.3989 19.5229 61.7989 19.5229 70.0789C19.5229 78.3989 21.4429 80.9589 24.0029 80.9589Z" fill="white"/>
<path d="M16.4434 282.998V278.238H22.8434V259.518H17.4434V255.878C20.4434 255.318 22.4434 254.558 24.3634 253.398H28.7234V278.238H34.2834V282.998H16.4434Z" fill="white"/>
<path d="M14.8835 248.999V245.639C22.9635 238.399 27.6835 232.839 27.6835 228.279C27.6835 225.319 26.1235 223.479 23.2835 223.479C21.0835 223.479 19.3635 224.879 17.8435 226.559L14.6035 223.359C17.3235 220.439 20.0035 218.879 24.0435 218.879C29.6035 218.879 33.3635 222.439 33.3635 227.959C33.3635 233.359 28.8835 239.119 23.4835 244.399C24.9635 244.239 26.9235 244.039 28.3235 244.039H34.7235V248.999H14.8835Z" fill="white"/>
<path d="M23.1231 449.559C18.4431 449.559 15.2831 447.839 13.2031 445.439L16.0031 441.719C17.7631 443.439 19.8831 444.799 22.5631 444.799C25.6031 444.799 27.6431 443.279 27.6431 440.639C27.6431 437.719 25.9231 435.919 19.4831 435.919V431.679C24.9231 431.679 26.6831 429.839 26.6831 427.199C26.6831 424.879 25.2431 423.479 22.7231 423.479C20.6031 423.479 18.8831 424.479 17.1231 426.119L14.1231 422.479C16.6831 420.279 19.5231 418.879 22.9631 418.879C28.6831 418.879 32.5631 421.679 32.5631 426.759C32.5631 429.919 30.8031 432.279 27.6431 433.479V433.679C31.0031 434.639 33.5631 437.079 33.5631 440.999C33.5631 446.439 28.8031 449.559 23.1231 449.559Z" fill="white"/>
<path d="M22.4027 415.559C18.6827 415.559 16.0427 414.039 14.2427 412.199L17.3627 408.639C18.4827 409.879 20.2827 410.799 22.0427 410.799C25.5227 410.799 28.3627 407.999 28.3627 399.519C28.3627 391.959 26.0827 389.279 23.2027 389.279C20.9627 389.279 19.1627 391.079 19.1627 394.759C19.1627 398.199 20.8427 399.879 23.3627 399.879C25.0427 399.879 26.8827 398.959 28.3227 396.519L28.6427 400.519C27.0427 402.719 24.3627 404.039 22.2827 404.039C17.3227 404.039 13.8027 401.039 13.8027 394.759C13.8027 388.639 18.0427 384.879 23.0827 384.879C28.7227 384.879 33.7627 389.279 33.7627 399.519C33.7627 410.719 28.2827 415.559 22.4027 415.559Z" fill="white"/>
<path d="M13.8835 380.999V377.639C21.9635 370.399 26.6835 364.839 26.6835 360.279C26.6835 357.319 25.1235 355.479 22.2835 355.479C20.0835 355.479 18.3635 356.879 16.8435 358.559L13.6035 355.359C16.3235 352.439 19.0035 350.879 23.0435 350.879C28.6035 350.879 32.3635 354.439 32.3635 359.959C32.3635 365.359 27.8835 371.119 22.4835 376.399C23.9635 376.239 25.9235 376.039 27.3235 376.039H33.7235V380.999H13.8835Z" fill="white"/>
<path d="M24.8041 347.559C19.2041 347.559 14.1641 343.039 14.1641 332.599C14.1641 321.599 19.6441 316.879 25.6441 316.879C29.2441 316.879 31.8841 318.359 33.6841 320.239L30.5241 323.719C29.5241 322.559 27.6841 321.599 26.0041 321.599C22.4041 321.599 19.5641 324.359 19.5641 332.599C19.5641 340.279 21.8041 343.119 24.7241 343.119C26.9241 343.119 28.7241 341.279 28.7241 337.679C28.7241 334.159 27.0441 332.559 24.5241 332.559C22.8841 332.559 21.0041 333.439 19.5241 335.879L19.2841 331.879C20.8441 329.679 23.6041 328.399 25.6041 328.399C30.5641 328.399 34.1241 331.319 34.1241 337.679C34.1241 343.759 29.8441 347.559 24.8041 347.559Z" fill="white"/>
</svg>
