<svg width="82" height="81" viewBox="0 0 82 81" fill="none" xmlns="http://www.w3.org/2000/svg">
<path d="M25.73 29.2949C30.8172 43.1729 36.0838 48.71 49.4819 54.6077L43.6755 62.7623C28.2903 55.3965 20.6272 42.9802 17.0181 33.2907L25.73 29.2949Z" fill="white"/>
<path d="M29.9978 10.1343C32.718 10.1237 34.7864 12.3872 34.601 14.9503C34.3091 18.9837 34.6198 21.8938 35.4564 25.5009C35.9159 27.4823 34.8763 29.4947 33.2243 30.7909C30.9976 32.538 29.2964 34.7641 27.9444 36.6804C26.0704 39.3366 19.6214 39.1457 18.1951 36.2521C15.264 30.3054 13.2776 19.3494 17.5579 11.9473C18.2302 10.7846 19.5839 10.1751 20.9867 10.1696L29.9978 10.1343Z" fill="white"/>
<path d="M71.2904 54.1388C71.6287 51.5897 69.4981 49.3783 66.7815 49.2439C62.5065 49.0325 59.4849 48.3912 55.7938 47.1731C53.7662 46.504 51.5258 47.2366 49.9646 48.6296C47.8603 50.5072 45.3157 51.8344 43.1387 52.8715C40.1213 54.3091 39.5463 60.3784 42.4165 62.0635C48.3151 65.5267 59.593 68.7066 67.8886 65.5839C69.1917 65.0933 69.9952 63.8975 70.1696 62.583L71.2904 54.1388Z" fill="white"/>
</svg>
