<svg width="49" height="452" viewBox="0 0 49 452" fill="none" xmlns="http://www.w3.org/2000/svg">
<path d="M15.3758 17.3594C18.4157 25.5834 21.5628 28.8646 29.569 32.3596L26.0993 37.1919C16.9057 32.827 12.3266 25.4692 10.1699 19.7273L15.3758 17.3594Z" fill="white"/>
<path d="M17.9261 6.00393C19.5516 5.99765 20.7876 7.33898 20.6768 8.85785C20.5024 11.248 20.688 12.9725 21.1879 15.1101C21.4625 16.2842 20.8413 17.4768 19.8541 18.2449C18.5235 19.2802 17.507 20.5994 16.6991 21.735C15.5792 23.309 11.7256 23.1959 10.8733 21.4811C9.12176 17.9572 7.93476 11.4647 10.4925 7.0783C10.8942 6.38929 11.7032 6.02811 12.5414 6.02485L17.9261 6.00393Z" fill="white"/>
<path d="M42.5999 32.0811C42.8021 30.5705 41.5289 29.26 39.9056 29.1804C37.351 29.0551 35.5454 28.6751 33.3398 27.9533C32.1282 27.5568 30.7894 27.9909 29.8565 28.8164C28.599 29.929 27.0785 30.7155 25.7776 31.3301C23.9745 32.182 23.6309 35.7786 25.346 36.7772C28.8708 38.8295 35.61 40.7139 40.5672 38.8634C41.3458 38.5726 41.826 37.864 41.9302 37.0851L42.5999 32.0811Z" fill="white"/>
<path d="M34.8182 71.416C34.8182 75.376 33.8355 78.5587 31.8702 80.964C29.9048 83.34 27.2502 84.528 23.9062 84.528C20.5915 84.528 17.9662 83.34 16.0302 80.964C14.1235 78.588 13.1702 75.2293 13.1702 70.888C13.1702 67.3093 14.1235 64.3027 16.0302 61.868C17.9662 59.404 20.6355 58.172 24.0382 58.172C27.4702 58.172 30.1248 59.3893 32.0022 61.824C33.8795 64.2293 34.8182 67.4267 34.8182 71.416ZM28.2622 70.888C28.2622 62.9973 26.8395 59.052 23.9942 59.052C21.1488 59.052 19.7262 62.9973 19.7262 70.888C19.7262 75.112 20.0342 78.2947 20.6502 80.436C21.2662 82.5773 22.3955 83.648 24.0382 83.648C25.6808 83.648 26.7955 82.592 27.3822 80.48C27.9688 78.368 28.2622 75.1707 28.2622 70.888ZM34.334 112.268C34.334 114.409 33.3367 116.155 31.342 117.504C29.3767 118.853 26.9567 119.528 24.082 119.528C21.2367 119.528 18.7873 119.015 16.734 117.988C14.6807 116.932 13.654 115.201 13.654 112.796C13.654 111.359 14.1673 110.083 15.194 108.968C16.2207 107.853 17.5993 107.047 19.33 106.548C16.8367 104.465 15.59 102.192 15.59 99.728C15.59 97.9093 16.3087 96.3693 17.746 95.108C19.1833 93.8467 21.266 93.216 23.994 93.216C26.7513 93.216 28.9807 93.7733 30.682 94.888C32.4127 95.9733 33.278 97.2933 33.278 98.848C33.278 101.371 31.65 103.145 28.394 104.172C32.354 106.783 34.334 109.481 34.334 112.268ZM28.306 98.76C28.306 97.4107 27.8367 96.296 26.898 95.416C25.9887 94.536 24.9033 94.096 23.642 94.096C22.3807 94.096 21.4127 94.3747 20.738 94.932C20.0927 95.46 19.77 96.208 19.77 97.176C19.77 98.0267 20.3127 98.8773 21.398 99.728C22.3367 100.461 23.4513 101.209 24.742 101.972C26.062 102.735 26.9567 103.263 27.426 103.556C28.0127 102.471 28.306 100.872 28.306 98.76ZM19.066 113.016C19.066 114.688 19.6527 116.052 20.826 117.108C22.0287 118.135 23.29 118.648 24.61 118.648C25.9593 118.648 27.0447 118.281 27.866 117.548C28.7167 116.815 29.142 115.832 29.142 114.6C29.142 113.837 28.746 113.104 27.954 112.4C27.1913 111.696 25.93 110.816 24.17 109.76C22.41 108.704 21.1487 107.897 20.386 107.34C19.506 109.452 19.066 111.344 19.066 113.016ZM25.2617 129.624C26.9631 129.624 28.1657 129.536 28.8697 129.36C29.5737 129.155 30.0871 128.861 30.4097 128.48C30.7617 128.069 31.0844 127.527 31.3777 126.852H31.8177C32.0524 127.761 32.1697 128.759 32.1697 129.844C32.1697 131.751 31.7151 133.305 30.8057 134.508C29.8964 135.711 28.5617 136.312 26.8017 136.312C23.5751 136.312 20.6564 134.933 18.0457 132.176L17.1217 140.492C18.3537 139.319 20.3191 138.732 23.0177 138.732C26.5671 138.732 29.2071 139.392 30.9377 140.712C32.6977 142.003 33.5777 143.865 33.5777 146.3C33.5777 148.735 32.5951 150.7 30.6297 152.196C28.6937 153.692 25.8484 154.44 22.0937 154.44C19.5417 154.44 17.5471 153.883 16.1097 152.768C14.7017 151.624 13.9977 150.113 13.9977 148.236C13.9977 147.063 14.3057 146.109 14.9217 145.376C15.5671 144.643 16.4031 144.276 17.4297 144.276C18.4564 144.276 19.2484 144.555 19.8057 145.112C20.3924 145.669 20.6857 146.359 20.6857 147.18C20.6857 147.972 20.4657 148.603 20.0257 149.072C19.5857 149.541 19.1017 149.835 18.5737 149.952C17.1951 150.275 16.5057 150.744 16.5057 151.36C16.5057 151.947 16.9164 152.431 17.7377 152.812C18.5884 153.193 19.5564 153.384 20.6417 153.384C24.4257 153.384 26.3177 150.993 26.3177 146.212C26.3177 144.247 25.9804 142.721 25.3057 141.636C24.6604 140.551 23.3551 140.008 21.3897 140.008C19.4537 140.008 17.8991 140.741 16.7257 142.208L15.9777 142.032L17.4737 128.612C19.1457 129.287 21.7417 129.624 25.2617 129.624ZM22.1879 163.172C28.8759 163.172 32.2199 165.196 32.2199 169.244C32.2199 170.857 31.5746 172.221 30.2839 173.336C29.0226 174.451 27.2039 175.067 24.8279 175.184C27.4973 175.213 29.6533 175.815 31.2959 176.988C32.9679 178.161 33.8039 179.76 33.8039 181.784C33.8039 184.277 32.7919 186.228 30.7679 187.636C28.7733 189.015 25.9426 189.704 22.2759 189.704C19.7239 189.704 17.7293 189.147 16.2919 188.032C14.8839 186.888 14.1799 185.377 14.1799 183.5C14.1799 182.327 14.4879 181.373 15.1039 180.64C15.7493 179.907 16.5853 179.54 17.6119 179.54C18.6386 179.54 19.4306 179.819 19.9879 180.376C20.5746 180.933 20.8679 181.623 20.8679 182.444C20.8679 183.236 20.6479 183.867 20.2079 184.336C19.7679 184.805 19.2839 185.099 18.7559 185.216C17.3773 185.539 16.6879 186.008 16.6879 186.624C16.6879 187.211 17.0986 187.695 17.9199 188.076C18.7706 188.457 19.7386 188.648 20.8239 188.648C22.5253 188.648 23.9039 188.032 24.9599 186.8C26.0159 185.568 26.5439 183.911 26.5439 181.828C26.5439 179.716 26.0746 178.161 25.1359 177.164C24.2266 176.167 22.5546 175.668 20.1199 175.668H19.4159V174.788H20.1199C21.9973 174.788 23.3466 174.231 24.1679 173.116C24.9893 171.972 25.3999 170.681 25.3999 169.244C25.3999 167.807 24.9893 166.604 24.1679 165.636C23.3466 164.668 22.3053 164.184 21.0439 164.184C19.7826 164.184 18.8293 164.389 18.1839 164.8C17.5386 165.211 17.2159 165.651 17.2159 166.12C17.2159 166.56 17.3919 166.883 17.7439 167.088C18.1253 167.293 18.5359 167.455 18.9759 167.572C19.4453 167.66 19.8559 167.909 20.2079 168.32C20.5893 168.731 20.7799 169.288 20.7799 169.992C20.7799 170.696 20.5306 171.297 20.0319 171.796C19.5333 172.295 18.8293 172.544 17.9199 172.544C17.0106 172.544 16.2626 172.221 15.6759 171.576C15.0893 170.931 14.7959 170.051 14.7959 168.936C14.7959 167.323 15.4559 165.959 16.7759 164.844C18.1253 163.729 19.9293 163.172 22.1879 163.172Z" fill="white"/>
<path d="M33.409 240.752C33.409 242.6 32.969 244.184 32.089 245.504C31.2383 246.795 29.977 247.44 28.305 247.44C26.6623 247.44 24.741 246.897 22.541 245.812C20.341 244.697 18.757 244.14 17.789 244.14C16.0583 244.14 14.9876 245.093 14.577 247H13.697C13.873 244.771 14.6943 242.673 16.161 240.708C17.1583 239.388 19.2703 237.144 22.497 233.976C23.3476 233.125 24.1103 232.113 24.785 230.94C25.4596 229.767 25.797 228.505 25.797 227.156C25.797 225.807 25.401 224.648 24.609 223.68C23.817 222.712 22.6436 222.228 21.089 222.228C20.0916 222.228 19.1823 222.419 18.361 222.8C17.5396 223.181 17.129 223.621 17.129 224.12C17.129 224.589 17.3196 224.941 17.701 225.176C18.1116 225.411 18.537 225.601 18.977 225.748C19.4463 225.865 19.8716 226.159 20.253 226.628C20.6636 227.097 20.869 227.728 20.869 228.52C20.869 229.312 20.5756 229.987 19.989 230.544C19.4316 231.101 18.6543 231.38 17.657 231.38C16.6596 231.38 15.8383 231.013 15.193 230.28C14.5476 229.547 14.225 228.608 14.225 227.464C14.225 225.675 14.9876 224.179 16.513 222.976C18.0676 221.773 20.2236 221.172 22.981 221.172C25.7676 221.172 28.129 221.773 30.065 222.976C32.001 224.179 32.969 225.836 32.969 227.948C32.969 229.679 32.5583 231.145 31.737 232.348C30.945 233.551 29.9183 234.46 28.657 235.076C27.425 235.692 26.149 236.235 24.829 236.704C23.5383 237.144 22.2623 237.672 21.001 238.288C19.769 238.875 18.889 239.564 18.361 240.356C19.065 239.769 19.9743 239.476 21.089 239.476C22.2036 239.476 23.465 239.667 24.873 240.048C26.3103 240.429 27.4396 240.62 28.261 240.62C29.0823 240.62 29.757 240.576 30.285 240.488C30.813 240.4 31.3116 240.151 31.781 239.74C32.2503 239.329 32.529 238.743 32.617 237.98H33.057C33.2916 238.919 33.409 239.843 33.409 240.752ZM27.895 281.12H30.975V282H17.775V281.12H21.295V259.956L17.731 261.32L17.467 260.484L26.311 256.392H27.895V281.12Z" fill="white"/>
<path d="M20.1988 329.108C21.5775 327.935 23.4695 327.348 25.8748 327.348C28.2801 327.348 30.2895 327.964 31.9028 329.196C33.5455 330.399 34.3668 332.188 34.3668 334.564C34.3668 336.94 33.5015 338.861 31.7708 340.328C30.0695 341.795 27.6641 342.528 24.5548 342.528C16.9868 342.528 13.2028 338.187 13.2028 329.504C13.2028 325.309 14.2588 322.039 16.3708 319.692C18.5121 317.316 21.6215 316.128 25.6988 316.128C27.1948 316.128 28.6908 316.509 30.1868 317.272C31.7121 318.005 32.7095 319.105 33.1788 320.572C33.5895 321.628 33.6628 322.64 33.3988 323.608C33.1348 324.576 32.5628 325.251 31.6828 325.632C30.8028 325.984 29.9815 326.043 29.2188 325.808C28.4561 325.544 27.9135 325.06 27.5908 324.356C27.1801 323.212 27.1508 322.391 27.5028 321.892C27.8841 321.364 28.3388 320.821 28.8668 320.264C29.4241 319.677 29.6295 319.164 29.4828 318.724C29.3655 318.255 28.9108 317.888 28.1188 317.624C27.3268 317.331 26.5788 317.184 25.8748 317.184C25.1708 317.184 24.5695 317.257 24.0708 317.404C23.6015 317.521 23.1761 317.668 22.7948 317.844C22.4428 317.991 22.1201 318.269 21.8268 318.68C21.5628 319.061 21.3281 319.399 21.1228 319.692C20.9468 319.956 20.8001 320.411 20.6828 321.056C20.5655 321.672 20.4628 322.171 20.3748 322.552C20.3161 322.904 20.2721 323.505 20.2428 324.356C20.2135 325.177 20.1988 325.779 20.1988 326.16V329.108ZM24.5988 341.648C27.0041 341.648 28.2068 339.36 28.2068 334.784C28.2068 332.936 27.8401 331.469 27.1068 330.384C26.4028 329.299 25.3615 328.756 23.9828 328.756C22.6041 328.756 21.3428 329.284 20.1988 330.34C20.2281 334.271 20.5948 337.145 21.2988 338.964C22.0321 340.753 23.1321 341.648 24.5988 341.648ZM33.409 370.752C33.409 372.6 32.969 374.184 32.089 375.504C31.2383 376.795 29.977 377.44 28.305 377.44C26.6623 377.44 24.741 376.897 22.541 375.812C20.341 374.697 18.757 374.14 17.789 374.14C16.0583 374.14 14.9876 375.093 14.577 377H13.697C13.873 374.771 14.6943 372.673 16.161 370.708C17.1583 369.388 19.2703 367.144 22.497 363.976C23.3476 363.125 24.1103 362.113 24.785 360.94C25.4596 359.767 25.797 358.505 25.797 357.156C25.797 355.807 25.401 354.648 24.609 353.68C23.817 352.712 22.6436 352.228 21.089 352.228C20.0916 352.228 19.1823 352.419 18.361 352.8C17.5396 353.181 17.129 353.621 17.129 354.12C17.129 354.589 17.3196 354.941 17.701 355.176C18.1116 355.411 18.537 355.601 18.977 355.748C19.4463 355.865 19.8716 356.159 20.253 356.628C20.6636 357.097 20.869 357.728 20.869 358.52C20.869 359.312 20.5756 359.987 19.989 360.544C19.4316 361.101 18.6543 361.38 17.657 361.38C16.6596 361.38 15.8383 361.013 15.193 360.28C14.5476 359.547 14.225 358.608 14.225 357.464C14.225 355.675 14.9876 354.179 16.513 352.976C18.0676 351.773 20.2236 351.172 22.981 351.172C25.7676 351.172 28.129 351.773 30.065 352.976C32.001 354.179 32.969 355.836 32.969 357.948C32.969 359.679 32.5583 361.145 31.737 362.348C30.945 363.551 29.9183 364.46 28.657 365.076C27.425 365.692 26.149 366.235 24.829 366.704C23.5383 367.144 22.2623 367.672 21.001 368.288C19.769 368.875 18.889 369.564 18.361 370.356C19.065 369.769 19.9743 369.476 21.089 369.476C22.2036 369.476 23.465 369.667 24.873 370.048C26.3103 370.429 27.4396 370.62 28.261 370.62C29.0823 370.62 29.757 370.576 30.285 370.488C30.813 370.4 31.3116 370.151 31.781 369.74C32.2503 369.329 32.529 368.743 32.617 367.98H33.057C33.2916 368.919 33.409 369.843 33.409 370.752ZM23.4548 386.128C31.0228 386.128 34.8068 390.469 34.8068 399.152C34.8068 403.347 33.7361 406.632 31.5948 409.008C29.4828 411.355 26.3881 412.528 22.3108 412.528C20.8148 412.528 19.3041 412.161 17.7788 411.428C16.2828 410.665 15.3001 409.551 14.8308 408.084C14.4201 407.028 14.3468 406.016 14.6108 405.048C14.8748 404.08 15.4468 403.42 16.3268 403.068C17.2068 402.687 18.0281 402.628 18.7908 402.892C19.5535 403.127 20.0961 403.596 20.4188 404.3C20.8295 405.444 20.8441 406.28 20.4628 406.808C20.1108 407.307 19.6561 407.849 19.0988 408.436C18.5708 408.993 18.3655 409.507 18.4828 409.976C18.6295 410.416 19.0988 410.783 19.8908 411.076C20.6828 411.34 21.4308 411.472 22.1348 411.472C22.8388 411.472 23.4255 411.413 23.8948 411.296C24.3935 411.149 24.8188 411.003 25.1708 410.856C25.5521 410.68 25.8748 410.401 26.1388 410.02C26.4321 409.609 26.6668 409.272 26.8428 409.008C27.0481 408.715 27.2095 408.26 27.3268 407.644C27.4441 406.999 27.5321 406.5 27.5908 406.148C27.6788 405.767 27.7375 405.165 27.7668 404.344C27.7961 403.493 27.8108 402.877 27.8108 402.496V399.548C26.4321 400.721 24.5401 401.308 22.1348 401.308C19.7295 401.308 17.7055 400.707 16.0628 399.504C14.4495 398.272 13.6428 396.468 13.6428 394.092C13.6428 391.716 14.4935 389.795 16.1948 388.328C17.9255 386.861 20.3455 386.128 23.4548 386.128ZM19.8028 393.872C19.8028 395.72 20.1548 397.187 20.8588 398.272C21.5921 399.357 22.6481 399.9 24.0268 399.9C25.4055 399.9 26.6668 399.372 27.8108 398.316C27.7815 394.385 27.4001 391.525 26.6668 389.736C25.9628 387.917 24.8775 387.008 23.4108 387.008C21.0055 387.008 19.8028 389.296 19.8028 393.872ZM22.1879 421.172C28.8759 421.172 32.2199 423.196 32.2199 427.244C32.2199 428.857 31.5746 430.221 30.2839 431.336C29.0226 432.451 27.2039 433.067 24.8279 433.184C27.4973 433.213 29.6533 433.815 31.2959 434.988C32.9679 436.161 33.8039 437.76 33.8039 439.784C33.8039 442.277 32.7919 444.228 30.7679 445.636C28.7733 447.015 25.9426 447.704 22.2759 447.704C19.7239 447.704 17.7293 447.147 16.2919 446.032C14.8839 444.888 14.1799 443.377 14.1799 441.5C14.1799 440.327 14.4879 439.373 15.1039 438.64C15.7493 437.907 16.5853 437.54 17.6119 437.54C18.6386 437.54 19.4306 437.819 19.9879 438.376C20.5746 438.933 20.8679 439.623 20.8679 440.444C20.8679 441.236 20.6479 441.867 20.2079 442.336C19.7679 442.805 19.2839 443.099 18.7559 443.216C17.3773 443.539 16.6879 444.008 16.6879 444.624C16.6879 445.211 17.0986 445.695 17.9199 446.076C18.7706 446.457 19.7386 446.648 20.8239 446.648C22.5253 446.648 23.9039 446.032 24.9599 444.8C26.0159 443.568 26.5439 441.911 26.5439 439.828C26.5439 437.716 26.0746 436.161 25.1359 435.164C24.2266 434.167 22.5546 433.668 20.1199 433.668H19.4159V432.788H20.1199C21.9973 432.788 23.3466 432.231 24.1679 431.116C24.9893 429.972 25.3999 428.681 25.3999 427.244C25.3999 425.807 24.9893 424.604 24.1679 423.636C23.3466 422.668 22.3053 422.184 21.0439 422.184C19.7826 422.184 18.8293 422.389 18.1839 422.8C17.5386 423.211 17.2159 423.651 17.2159 424.12C17.2159 424.56 17.3919 424.883 17.7439 425.088C18.1253 425.293 18.5359 425.455 18.9759 425.572C19.4453 425.66 19.8559 425.909 20.2079 426.32C20.5893 426.731 20.7799 427.288 20.7799 427.992C20.7799 428.696 20.5306 429.297 20.0319 429.796C19.5333 430.295 18.8293 430.544 17.9199 430.544C17.0106 430.544 16.2626 430.221 15.6759 429.576C15.0893 428.931 14.7959 428.051 14.7959 426.936C14.7959 425.323 15.4559 423.959 16.7759 422.844C18.1253 421.729 19.9293 421.172 22.1879 421.172Z" fill="white"/>
<path d="M25 198V211" stroke="white" stroke-width="3" stroke-linecap="round"/>
<path d="M24 292V305" stroke="white" stroke-width="3" stroke-linecap="round"/>
</svg>
