<svg width="587" height="152" viewBox="0 0 587 152" fill="none" xmlns="http://www.w3.org/2000/svg">
<path d="M288 43.68C287.48 47.8 286.68 52.48 285.36 56.92C282.92 65.08 279.64 69.64 275.64 69.64C271.68 69.64 268.08 65.2 268.08 58.52C268.08 49.6 275.92 41.88 285.96 41.88C295.56 41.88 301.64 48.6 301.64 57C301.64 65.4 296.28 71.16 286.52 72.52L284.16 68.8C285.56 68.64 286.72 68.44 287.72 68.24C292.84 67.04 297.44 63.28 297.44 56.84C297.44 50.48 293.24 45.56 285.88 45.56C277.2 45.56 272.08 52.64 272.08 58.16C272.08 62.76 274.08 64.88 275.76 64.88C277.56 64.88 279.44 62.24 281.32 56.08C282.48 52.28 283.36 47.72 283.76 43.56L288 43.68Z" fill="#098BDE"/>
<path d="M405.56 46.68C407.04 46.44 408.72 45.96 410.2 45.52C413.44 44.48 421.44 41.6 427.28 41.6C434.16 41.6 439.64 45.6 439.64 52.6C439.64 61.96 430.48 67.08 417.4 67.8L415.56 63.6C426.2 63.32 435.16 60.16 435.16 52.52C435.16 48.52 432.28 45.4 427.16 45.4C420.88 45.4 411 49.6 407.4 51.12L405.56 46.68ZM466 40.68C465.48 44.8 464.68 49.48 463.36 53.92C460.92 62.08 457.64 66.64 453.64 66.64C449.68 66.64 446.08 62.2 446.08 55.52C446.08 46.6 453.92 38.88 463.96 38.88C473.56 38.88 479.64 45.6 479.64 54C479.64 62.4 474.28 68.16 464.52 69.52L462.16 65.8C463.56 65.64 464.72 65.44 465.72 65.24C470.84 64.04 475.44 60.28 475.44 53.84C475.44 47.48 471.24 42.56 463.88 42.56C455.2 42.56 450.08 49.64 450.08 55.16C450.08 59.76 452.08 61.88 453.76 61.88C455.56 61.88 457.44 59.24 459.32 53.08C460.48 49.28 461.36 44.72 461.76 40.56L466 40.68ZM505.88 29.312H530.684V33.836H505.88V29.312ZM502.812 39.452H533.024V44.028H502.812V39.452ZM503.8 49.592H532.66V54.168H503.8V49.592ZM515.708 24.06H520.596V41.948H515.708V24.06ZM522.052 43.456H526.94V66.648C526.94 69.352 526.368 70.756 524.548 71.536C522.676 72.264 519.816 72.368 515.864 72.368C515.656 70.964 515.032 68.832 514.356 67.48C517.216 67.584 520.076 67.584 520.96 67.532C521.792 67.48 522.052 67.324 522.052 66.596V43.456ZM506.14 57.236L509.78 55C512.276 57.392 515.084 60.772 516.332 63.112L512.38 65.66C511.288 63.32 508.532 59.784 506.14 57.236ZM484.612 52.14C489.604 50.944 497.092 48.76 504.216 46.68L504.84 50.996C498.288 53.128 491.216 55.26 485.86 56.872L484.612 52.14ZM494.18 24.164H498.704V72.368H494.18V24.164ZM487.524 26.868L491.736 27.596C491.008 34.46 489.708 41.584 487.784 46.264C487.056 45.64 485.184 44.548 484.196 44.028C486.016 39.712 487.004 33.16 487.524 26.868ZM488.356 34.356H503.644V39.036H487.472L488.356 34.356ZM572.544 34.408H585.336V38.568H571.4L572.544 34.408ZM572.44 24.112L576.964 24.84C575.508 34.252 573.012 43.404 568.956 49.332C568.384 48.396 566.824 46.368 565.888 45.484C569.424 40.336 571.348 32.328 572.44 24.112ZM556.944 24.164H561V40.232H556.944V24.164ZM550.236 28.48H553.668V38.1H564.328V28.532H567.916V41.948H550.236V28.48ZM550.236 45.588H567.396V49.488H550.236V45.588ZM551.12 53.804H567.032V57.6H551.12V53.804ZM549.04 63.268C553.824 62.904 561.052 62.28 568.176 61.604L568.228 65.452C561.624 66.232 554.812 66.96 549.768 67.532L549.04 63.268ZM556.892 47.512H561.104V63.944L556.892 64.516V47.512ZM573.272 38.672C574.78 51.932 578.108 63.372 585.908 68.52C584.868 69.3 583.464 71.016 582.788 72.212C574.78 66.024 571.556 53.908 569.944 39.14L573.272 38.672ZM578.784 36.8L583.152 37.06C581.592 54.74 577.536 65.816 566.148 72.524C565.628 71.692 563.964 70.028 563.08 69.196C574.052 63.476 577.64 52.972 578.784 36.8ZM544.984 24.112L549.404 25.776C546.752 30.092 542.592 34.876 538.744 38.048C538.172 37.008 536.976 35.188 536.196 34.304C539.472 31.652 543.164 27.44 544.984 24.112ZM545.972 34.772L550.236 36.28C547.272 42.52 542.696 49.228 538.432 53.544C537.964 52.556 536.56 50.216 535.728 49.176C539.524 45.536 543.476 40.128 545.972 34.772ZM542.28 45.068L546.752 40.596V40.648V72.368H542.28V45.068Z" fill="#098BDE"/>
<g filter="url(#filter0_d_1201_19)">
<rect x="318" y="4" width="76" height="76" rx="38" fill="#ADE1DB" shape-rendering="crispEdges"/>
<path d="M375.88 19.28C375.88 19.5467 375.667 20.0267 375.24 20.72C369.853 27.5467 365.027 34.88 360.76 42.72C358.413 47.04 356.547 51.4933 355.16 56.08C353.773 60.6667 353.08 64.96 353.08 68.96C353.08 69.44 352.947 69.7867 352.68 70C352.04 70.4267 350.947 71.04 349.4 71.84C347.907 72.64 346.973 73.0667 346.6 73.12C346.28 73.12 346.12 72.1067 346.12 70.08C346.12 68.1067 346.44 65.6 347.08 62.56C347.72 59.5733 348.733 56.6133 350.12 53.68C351.56 50.6933 352.893 48.0533 354.12 45.76C355.4 43.4133 357.16 40.7733 359.4 37.84C362.6 33.4667 366.013 29.0933 369.64 24.72H358.52C353.613 24.72 350.12 24.8533 348.04 25.12C345.96 25.3867 344.387 26 343.32 26.96C343.053 27.1733 342.6 27.92 341.96 29.2C341.853 29.36 341.587 29.44 341.16 29.44C340.787 29.44 340.387 29.3333 339.96 29.12C339.587 28.9067 339.4 28.72 339.4 28.56C339.4 28.4 339.507 28.1333 339.72 27.76L340.68 25.76C341.16 24.8 341.853 23.2 342.76 20.96C343.667 18.6667 344.253 17.0933 344.52 16.24C344.627 16.08 344.813 16 345.08 16C345.347 16 345.693 16.1333 346.12 16.4C346.6 16.6133 346.84 16.8267 346.84 17.04L346.36 18.64H363.88C366.44 18.64 368.84 18.56 371.08 18.4C373.32 18.24 374.52 18.16 374.68 18.16C375.48 18.16 375.88 18.5333 375.88 19.28Z" fill="#FF5959"/>
</g>
<path d="M70.9609 118.25C71.5078 117.156 72.0547 116.076 72.6016 115.008C73.1484 113.914 73.6432 112.898 74.0859 111.961C74.5286 111.023 74.9062 110.19 75.2188 109.461C75.5312 108.706 75.7135 108.107 75.7656 107.664C75.8177 107.195 75.7786 106.792 75.6484 106.453C75.5182 106.115 75.2969 105.841 74.9844 105.633C74.6979 105.424 74.3464 105.268 73.9297 105.164C73.5391 105.034 73.0964 104.956 72.6016 104.93C71.7422 104.878 70.7135 104.904 69.5156 105.008C68.3438 105.086 67.2109 105.255 66.1172 105.516C65.0234 105.75 64.0729 106.089 63.2656 106.531C62.4844 106.974 62.0677 107.521 62.0156 108.172C61.9896 108.536 62.0547 108.862 62.2109 109.148C62.3411 109.383 62.5755 109.604 62.9141 109.812C63.2786 110.021 63.8125 110.099 64.5156 110.047C64.6458 110.047 64.8021 110.034 64.9844 110.008C65.1406 109.982 65.3359 109.956 65.5703 109.93C65.8047 109.878 66.0781 109.812 66.3906 109.734L64.4766 112.312C64.112 112.833 63.7214 113.146 63.3047 113.25C62.888 113.354 62.5104 113.38 62.1719 113.328C61.9896 113.302 61.625 113.211 61.0781 113.055C60.5573 112.898 60.0234 112.664 59.4766 112.352C58.9557 112.039 58.5 111.622 58.1094 111.102C57.7188 110.555 57.5625 109.878 57.6406 109.07C57.7448 108.133 58.1484 107.273 58.8516 106.492C59.5547 105.685 60.5312 104.995 61.7812 104.422C63.0573 103.849 64.5677 103.406 66.3125 103.094C68.0833 102.781 70.0755 102.625 72.2891 102.625C73.9557 102.625 75.2839 102.807 76.2734 103.172C77.263 103.51 77.9792 103.966 78.4219 104.539C78.8906 105.086 79.112 105.737 79.0859 106.492C79.0859 107.221 78.9297 107.977 78.6172 108.758C78.4609 109.122 78.2266 109.63 77.9141 110.281C77.6276 110.906 77.276 111.648 76.8594 112.508C76.4427 113.341 76 114.266 75.5312 115.281C75.0625 116.297 74.5938 117.352 74.125 118.445C74.8281 118.497 75.4661 118.562 76.0391 118.641C76.638 118.719 77.1068 118.784 77.4453 118.836C77.8359 118.94 77.9661 119.109 77.8359 119.344C77.6016 119.812 77.3672 120.164 77.1328 120.398C76.9245 120.633 76.6901 120.802 76.4297 120.906C76.1693 120.984 75.8828 121.023 75.5703 121.023C75.2578 120.997 74.9062 120.971 74.5156 120.945C74.2812 120.945 74.0469 120.945 73.8125 120.945C73.5781 120.919 73.3307 120.893 73.0703 120.867C72.5755 122.039 72.0938 123.198 71.625 124.344C71.1823 125.49 70.7656 126.583 70.375 127.625C70.0104 128.641 69.6849 129.578 69.3984 130.438C69.112 131.297 68.9167 132.013 68.8125 132.586C68.6562 133.393 68.5391 134.148 68.4609 134.852C68.4089 135.451 68.3828 136.076 68.3828 136.727C68.3828 137.378 68.487 137.898 68.6953 138.289C68.1484 138.445 67.6667 138.576 67.25 138.68C66.8594 138.784 66.5208 138.862 66.2344 138.914C65.9219 138.992 65.6615 139.057 65.4531 139.109C64.724 139.292 64.2031 139.266 63.8906 139.031C63.6042 138.823 63.526 138.302 63.6562 137.469C63.7083 136.896 63.7865 136.245 63.8906 135.516C64.0208 134.812 64.2031 134.005 64.4375 133.094C64.6979 132.208 65.0234 131.219 65.4141 130.125C65.8307 129.005 66.3516 127.768 66.9766 126.414C67.3411 125.633 67.7578 124.773 68.2266 123.836C68.6953 122.872 69.1901 121.844 69.7109 120.75C68.5651 120.75 67.3281 120.828 66 120.984C65.2708 121.089 64.5547 121.206 63.8516 121.336C63.2526 121.466 62.6016 121.622 61.8984 121.805C61.2214 121.961 60.5833 122.143 59.9844 122.352C59.9062 122.143 59.8542 121.935 59.8281 121.727C59.8281 121.518 59.8411 121.323 59.8672 121.141C59.8932 120.958 59.9323 120.776 59.9844 120.594C60.0365 120.411 60.1146 120.229 60.2188 120.047C60.375 119.734 60.6224 119.344 60.9609 118.875C62.1849 118.719 63.3568 118.602 64.4766 118.523C65.5964 118.445 66.5859 118.38 67.4453 118.328C68.4609 118.276 69.4115 118.25 70.2969 118.25C70.4271 118.224 70.5312 118.224 70.6094 118.25C70.7135 118.25 70.8307 118.25 70.9609 118.25ZM97.1328 123.875C96.3516 125.021 95.4661 126.141 94.4766 127.234C93.487 128.302 92.4323 129.266 91.3125 130.125C90.2188 130.958 89.0859 131.635 87.9141 132.156C86.7682 132.677 85.6484 132.938 84.5547 132.938C83.9818 132.938 83.3568 132.794 82.6797 132.508C82.0286 132.247 81.4297 131.831 80.8828 131.258C80.3359 130.685 79.8932 129.943 79.5547 129.031C79.2422 128.12 79.151 127.013 79.2812 125.711C79.3854 124.643 79.7109 123.523 80.2578 122.352C80.8307 121.154 81.5208 120.06 82.3281 119.07C83.1615 118.081 84.0859 117.26 85.1016 116.609C86.1432 115.958 87.1849 115.633 88.2266 115.633C89.2161 115.633 89.9323 115.88 90.375 116.375C90.8177 116.87 91.013 117.482 90.9609 118.211C90.8828 119.018 90.6484 119.76 90.2578 120.438C89.8932 121.115 89.4505 121.727 88.9297 122.273C88.4089 122.82 87.849 123.315 87.25 123.758C86.6771 124.201 86.1302 124.604 85.6094 124.969C85.0365 125.359 84.4896 125.737 83.9688 126.102C83.4479 126.44 82.9922 126.753 82.6016 127.039C82.6276 127.69 82.7448 128.237 82.9531 128.68C83.1615 129.122 83.4219 129.487 83.7344 129.773C84.0469 130.034 84.3984 130.229 84.7891 130.359C85.2057 130.464 85.6224 130.516 86.0391 130.516C86.9245 130.516 87.849 130.242 88.8125 129.695C89.776 129.122 90.7135 128.445 91.625 127.664C92.5625 126.857 93.4219 126.023 94.2031 125.164C95.0104 124.305 95.6745 123.562 96.1953 122.938C96.3776 122.729 96.5599 122.612 96.7422 122.586C96.9505 122.534 97.1068 122.56 97.2109 122.664C97.3411 122.742 97.4062 122.898 97.4062 123.133C97.4062 123.341 97.3151 123.589 97.1328 123.875ZM87.1328 117.859C86.8203 117.859 86.4427 118.016 86 118.328C85.5833 118.641 85.1667 119.096 84.75 119.695C84.3333 120.268 83.9427 120.984 83.5781 121.844C83.2135 122.677 82.9401 123.641 82.7578 124.734C83.0703 124.5 83.4089 124.266 83.7734 124.031C84.138 123.771 84.5026 123.497 84.8672 123.211C85.987 122.352 86.7682 121.596 87.2109 120.945C87.6536 120.294 87.901 119.734 87.9531 119.266C88.0052 118.771 87.9531 118.419 87.7969 118.211C87.6406 117.977 87.4193 117.859 87.1328 117.859ZM114.359 124.227C113.995 124.747 113.526 125.398 112.953 126.18C112.38 126.935 111.781 127.703 111.156 128.484C110.557 129.24 109.958 129.943 109.359 130.594C108.786 131.219 108.305 131.661 107.914 131.922C107.654 132.078 107.354 132.208 107.016 132.312C106.677 132.417 106.326 132.482 105.961 132.508C105.622 132.534 105.297 132.508 104.984 132.43C104.672 132.378 104.398 132.273 104.164 132.117C103.93 131.935 103.734 131.674 103.578 131.336C103.448 131.049 103.318 130.672 103.188 130.203C103.083 129.734 103.044 129.148 103.07 128.445C102.445 129.487 101.755 130.294 101 130.867C100.245 131.414 99.5286 131.818 98.8516 132.078C98.0703 132.365 97.2891 132.534 96.5078 132.586C96.1432 132.586 95.7526 132.456 95.3359 132.195C94.9193 131.961 94.5677 131.583 94.2812 131.062C93.9948 130.516 93.8125 129.826 93.7344 128.992C93.6562 128.133 93.7604 127.117 94.0469 125.945C94.4115 124.357 94.9844 122.911 95.7656 121.609C96.5729 120.307 97.4453 119.201 98.3828 118.289C99.3203 117.352 100.245 116.648 101.156 116.18C102.068 115.711 102.823 115.503 103.422 115.555C104.125 115.685 104.698 115.893 105.141 116.18C105.505 116.44 105.74 116.831 105.844 117.352C105.974 117.846 105.766 118.51 105.219 119.344C105.583 119.266 105.883 119.214 106.117 119.188C106.378 119.161 106.573 119.148 106.703 119.148C106.859 119.148 106.964 119.161 107.016 119.188C107.042 119.24 107.055 119.357 107.055 119.539C107.055 119.695 107.016 119.995 106.938 120.438C106.859 120.88 106.742 121.479 106.586 122.234C106.43 122.99 106.221 123.966 105.961 125.164C105.909 125.398 105.857 125.62 105.805 125.828C105.779 126.01 105.74 126.206 105.688 126.414C105.661 126.596 105.622 126.818 105.57 127.078C105.518 127.339 105.453 127.664 105.375 128.055C105.349 128.289 105.336 128.549 105.336 128.836C105.362 129.096 105.414 129.344 105.492 129.578C105.57 129.812 105.688 130.008 105.844 130.164C106.026 130.294 106.273 130.359 106.586 130.359C106.846 130.359 107.185 130.203 107.602 129.891C108.018 129.552 108.461 129.135 108.93 128.641C109.398 128.12 109.88 127.56 110.375 126.961C110.896 126.336 111.378 125.737 111.82 125.164C112.263 124.591 112.654 124.083 112.992 123.641C113.357 123.198 113.617 122.872 113.773 122.664C113.982 122.43 114.19 122.299 114.398 122.273C114.607 122.221 114.763 122.273 114.867 122.43C114.971 122.586 114.984 122.82 114.906 123.133C114.854 123.445 114.672 123.81 114.359 124.227ZM102.914 125.945C103.044 125.424 103.201 124.812 103.383 124.109C103.565 123.406 103.721 122.729 103.852 122.078C103.982 121.427 104.073 120.893 104.125 120.477C104.203 120.034 104.19 119.826 104.086 119.852C103.956 119.878 103.812 119.917 103.656 119.969C103.526 120.021 103.357 120.06 103.148 120.086C102.94 120.112 102.732 120.151 102.523 120.203C102.732 119.786 102.849 119.448 102.875 119.188C102.927 118.901 102.94 118.68 102.914 118.523C102.888 118.341 102.836 118.198 102.758 118.094C102.471 117.859 101.964 118.055 101.234 118.68C100.531 119.279 99.7109 120.398 98.7734 122.039C98.3828 122.716 98.0703 123.445 97.8359 124.227C97.6016 124.982 97.4323 125.698 97.3281 126.375C97.25 127.052 97.237 127.651 97.2891 128.172C97.3411 128.667 97.4453 128.992 97.6016 129.148C97.888 129.435 98.2135 129.578 98.5781 129.578C98.9427 129.552 99.3073 129.448 99.6719 129.266C100.062 129.057 100.44 128.797 100.805 128.484C101.195 128.172 101.534 127.846 101.82 127.508C102.133 127.169 102.38 126.857 102.562 126.57C102.771 126.284 102.888 126.076 102.914 125.945ZM126.156 122.117C126.26 121.961 126.391 121.87 126.547 121.844C126.729 121.792 126.872 121.805 126.977 121.883C127.081 121.961 127.133 122.091 127.133 122.273C127.159 122.456 127.094 122.703 126.938 123.016C126.417 124.005 125.727 125.073 124.867 126.219C124.034 127.365 123.148 128.445 122.211 129.461C121.273 130.451 120.362 131.271 119.477 131.922C118.591 132.573 117.849 132.898 117.25 132.898C116.391 132.898 115.674 132.729 115.102 132.391C114.529 132.052 114.073 131.635 113.734 131.141C113.422 130.646 113.201 130.112 113.07 129.539C112.94 128.94 112.901 128.393 112.953 127.898C112.979 127.482 113.07 126.74 113.227 125.672C113.383 124.578 113.591 123.328 113.852 121.922C114.112 120.49 114.398 118.966 114.711 117.352C115.049 115.711 115.401 114.135 115.766 112.625C115.323 112.677 114.88 112.729 114.438 112.781C113.995 112.833 113.591 112.859 113.227 112.859C112.393 112.859 111.612 112.768 110.883 112.586C110.128 112.378 109.568 112.182 109.203 112C108.995 111.896 108.904 111.753 108.93 111.57C108.956 111.362 109.034 111.167 109.164 110.984C109.294 110.776 109.464 110.607 109.672 110.477C109.854 110.32 110.023 110.242 110.18 110.242C110.674 110.294 111.208 110.346 111.781 110.398C112.354 110.424 112.979 110.424 113.656 110.398C114.151 110.372 114.62 110.333 115.062 110.281C115.531 110.229 115.987 110.164 116.43 110.086C116.768 108.836 117.094 107.755 117.406 106.844C117.745 105.906 118.044 105.255 118.305 104.891C118.383 104.76 118.552 104.656 118.812 104.578C119.099 104.474 119.398 104.409 119.711 104.383C120.023 104.331 120.323 104.331 120.609 104.383C120.896 104.409 121.104 104.5 121.234 104.656C121.365 104.865 121.417 105.398 121.391 106.258C121.365 107.117 121.221 108.211 120.961 109.539C122.055 109.539 123.018 109.604 123.852 109.734C124.711 109.839 125.44 109.969 126.039 110.125C126.638 110.255 127.12 110.398 127.484 110.555C127.849 110.685 128.122 110.776 128.305 110.828C128.487 110.88 128.578 111.01 128.578 111.219C128.604 111.427 128.565 111.648 128.461 111.883C128.383 112.091 128.24 112.273 128.031 112.43C127.823 112.586 127.589 112.638 127.328 112.586C127.068 112.56 126.768 112.508 126.43 112.43C126.117 112.352 125.727 112.286 125.258 112.234C124.815 112.182 124.281 112.13 123.656 112.078C123.031 112.026 122.302 112 121.469 112C121.312 112 121.13 112.013 120.922 112.039C120.74 112.039 120.544 112.039 120.336 112.039C120.232 112.456 120.128 112.872 120.023 113.289C119.945 113.68 119.828 114.096 119.672 114.539C119.333 115.581 118.943 116.714 118.5 117.938C118.109 119.005 117.641 120.229 117.094 121.609C116.547 122.99 115.935 124.461 115.258 126.023C115.102 127.143 115.115 128.003 115.297 128.602C115.505 129.174 115.753 129.591 116.039 129.852C116.378 130.138 116.794 130.294 117.289 130.32C117.68 130.372 118.148 130.242 118.695 129.93C119.268 129.591 119.854 129.148 120.453 128.602C121.052 128.055 121.651 127.456 122.25 126.805C122.875 126.154 123.448 125.516 123.969 124.891C124.49 124.266 124.945 123.706 125.336 123.211C125.727 122.69 126 122.326 126.156 122.117ZM128.656 132.625C127.667 132.625 126.859 132.469 126.234 132.156C125.609 131.844 125.115 131.466 124.75 131.023C124.411 130.555 124.164 130.06 124.008 129.539C123.878 128.992 123.812 128.497 123.812 128.055C123.812 127.273 123.878 126.453 124.008 125.594C124.138 124.708 124.294 123.901 124.477 123.172C124.659 122.417 124.815 121.779 124.945 121.258C125.102 120.737 125.206 120.411 125.258 120.281C125.492 119.526 125.792 118.875 126.156 118.328C126.547 117.755 127.081 117.365 127.758 117.156C128.018 117.104 128.292 117.052 128.578 117C128.812 116.974 129.047 116.961 129.281 116.961C129.542 116.961 129.776 117 129.984 117.078C129.281 118.875 128.721 120.372 128.305 121.57C127.914 122.768 127.615 123.745 127.406 124.5C127.172 125.359 127.029 126.049 126.977 126.57C126.846 127.742 126.951 128.628 127.289 129.227C127.628 129.826 128.318 130.125 129.359 130.125C130.036 130.125 130.688 129.878 131.312 129.383C131.938 128.862 132.51 128.198 133.031 127.391C132.953 126.974 132.914 126.544 132.914 126.102C132.914 125.268 132.979 124.461 133.109 123.68C133.266 122.872 133.435 122.13 133.617 121.453C133.826 120.75 134.034 120.125 134.242 119.578C134.477 119.031 134.672 118.602 134.828 118.289C135.115 117.664 135.375 117.286 135.609 117.156C135.844 117 136.221 116.909 136.742 116.883C136.951 116.857 137.12 116.857 137.25 116.883C137.406 116.883 137.536 116.896 137.641 116.922C137.953 117 138.109 117.156 138.109 117.391C138.109 117.807 138.083 118.432 138.031 119.266C137.979 120.099 137.823 120.958 137.562 121.844C137.38 122.573 137.198 123.198 137.016 123.719C136.859 124.214 136.703 124.643 136.547 125.008C136.391 125.346 136.234 125.633 136.078 125.867C135.922 126.076 135.779 126.271 135.648 126.453C135.701 127.234 135.766 127.859 135.844 128.328C135.922 128.797 136.013 129.161 136.117 129.422C136.247 129.656 136.391 129.826 136.547 129.93C136.729 130.008 136.924 130.047 137.133 130.047C137.497 130.047 137.927 129.878 138.422 129.539C138.917 129.174 139.424 128.732 139.945 128.211C140.492 127.664 141.026 127.078 141.547 126.453C142.094 125.802 142.589 125.19 143.031 124.617C143.474 124.044 143.852 123.549 144.164 123.133C144.477 122.69 144.672 122.417 144.75 122.312C144.932 122.078 145.102 121.935 145.258 121.883C145.44 121.831 145.583 121.857 145.688 121.961C145.792 122.039 145.844 122.182 145.844 122.391C145.87 122.573 145.818 122.781 145.688 123.016C145.167 124.005 144.516 125.06 143.734 126.18C142.979 127.273 142.159 128.289 141.273 129.227C140.414 130.164 139.542 130.945 138.656 131.57C137.771 132.195 136.938 132.508 136.156 132.508C135.453 132.508 134.893 132.273 134.477 131.805C134.086 131.31 133.747 130.607 133.461 129.695C132.862 130.633 132.159 131.362 131.352 131.883C130.544 132.378 129.646 132.625 128.656 132.625ZM141.078 131.805C140.896 132.091 140.701 132.273 140.492 132.352C140.258 132.456 140.062 132.469 139.906 132.391C139.724 132.339 139.607 132.208 139.555 132C139.503 131.792 139.555 131.531 139.711 131.219C139.789 131.062 139.971 130.711 140.258 130.164C140.518 129.617 140.844 128.966 141.234 128.211C141.599 127.43 142.003 126.596 142.445 125.711C142.888 124.799 143.305 123.94 143.695 123.133C144.112 122.326 144.49 121.609 144.828 120.984C145.167 120.333 145.414 119.865 145.57 119.578C145.284 119.318 145.089 119.135 144.984 119.031C144.88 118.901 144.802 118.641 144.75 118.25C144.698 117.911 144.776 117.469 144.984 116.922C145.193 116.375 145.466 115.854 145.805 115.359C146.143 114.839 146.521 114.396 146.938 114.031C147.354 113.667 147.758 113.484 148.148 113.484C148.878 113.484 149.385 113.719 149.672 114.188C149.984 114.656 150.167 115.138 150.219 115.633C150.271 115.971 150.245 116.401 150.141 116.922C150.036 117.443 149.841 117.911 149.555 118.328C149.633 118.38 149.737 118.445 149.867 118.523C149.997 118.576 150.206 118.602 150.492 118.602C150.909 118.602 151.195 118.576 151.352 118.523C151.534 118.471 151.807 118.445 152.172 118.445C152.615 118.445 152.979 118.562 153.266 118.797C153.552 119.005 153.786 119.279 153.969 119.617C154.151 119.93 154.281 120.281 154.359 120.672C154.464 121.036 154.529 121.375 154.555 121.688C154.633 122.339 154.464 123.016 154.047 123.719C153.63 124.422 153.122 125.19 152.523 126.023C152.159 126.544 151.794 127.13 151.43 127.781C151.065 128.432 150.909 129.018 150.961 129.539C151.013 129.878 151.104 130.151 151.234 130.359C151.365 130.568 151.729 130.672 152.328 130.672C152.771 130.672 153.253 130.516 153.773 130.203C154.32 129.865 154.867 129.448 155.414 128.953C155.987 128.432 156.547 127.872 157.094 127.273C157.641 126.648 158.148 126.049 158.617 125.477C159.086 124.878 159.477 124.344 159.789 123.875C160.128 123.406 160.375 123.068 160.531 122.859C160.661 122.651 160.831 122.508 161.039 122.43C161.247 122.352 161.43 122.352 161.586 122.43C161.742 122.508 161.833 122.664 161.859 122.898C161.911 123.133 161.82 123.445 161.586 123.836C161.43 124.096 161.156 124.513 160.766 125.086C160.401 125.659 159.945 126.297 159.398 127C158.878 127.703 158.292 128.432 157.641 129.188C156.99 129.917 156.299 130.594 155.57 131.219C154.867 131.818 154.151 132.312 153.422 132.703C152.719 133.094 152.042 133.289 151.391 133.289C150.714 133.289 150.154 133.159 149.711 132.898C149.268 132.638 148.904 132.326 148.617 131.961C148.357 131.57 148.161 131.154 148.031 130.711C147.927 130.242 147.888 129.812 147.914 129.422C147.94 129.109 148.018 128.784 148.148 128.445C148.305 128.081 148.474 127.716 148.656 127.352C148.865 126.961 149.073 126.583 149.281 126.219C149.516 125.828 149.724 125.451 149.906 125.086C150.349 124.331 150.701 123.693 150.961 123.172C151.247 122.625 151.391 122.169 151.391 121.805C151.391 121.57 151.339 121.362 151.234 121.18C151.13 120.997 150.961 120.906 150.727 120.906C150.57 120.906 150.453 120.919 150.375 120.945C150.323 120.945 150.258 120.945 150.18 120.945C150.128 120.945 150.036 120.958 149.906 120.984C149.802 120.984 149.633 120.984 149.398 120.984C149.06 120.984 148.773 120.932 148.539 120.828C148.305 120.724 148.083 120.646 147.875 120.594C147.771 120.776 147.536 121.167 147.172 121.766C146.807 122.365 146.378 123.068 145.883 123.875C145.414 124.682 144.906 125.529 144.359 126.414C143.839 127.299 143.344 128.133 142.875 128.914C142.406 129.669 142.016 130.32 141.703 130.867C141.365 131.388 141.156 131.701 141.078 131.805ZM176.508 123.875C175.727 125.021 174.841 126.141 173.852 127.234C172.862 128.302 171.807 129.266 170.688 130.125C169.594 130.958 168.461 131.635 167.289 132.156C166.143 132.677 165.023 132.938 163.93 132.938C163.357 132.938 162.732 132.794 162.055 132.508C161.404 132.247 160.805 131.831 160.258 131.258C159.711 130.685 159.268 129.943 158.93 129.031C158.617 128.12 158.526 127.013 158.656 125.711C158.76 124.643 159.086 123.523 159.633 122.352C160.206 121.154 160.896 120.06 161.703 119.07C162.536 118.081 163.461 117.26 164.477 116.609C165.518 115.958 166.56 115.633 167.602 115.633C168.591 115.633 169.307 115.88 169.75 116.375C170.193 116.87 170.388 117.482 170.336 118.211C170.258 119.018 170.023 119.76 169.633 120.438C169.268 121.115 168.826 121.727 168.305 122.273C167.784 122.82 167.224 123.315 166.625 123.758C166.052 124.201 165.505 124.604 164.984 124.969C164.411 125.359 163.865 125.737 163.344 126.102C162.823 126.44 162.367 126.753 161.977 127.039C162.003 127.69 162.12 128.237 162.328 128.68C162.536 129.122 162.797 129.487 163.109 129.773C163.422 130.034 163.773 130.229 164.164 130.359C164.581 130.464 164.997 130.516 165.414 130.516C166.299 130.516 167.224 130.242 168.188 129.695C169.151 129.122 170.089 128.445 171 127.664C171.938 126.857 172.797 126.023 173.578 125.164C174.385 124.305 175.049 123.562 175.57 122.938C175.753 122.729 175.935 122.612 176.117 122.586C176.326 122.534 176.482 122.56 176.586 122.664C176.716 122.742 176.781 122.898 176.781 123.133C176.781 123.341 176.69 123.589 176.508 123.875ZM166.508 117.859C166.195 117.859 165.818 118.016 165.375 118.328C164.958 118.641 164.542 119.096 164.125 119.695C163.708 120.268 163.318 120.984 162.953 121.844C162.589 122.677 162.315 123.641 162.133 124.734C162.445 124.5 162.784 124.266 163.148 124.031C163.513 123.771 163.878 123.497 164.242 123.211C165.362 122.352 166.143 121.596 166.586 120.945C167.029 120.294 167.276 119.734 167.328 119.266C167.38 118.771 167.328 118.419 167.172 118.211C167.016 117.977 166.794 117.859 166.508 117.859ZM179.203 130.672C179.359 130.776 179.555 130.828 179.789 130.828C180.049 130.828 180.297 130.776 180.531 130.672C180.792 130.568 181.026 130.424 181.234 130.242C181.469 130.06 181.638 129.826 181.742 129.539C181.846 129.253 181.846 128.849 181.742 128.328C181.638 127.781 181.469 127.208 181.234 126.609C181.026 125.984 180.792 125.359 180.531 124.734C180.271 124.109 180.049 123.536 179.867 123.016C179.711 122.625 179.581 122.26 179.477 121.922C179.372 121.635 179.268 121.362 179.164 121.102C179.086 120.815 179.021 120.62 178.969 120.516C178.839 120.724 178.604 121.062 178.266 121.531C177.953 122 177.602 122.495 177.211 123.016C176.846 123.51 176.495 123.979 176.156 124.422C175.818 124.839 175.583 125.125 175.453 125.281C175.245 125.516 175.036 125.659 174.828 125.711C174.646 125.737 174.49 125.698 174.359 125.594C174.229 125.464 174.151 125.294 174.125 125.086C174.125 124.852 174.229 124.578 174.438 124.266C174.594 124.057 174.828 123.732 175.141 123.289C175.453 122.82 175.766 122.352 176.078 121.883C176.391 121.388 176.677 120.958 176.938 120.594C177.198 120.203 177.341 119.969 177.367 119.891C177.419 119.682 177.341 119.409 177.133 119.07C176.951 118.732 176.924 118.341 177.055 117.898C177.159 117.534 177.393 117.117 177.758 116.648C178.122 116.154 178.552 115.711 179.047 115.32C179.542 114.93 180.049 114.643 180.57 114.461C181.091 114.253 181.56 114.253 181.977 114.461C182.315 114.669 182.589 114.904 182.797 115.164C183.005 115.398 183.083 115.646 183.031 115.906C182.979 116.036 182.901 116.206 182.797 116.414C182.693 116.622 182.536 116.883 182.328 117.195C182.12 117.482 181.82 117.859 181.43 118.328C181.508 118.927 181.612 119.474 181.742 119.969C181.898 120.464 182.042 120.893 182.172 121.258C182.328 121.701 182.497 122.104 182.68 122.469C182.914 122.938 183.161 123.419 183.422 123.914C183.682 124.409 183.917 124.904 184.125 125.398C184.333 125.867 184.503 126.31 184.633 126.727C184.763 127.143 184.802 127.495 184.75 127.781C184.672 128.224 184.438 128.758 184.047 129.383C183.682 130.008 183.214 130.62 182.641 131.219C182.094 131.792 181.456 132.286 180.727 132.703C180.023 133.12 179.281 133.328 178.5 133.328C177.953 133.328 177.419 133.159 176.898 132.82C176.404 132.482 175.974 132.091 175.609 131.648C175.271 131.18 175.01 130.724 174.828 130.281C174.672 129.839 174.659 129.5 174.789 129.266C174.945 128.953 175.089 128.706 175.219 128.523C175.349 128.341 175.544 128.133 175.805 127.898C175.909 127.82 176.039 127.729 176.195 127.625C176.326 127.547 176.508 127.469 176.742 127.391C176.977 127.312 177.25 127.221 177.562 127.117C177.823 127.924 178.057 128.562 178.266 129.031C178.474 129.474 178.643 129.826 178.773 130.086C178.93 130.372 179.073 130.568 179.203 130.672ZM210.531 125.789C210.271 126.779 209.919 127.703 209.477 128.562C209.034 129.422 208.5 130.164 207.875 130.789C207.276 131.414 206.586 131.896 205.805 132.234C205.049 132.599 204.216 132.781 203.305 132.781C202.237 132.781 201.391 132.547 200.766 132.078C200.167 131.635 199.711 131.076 199.398 130.398C199.112 129.721 198.943 128.979 198.891 128.172C198.812 127.365 198.773 126.609 198.773 125.906C198.773 125.411 198.839 124.865 198.969 124.266C199.073 123.667 199.229 123.055 199.438 122.43C199.646 121.805 199.906 121.18 200.219 120.555C200.557 119.93 200.948 119.357 201.391 118.836C201.547 118.393 201.781 118.003 202.094 117.664C202.432 117.326 202.81 117.052 203.227 116.844C203.669 116.609 204.138 116.44 204.633 116.336C205.128 116.206 205.609 116.141 206.078 116.141C206.156 116.141 206.221 116.154 206.273 116.18C206.352 116.206 206.43 116.232 206.508 116.258C206.846 116.284 207.263 116.414 207.758 116.648C208.279 116.883 208.773 117.234 209.242 117.703C209.737 118.172 210.154 118.771 210.492 119.5C210.831 120.203 211 121.062 211 122.078C211 122.286 210.987 122.547 210.961 122.859C210.935 123.146 210.909 123.393 210.883 123.602C211.482 123.367 212.107 123.081 212.758 122.742C213.409 122.404 214.034 122.052 214.633 121.688C215.258 121.297 215.831 120.906 216.352 120.516C216.872 120.125 217.289 119.773 217.602 119.461C217.862 119.227 218.083 119.096 218.266 119.07C218.448 119.044 218.578 119.096 218.656 119.227C218.734 119.357 218.747 119.539 218.695 119.773C218.643 120.008 218.5 120.268 218.266 120.555C218.135 120.711 217.797 121.023 217.25 121.492C216.729 121.961 216.104 122.469 215.375 123.016C214.646 123.562 213.852 124.096 212.992 124.617C212.133 125.138 211.312 125.529 210.531 125.789ZM203.93 119.852C203.852 120.086 203.812 120.333 203.812 120.594C203.812 121.01 203.839 121.453 203.891 121.922C203.943 122.365 204.073 122.768 204.281 123.133C204.49 123.497 204.815 123.81 205.258 124.07C205.727 124.305 206.365 124.422 207.172 124.422C207.302 124.422 207.432 124.422 207.562 124.422C207.693 124.396 207.823 124.37 207.953 124.344C208.031 124.005 208.096 123.706 208.148 123.445C208.227 123.159 208.266 122.911 208.266 122.703C208.318 122.208 208.318 121.701 208.266 121.18C208.214 120.659 208.109 120.19 207.953 119.773C207.823 119.331 207.641 118.979 207.406 118.719C207.198 118.432 206.938 118.289 206.625 118.289C206.13 118.289 205.648 118.432 205.18 118.719C204.737 118.979 204.32 119.357 203.93 119.852ZM201.43 126.727C201.43 127.195 201.456 127.664 201.508 128.133C201.56 128.576 201.664 128.979 201.82 129.344C201.977 129.682 202.185 129.969 202.445 130.203C202.706 130.411 203.044 130.516 203.461 130.516C203.93 130.516 204.359 130.411 204.75 130.203C205.141 129.969 205.492 129.682 205.805 129.344C206.117 128.979 206.391 128.576 206.625 128.133C206.885 127.664 207.107 127.182 207.289 126.688C207.107 126.714 206.924 126.74 206.742 126.766C206.586 126.766 206.404 126.766 206.195 126.766C205.206 126.766 204.346 126.479 203.617 125.906C202.914 125.307 202.367 124.552 201.977 123.641C201.82 124.188 201.69 124.721 201.586 125.242C201.482 125.763 201.43 126.258 201.43 126.727ZM215.492 127.938C215.206 127.651 214.997 127.378 214.867 127.117C214.763 126.831 214.685 126.557 214.633 126.297C214.581 126.01 214.581 125.724 214.633 125.438C214.737 125.073 214.893 124.734 215.102 124.422C215.284 124.135 215.531 123.849 215.844 123.562C216.156 123.25 216.573 122.964 217.094 122.703C217.432 121.87 217.732 120.997 217.992 120.086C218.279 119.148 218.526 118.302 218.734 117.547C218.969 116.661 219.177 115.776 219.359 114.891C220.01 112.677 220.349 110.88 220.375 109.5C220.401 108.094 220.375 107.169 220.297 106.727C220.271 106.544 220.245 106.362 220.219 106.18C220.167 106.023 220.115 105.854 220.062 105.672C220.036 105.464 219.997 105.268 219.945 105.086C220.232 104.93 220.479 104.799 220.688 104.695C220.922 104.591 221.117 104.513 221.273 104.461C221.456 104.383 221.625 104.331 221.781 104.305C222.38 104.174 222.94 104.109 223.461 104.109C224.008 104.083 224.307 104.174 224.359 104.383C224.385 104.513 224.411 104.747 224.438 105.086C224.49 105.424 224.516 105.841 224.516 106.336C224.516 106.831 224.477 107.391 224.398 108.016C224.32 108.615 224.177 109.253 223.969 109.93C223.786 110.529 223.539 111.362 223.227 112.43C222.94 113.341 222.562 114.565 222.094 116.102C221.625 117.612 221.013 119.552 220.258 121.922C221.039 121.661 221.898 121.414 222.836 121.18C223.773 120.945 224.724 120.75 225.688 120.594C226.677 120.438 227.654 120.32 228.617 120.242C229.607 120.164 230.518 120.151 231.352 120.203C231.508 120.203 231.612 120.281 231.664 120.438C231.742 120.568 231.742 120.711 231.664 120.867C231.612 121.023 231.469 121.18 231.234 121.336C231.026 121.466 230.714 121.544 230.297 121.57C229.776 121.622 229.203 121.688 228.578 121.766C227.953 121.818 227.302 121.909 226.625 122.039C225.974 122.143 225.323 122.286 224.672 122.469C224.021 122.625 223.409 122.82 222.836 123.055C222.393 123.211 221.951 123.367 221.508 123.523C221.143 123.654 220.753 123.81 220.336 123.992C219.945 124.148 219.62 124.292 219.359 124.422L218.461 127.273C219.971 128.341 221.13 129.435 221.938 130.555C222.771 131.674 223.37 132.703 223.734 133.641C224.177 134.734 224.424 135.802 224.477 136.844C224.477 137.99 224.307 139.135 223.969 140.281C223.63 141.453 223.174 142.56 222.602 143.602C222.055 144.669 221.404 145.659 220.648 146.57C219.919 147.482 219.138 148.263 218.305 148.914C217.497 149.565 216.664 150.06 215.805 150.398C214.971 150.737 214.177 150.867 213.422 150.789C212.875 150.737 212.419 150.555 212.055 150.242C211.69 149.956 211.417 149.578 211.234 149.109C211.052 148.667 210.948 148.159 210.922 147.586C210.896 147.039 210.948 146.492 211.078 145.945C211.182 145.398 211.404 144.383 211.742 142.898C212.029 141.648 212.471 139.826 213.07 137.43C213.669 135.06 214.477 131.896 215.492 127.938ZM217.797 129.773C217.432 131.076 217.107 132.273 216.82 133.367C216.56 134.461 216.339 135.424 216.156 136.258C215.922 137.221 215.74 138.094 215.609 138.875C215.375 139.865 215.128 140.841 214.867 141.805C214.633 142.768 214.451 143.628 214.32 144.383C214.164 145.164 214.099 145.789 214.125 146.258C214.151 146.727 214.32 146.961 214.633 146.961C215.388 147.013 216.169 146.714 216.977 146.062C217.81 145.438 218.565 144.63 219.242 143.641C219.919 142.677 220.479 141.622 220.922 140.477C221.365 139.357 221.586 138.315 221.586 137.352C221.586 136.284 221.417 135.229 221.078 134.188C220.844 133.641 220.57 133.107 220.258 132.586C219.971 132.143 219.62 131.674 219.203 131.18C218.812 130.659 218.344 130.19 217.797 129.773ZM251.039 139.305C250.023 139.331 249.19 139.148 248.539 138.758C247.862 138.367 247.341 137.794 246.977 137.039C246.586 136.31 246.339 135.411 246.234 134.344C246.13 133.302 246.13 132.156 246.234 130.906C246.365 129.943 246.599 128.94 246.938 127.898C247.224 127.013 247.667 126.036 248.266 124.969C248.839 123.901 249.62 122.859 250.609 121.844C250.818 121.896 250.987 121.961 251.117 122.039C251.247 122.091 251.352 122.156 251.43 122.234C251.508 122.339 251.56 122.43 251.586 122.508C251.638 122.794 251.56 123.12 251.352 123.484C251.143 123.849 250.935 124.24 250.727 124.656C250.154 125.854 249.724 126.987 249.438 128.055C249.151 129.122 248.969 130.112 248.891 131.023C248.839 131.805 248.852 132.508 248.93 133.133C248.982 133.784 249.073 134.331 249.203 134.773C249.333 135.242 249.477 135.594 249.633 135.828C249.789 136.089 249.932 136.219 250.062 136.219C250.193 136.219 250.323 136.128 250.453 135.945C250.609 135.763 250.753 135.542 250.883 135.281C251.039 135.021 251.221 134.617 251.43 134.07C251.638 133.549 251.859 132.938 252.094 132.234C252.328 131.531 252.549 130.776 252.758 129.969C252.992 129.135 253.201 128.302 253.383 127.469C253.747 125.802 254.138 123.927 254.555 121.844C254.971 119.734 255.583 117.534 256.391 115.242C256.651 114.279 256.977 113.224 257.367 112.078C257.68 111.089 258.07 109.943 258.539 108.641C259.034 107.312 259.594 105.88 260.219 104.344C260.219 104.214 260.323 104.096 260.531 103.992C260.766 103.862 261.026 103.732 261.312 103.602C261.625 103.471 261.977 103.341 262.367 103.211C262.888 103.029 263.292 102.924 263.578 102.898C263.891 102.872 264.125 102.911 264.281 103.016C264.438 103.12 264.542 103.263 264.594 103.445C264.646 103.602 264.672 103.784 264.672 103.992C264.724 104.852 264.75 105.659 264.75 106.414C264.776 107.169 264.802 107.833 264.828 108.406C264.854 109.083 264.867 109.695 264.867 110.242C264.893 110.971 264.854 111.948 264.75 113.172C264.646 114.37 264.529 115.633 264.398 116.961C264.294 118.289 264.19 119.591 264.086 120.867C264.008 122.117 263.995 123.159 264.047 123.992C264.047 124.435 264.06 124.852 264.086 125.242C264.138 125.607 264.19 125.971 264.242 126.336C264.581 125.398 264.958 124.422 265.375 123.406C265.792 122.365 266.208 121.375 266.625 120.438C267.042 119.474 267.432 118.589 267.797 117.781C268.161 116.948 268.448 116.258 268.656 115.711C268.969 114.982 269.385 114.057 269.906 112.938C270.427 111.818 270.948 110.698 271.469 109.578C272.016 108.458 272.51 107.43 272.953 106.492C273.422 105.555 273.76 104.904 273.969 104.539C274.125 104.279 274.385 104.044 274.75 103.836C275.141 103.628 275.544 103.445 275.961 103.289C276.404 103.133 276.807 103.029 277.172 102.977C277.562 102.898 277.823 102.885 277.953 102.938C278.292 103.016 278.526 103.12 278.656 103.25C278.812 103.38 278.904 103.471 278.93 103.523C278.982 103.628 279.021 103.81 279.047 104.07C279.073 104.305 279.06 104.682 279.008 105.203C278.956 105.828 278.799 106.779 278.539 108.055C278.305 109.331 278.005 110.789 277.641 112.43C277.302 114.044 276.924 115.776 276.508 117.625C276.117 119.474 275.74 121.297 275.375 123.094C275.01 124.865 274.685 126.531 274.398 128.094C274.138 129.656 273.969 130.971 273.891 132.039C273.839 133.237 273.917 134.292 274.125 135.203C274.203 135.594 274.32 135.971 274.477 136.336C274.633 136.701 274.841 137.013 275.102 137.273C275.362 137.56 275.674 137.768 276.039 137.898C276.404 138.029 276.833 138.068 277.328 138.016C276.677 138.458 276.039 138.784 275.414 138.992C274.789 139.201 274.177 139.305 273.578 139.305C272.927 139.331 272.354 139.227 271.859 138.992C271.365 138.784 270.948 138.471 270.609 138.055C270.271 137.664 270.023 137.182 269.867 136.609C269.711 136.062 269.659 135.451 269.711 134.773C269.763 134.148 269.932 133.12 270.219 131.688C270.505 130.255 270.844 128.641 271.234 126.844C271.651 125.021 272.094 123.133 272.562 121.18C273.057 119.201 273.513 117.352 273.93 115.633C274.372 113.888 274.75 112.391 275.062 111.141C275.375 109.891 275.57 109.07 275.648 108.68C275.701 108.367 275.74 108.081 275.766 107.82C275.818 107.534 275.87 107.286 275.922 107.078C275.661 107.599 275.336 108.224 274.945 108.953C274.581 109.682 274.19 110.464 273.773 111.297C273.357 112.13 272.927 113.003 272.484 113.914C272.068 114.799 271.664 115.659 271.273 116.492C270.622 117.846 269.984 119.24 269.359 120.672C268.734 122.078 268.174 123.419 267.68 124.695C267.185 125.971 266.768 127.117 266.43 128.133C266.117 129.148 265.935 129.93 265.883 130.477V131.023C265.883 131.18 265.883 131.362 265.883 131.57C265.909 131.779 265.948 131.974 266 132.156L264.438 133.367C264.203 133.445 263.995 133.51 263.812 133.562C263.656 133.615 263.5 133.641 263.344 133.641C262.745 133.641 262.289 133.328 261.977 132.703C261.664 132.13 261.378 131.01 261.117 129.344C260.857 127.677 260.779 125.633 260.883 123.211C260.935 122.013 261.013 120.802 261.117 119.578C261.247 118.354 261.365 117.182 261.469 116.062C261.599 114.943 261.716 113.901 261.82 112.938C261.924 111.948 261.977 111.102 261.977 110.398C262.003 109.878 261.99 109.409 261.938 108.992C261.885 108.549 261.833 108.146 261.781 107.781C261.547 108.38 261.286 109.201 261 110.242C260.714 111.258 260.414 112.391 260.102 113.641C259.789 114.891 259.464 116.206 259.125 117.586C258.812 118.966 258.5 120.294 258.188 121.57C257.901 122.846 257.628 124.031 257.367 125.125C257.107 126.193 256.898 127.052 256.742 127.703C256.482 128.745 256.221 129.93 255.961 131.258C255.701 132.586 255.375 133.836 254.984 135.008C254.594 136.206 254.086 137.208 253.461 138.016C252.836 138.849 252.029 139.279 251.039 139.305ZM288.07 108.992C287.992 109.279 287.836 109.565 287.602 109.852C287.393 110.112 287.146 110.333 286.859 110.516C286.599 110.672 286.326 110.776 286.039 110.828C285.753 110.88 285.518 110.828 285.336 110.672C284.789 110.255 284.503 109.812 284.477 109.344C284.451 108.849 284.568 108.393 284.828 107.977C285.089 107.534 285.414 107.169 285.805 106.883C286.195 106.57 286.534 106.388 286.82 106.336C287.107 106.284 287.341 106.349 287.523 106.531C287.732 106.688 287.888 106.909 287.992 107.195C288.096 107.456 288.148 107.755 288.148 108.094C288.174 108.432 288.148 108.732 288.07 108.992ZM282.68 117.312C282.81 117.156 283.057 117.026 283.422 116.922C283.786 116.818 284.164 116.74 284.555 116.688C284.945 116.609 285.297 116.57 285.609 116.57C285.948 116.544 286.143 116.544 286.195 116.57C286.221 116.596 286.156 116.87 286 117.391C285.844 117.911 285.648 118.523 285.414 119.227C285.18 119.93 284.932 120.659 284.672 121.414C284.411 122.143 284.216 122.742 284.086 123.211C283.956 123.68 283.799 124.214 283.617 124.812C283.435 125.385 283.266 125.958 283.109 126.531C282.979 127.078 282.888 127.599 282.836 128.094C282.784 128.589 282.823 128.966 282.953 129.227C283.083 129.539 283.227 129.76 283.383 129.891C283.539 129.995 283.708 130.047 283.891 130.047C284.411 130.047 285.062 129.76 285.844 129.188C286.651 128.615 287.458 127.938 288.266 127.156C289.099 126.349 289.867 125.542 290.57 124.734C291.273 123.901 291.794 123.237 292.133 122.742C292.341 122.482 292.549 122.312 292.758 122.234C292.992 122.156 293.174 122.169 293.305 122.273C293.461 122.378 293.539 122.547 293.539 122.781C293.565 123.016 293.487 123.289 293.305 123.602C292.888 124.331 292.276 125.203 291.469 126.219C290.661 127.208 289.802 128.172 288.891 129.109C287.979 130.021 287.081 130.802 286.195 131.453C285.336 132.104 284.633 132.443 284.086 132.469C283.643 132.495 283.201 132.417 282.758 132.234C282.341 132.078 281.951 131.857 281.586 131.57C281.247 131.258 280.961 130.906 280.727 130.516C280.492 130.099 280.362 129.669 280.336 129.227C280.258 128.576 280.258 127.69 280.336 126.57C280.414 125.424 280.557 124.266 280.766 123.094C280.974 121.896 281.234 120.763 281.547 119.695C281.885 118.628 282.263 117.833 282.68 117.312ZM295.961 130.672C296.117 130.776 296.312 130.828 296.547 130.828C296.807 130.828 297.055 130.776 297.289 130.672C297.549 130.568 297.784 130.424 297.992 130.242C298.227 130.06 298.396 129.826 298.5 129.539C298.604 129.253 298.604 128.849 298.5 128.328C298.396 127.781 298.227 127.208 297.992 126.609C297.784 125.984 297.549 125.359 297.289 124.734C297.029 124.109 296.807 123.536 296.625 123.016C296.469 122.625 296.339 122.26 296.234 121.922C296.13 121.635 296.026 121.362 295.922 121.102C295.844 120.815 295.779 120.62 295.727 120.516C295.596 120.724 295.362 121.062 295.023 121.531C294.711 122 294.359 122.495 293.969 123.016C293.604 123.51 293.253 123.979 292.914 124.422C292.576 124.839 292.341 125.125 292.211 125.281C292.003 125.516 291.794 125.659 291.586 125.711C291.404 125.737 291.247 125.698 291.117 125.594C290.987 125.464 290.909 125.294 290.883 125.086C290.883 124.852 290.987 124.578 291.195 124.266C291.352 124.057 291.586 123.732 291.898 123.289C292.211 122.82 292.523 122.352 292.836 121.883C293.148 121.388 293.435 120.958 293.695 120.594C293.956 120.203 294.099 119.969 294.125 119.891C294.177 119.682 294.099 119.409 293.891 119.07C293.708 118.732 293.682 118.341 293.812 117.898C293.917 117.534 294.151 117.117 294.516 116.648C294.88 116.154 295.31 115.711 295.805 115.32C296.299 114.93 296.807 114.643 297.328 114.461C297.849 114.253 298.318 114.253 298.734 114.461C299.073 114.669 299.346 114.904 299.555 115.164C299.763 115.398 299.841 115.646 299.789 115.906C299.737 116.036 299.659 116.206 299.555 116.414C299.451 116.622 299.294 116.883 299.086 117.195C298.878 117.482 298.578 117.859 298.188 118.328C298.266 118.927 298.37 119.474 298.5 119.969C298.656 120.464 298.799 120.893 298.93 121.258C299.086 121.701 299.255 122.104 299.438 122.469C299.672 122.938 299.919 123.419 300.18 123.914C300.44 124.409 300.674 124.904 300.883 125.398C301.091 125.867 301.26 126.31 301.391 126.727C301.521 127.143 301.56 127.495 301.508 127.781C301.43 128.224 301.195 128.758 300.805 129.383C300.44 130.008 299.971 130.62 299.398 131.219C298.852 131.792 298.214 132.286 297.484 132.703C296.781 133.12 296.039 133.328 295.258 133.328C294.711 133.328 294.177 133.159 293.656 132.82C293.161 132.482 292.732 132.091 292.367 131.648C292.029 131.18 291.768 130.724 291.586 130.281C291.43 129.839 291.417 129.5 291.547 129.266C291.703 128.953 291.846 128.706 291.977 128.523C292.107 128.341 292.302 128.133 292.562 127.898C292.667 127.82 292.797 127.729 292.953 127.625C293.083 127.547 293.266 127.469 293.5 127.391C293.734 127.312 294.008 127.221 294.32 127.117C294.581 127.924 294.815 128.562 295.023 129.031C295.232 129.474 295.401 129.826 295.531 130.086C295.688 130.372 295.831 130.568 295.961 130.672ZM324.672 123.406C324.854 123.198 325.036 123.094 325.219 123.094C325.427 123.068 325.583 123.12 325.688 123.25C325.818 123.354 325.87 123.523 325.844 123.758C325.844 123.992 325.74 124.253 325.531 124.539C325.036 125.216 324.464 125.919 323.812 126.648C323.161 127.352 322.458 128.042 321.703 128.719C320.974 129.396 320.232 130.034 319.477 130.633C318.721 131.232 317.992 131.727 317.289 132.117C316.508 132.56 315.844 132.781 315.297 132.781C314.776 132.781 314.255 132.443 313.734 131.766C313.266 131.167 313.031 130.529 313.031 129.852C313.057 129.148 313.214 128.276 313.5 127.234C313.682 126.583 313.93 125.815 314.242 124.93C314.581 124.018 314.841 123.146 315.023 122.312C315.232 121.479 315.297 120.776 315.219 120.203C315.141 119.604 314.802 119.305 314.203 119.305C313.786 119.305 313.331 119.448 312.836 119.734C312.367 120.021 311.885 120.398 311.391 120.867C310.922 121.31 310.466 121.818 310.023 122.391C309.581 122.964 309.19 123.523 308.852 124.07C308.643 125.086 308.435 126.089 308.227 127.078C308.044 127.911 307.849 128.823 307.641 129.812C307.458 130.776 307.276 131.635 307.094 132.391C306.938 132.521 306.768 132.612 306.586 132.664C306.404 132.716 306.234 132.742 306.078 132.742C305.896 132.742 305.714 132.729 305.531 132.703C305.323 132.651 305.128 132.573 304.945 132.469C304.789 132.365 304.633 132.221 304.477 132.039C304.32 131.883 304.203 131.661 304.125 131.375C305.297 126.557 306.221 122.69 306.898 119.773C307.576 116.857 308.096 114.63 308.461 113.094C308.878 111.271 309.164 110.008 309.32 109.305C309.398 108.81 309.464 108.328 309.516 107.859C309.568 107.443 309.594 107.013 309.594 106.57C309.594 106.128 309.555 105.724 309.477 105.359C309.685 105.229 309.906 105.125 310.141 105.047C310.401 104.969 310.648 104.904 310.883 104.852C311.169 104.773 311.456 104.708 311.742 104.656C312.029 104.604 312.289 104.578 312.523 104.578C312.732 104.578 312.927 104.604 313.109 104.656C313.292 104.682 313.409 104.76 313.461 104.891C313.617 105.021 313.682 105.281 313.656 105.672C313.656 106.062 313.63 106.466 313.578 106.883C313.474 107.378 313.357 107.911 313.227 108.484C312.68 110.594 312.068 112.651 311.391 114.656C310.714 116.635 310.089 118.758 309.516 121.023C309.854 120.503 310.258 119.969 310.727 119.422C311.195 118.875 311.703 118.38 312.25 117.938C312.823 117.469 313.422 117.091 314.047 116.805C314.672 116.492 315.336 116.336 316.039 116.336C316.404 116.336 316.742 116.401 317.055 116.531C317.393 116.635 317.68 116.831 317.914 117.117C318.174 117.378 318.37 117.742 318.5 118.211C318.63 118.654 318.682 119.214 318.656 119.891C318.656 120.307 318.604 120.737 318.5 121.18C318.422 121.622 318.305 122.117 318.148 122.664C317.992 123.185 317.784 123.771 317.523 124.422C317.289 125.073 317.003 125.828 316.664 126.688C316.43 127.286 316.247 127.794 316.117 128.211C315.987 128.628 316.013 128.992 316.195 129.305C316.43 129.721 316.885 129.826 317.562 129.617C318.266 129.383 319.307 128.706 320.688 127.586C321 127.326 321.352 127 321.742 126.609C322.133 126.219 322.51 125.828 322.875 125.438C323.24 125.021 323.578 124.63 323.891 124.266C324.203 123.901 324.464 123.615 324.672 123.406ZM331.742 108.992C331.664 109.279 331.508 109.565 331.273 109.852C331.065 110.112 330.818 110.333 330.531 110.516C330.271 110.672 329.997 110.776 329.711 110.828C329.424 110.88 329.19 110.828 329.008 110.672C328.461 110.255 328.174 109.812 328.148 109.344C328.122 108.849 328.24 108.393 328.5 107.977C328.76 107.534 329.086 107.169 329.477 106.883C329.867 106.57 330.206 106.388 330.492 106.336C330.779 106.284 331.013 106.349 331.195 106.531C331.404 106.688 331.56 106.909 331.664 107.195C331.768 107.456 331.82 107.755 331.82 108.094C331.846 108.432 331.82 108.732 331.742 108.992ZM326.352 117.312C326.482 117.156 326.729 117.026 327.094 116.922C327.458 116.818 327.836 116.74 328.227 116.688C328.617 116.609 328.969 116.57 329.281 116.57C329.62 116.544 329.815 116.544 329.867 116.57C329.893 116.596 329.828 116.87 329.672 117.391C329.516 117.911 329.32 118.523 329.086 119.227C328.852 119.93 328.604 120.659 328.344 121.414C328.083 122.143 327.888 122.742 327.758 123.211C327.628 123.68 327.471 124.214 327.289 124.812C327.107 125.385 326.938 125.958 326.781 126.531C326.651 127.078 326.56 127.599 326.508 128.094C326.456 128.589 326.495 128.966 326.625 129.227C326.755 129.539 326.898 129.76 327.055 129.891C327.211 129.995 327.38 130.047 327.562 130.047C328.083 130.047 328.734 129.76 329.516 129.188C330.323 128.615 331.13 127.938 331.938 127.156C332.771 126.349 333.539 125.542 334.242 124.734C334.945 123.901 335.466 123.237 335.805 122.742C336.013 122.482 336.221 122.312 336.43 122.234C336.664 122.156 336.846 122.169 336.977 122.273C337.133 122.378 337.211 122.547 337.211 122.781C337.237 123.016 337.159 123.289 336.977 123.602C336.56 124.331 335.948 125.203 335.141 126.219C334.333 127.208 333.474 128.172 332.562 129.109C331.651 130.021 330.753 130.802 329.867 131.453C329.008 132.104 328.305 132.443 327.758 132.469C327.315 132.495 326.872 132.417 326.43 132.234C326.013 132.078 325.622 131.857 325.258 131.57C324.919 131.258 324.633 130.906 324.398 130.516C324.164 130.099 324.034 129.669 324.008 129.227C323.93 128.576 323.93 127.69 324.008 126.57C324.086 125.424 324.229 124.266 324.438 123.094C324.646 121.896 324.906 120.763 325.219 119.695C325.557 118.628 325.935 117.833 326.352 117.312ZM352.328 130.203C352.328 129.656 352.38 129.031 352.484 128.328C352.615 127.625 352.771 126.909 352.953 126.18C353.135 125.424 353.318 124.695 353.5 123.992C353.682 123.289 353.839 122.664 353.969 122.117C354.125 121.44 354.112 120.919 353.93 120.555C353.747 120.19 353.435 120.008 352.992 120.008C352.784 120.008 352.367 120.19 351.742 120.555C351.143 120.919 350.479 121.557 349.75 122.469C349.047 123.354 348.344 124.565 347.641 126.102C346.964 127.612 346.43 129.539 346.039 131.883C345.544 132.143 345.076 132.312 344.633 132.391C344.398 132.443 344.19 132.482 344.008 132.508C343.487 132.534 343.148 132.443 342.992 132.234C342.836 132.052 342.862 131.583 343.07 130.828C343.174 130.464 343.357 129.878 343.617 129.07C343.904 128.263 344.177 127.391 344.438 126.453C344.698 125.49 344.919 124.539 345.102 123.602C345.31 122.638 345.414 121.805 345.414 121.102C345.414 120.607 345.323 120.268 345.141 120.086C344.984 119.904 344.75 119.812 344.438 119.812C344.203 119.812 343.812 119.943 343.266 120.203C342.719 120.464 342.107 120.971 341.43 121.727C340.753 122.482 340.076 123.536 339.398 124.891C338.747 126.219 338.188 127.951 337.719 130.086V130.008C337.667 130.216 337.615 130.424 337.562 130.633C337.51 130.815 337.471 131.01 337.445 131.219C337.419 131.427 337.38 131.622 337.328 131.805L335.375 132.664C335.245 132.716 335.076 132.755 334.867 132.781C334.685 132.807 334.503 132.768 334.32 132.664C334.164 132.586 334.047 132.404 333.969 132.117C333.891 131.831 333.917 131.401 334.047 130.828L336.508 120.633C336.586 120.294 336.651 119.969 336.703 119.656C336.755 119.37 336.781 119.096 336.781 118.836C336.807 118.549 336.794 118.315 336.742 118.133C337.185 117.924 337.576 117.768 337.914 117.664C338.253 117.56 338.526 117.482 338.734 117.43C338.995 117.352 339.216 117.312 339.398 117.312C340.232 117.312 340.505 118.029 340.219 119.461C340.115 119.878 339.958 120.49 339.75 121.297C340.245 120.672 340.766 120.086 341.312 119.539C341.885 118.966 342.458 118.458 343.031 118.016C343.604 117.573 344.177 117.221 344.75 116.961C345.349 116.701 345.935 116.57 346.508 116.57C346.951 116.57 347.315 116.701 347.602 116.961C347.914 117.221 348.148 117.573 348.305 118.016C348.487 118.432 348.591 118.94 348.617 119.539C348.643 120.112 348.617 120.711 348.539 121.336C348.956 120.789 349.411 120.242 349.906 119.695C350.427 119.122 350.961 118.615 351.508 118.172C352.081 117.729 352.667 117.365 353.266 117.078C353.865 116.792 354.464 116.648 355.062 116.648C355.766 116.648 356.299 116.857 356.664 117.273C357.055 117.69 357.315 118.224 357.445 118.875C357.602 119.526 357.641 120.229 357.562 120.984C357.51 121.74 357.406 122.469 357.25 123.172L355.922 128.445C355.635 129.747 355.909 130.398 356.742 130.398C357.393 130.398 358.109 130.086 358.891 129.461C359.672 128.836 360.427 128.094 361.156 127.234C361.911 126.375 362.615 125.49 363.266 124.578C363.917 123.667 364.464 122.938 364.906 122.391C365.062 122.208 365.219 122.104 365.375 122.078C365.557 122.052 365.701 122.091 365.805 122.195C365.935 122.273 366 122.417 366 122.625C366.026 122.833 365.961 123.094 365.805 123.406C365.284 124.318 364.646 125.333 363.891 126.453C363.135 127.547 362.302 128.576 361.391 129.539C360.505 130.503 359.555 131.31 358.539 131.961C357.523 132.612 356.469 132.938 355.375 132.938C355.01 132.938 354.646 132.898 354.281 132.82C353.943 132.742 353.617 132.599 353.305 132.391C353.018 132.182 352.784 131.909 352.602 131.57C352.419 131.206 352.328 130.75 352.328 130.203ZM382.875 124.227C382.51 124.747 382.042 125.398 381.469 126.18C380.896 126.935 380.297 127.703 379.672 128.484C379.073 129.24 378.474 129.943 377.875 130.594C377.302 131.219 376.82 131.661 376.43 131.922C376.169 132.078 375.87 132.208 375.531 132.312C375.193 132.417 374.841 132.482 374.477 132.508C374.138 132.534 373.812 132.508 373.5 132.43C373.188 132.378 372.914 132.273 372.68 132.117C372.445 131.935 372.25 131.674 372.094 131.336C371.964 131.049 371.833 130.672 371.703 130.203C371.599 129.734 371.56 129.148 371.586 128.445C370.961 129.487 370.271 130.294 369.516 130.867C368.76 131.414 368.044 131.818 367.367 132.078C366.586 132.365 365.805 132.534 365.023 132.586C364.659 132.586 364.268 132.456 363.852 132.195C363.435 131.961 363.083 131.583 362.797 131.062C362.51 130.516 362.328 129.826 362.25 128.992C362.172 128.133 362.276 127.117 362.562 125.945C362.927 124.357 363.5 122.911 364.281 121.609C365.089 120.307 365.961 119.201 366.898 118.289C367.836 117.352 368.76 116.648 369.672 116.18C370.583 115.711 371.339 115.503 371.938 115.555C372.641 115.685 373.214 115.893 373.656 116.18C374.021 116.44 374.255 116.831 374.359 117.352C374.49 117.846 374.281 118.51 373.734 119.344C374.099 119.266 374.398 119.214 374.633 119.188C374.893 119.161 375.089 119.148 375.219 119.148C375.375 119.148 375.479 119.161 375.531 119.188C375.557 119.24 375.57 119.357 375.57 119.539C375.57 119.695 375.531 119.995 375.453 120.438C375.375 120.88 375.258 121.479 375.102 122.234C374.945 122.99 374.737 123.966 374.477 125.164C374.424 125.398 374.372 125.62 374.32 125.828C374.294 126.01 374.255 126.206 374.203 126.414C374.177 126.596 374.138 126.818 374.086 127.078C374.034 127.339 373.969 127.664 373.891 128.055C373.865 128.289 373.852 128.549 373.852 128.836C373.878 129.096 373.93 129.344 374.008 129.578C374.086 129.812 374.203 130.008 374.359 130.164C374.542 130.294 374.789 130.359 375.102 130.359C375.362 130.359 375.701 130.203 376.117 129.891C376.534 129.552 376.977 129.135 377.445 128.641C377.914 128.12 378.396 127.56 378.891 126.961C379.411 126.336 379.893 125.737 380.336 125.164C380.779 124.591 381.169 124.083 381.508 123.641C381.872 123.198 382.133 122.872 382.289 122.664C382.497 122.43 382.706 122.299 382.914 122.273C383.122 122.221 383.279 122.273 383.383 122.43C383.487 122.586 383.5 122.82 383.422 123.133C383.37 123.445 383.188 123.81 382.875 124.227ZM371.43 125.945C371.56 125.424 371.716 124.812 371.898 124.109C372.081 123.406 372.237 122.729 372.367 122.078C372.497 121.427 372.589 120.893 372.641 120.477C372.719 120.034 372.706 119.826 372.602 119.852C372.471 119.878 372.328 119.917 372.172 119.969C372.042 120.021 371.872 120.06 371.664 120.086C371.456 120.112 371.247 120.151 371.039 120.203C371.247 119.786 371.365 119.448 371.391 119.188C371.443 118.901 371.456 118.68 371.43 118.523C371.404 118.341 371.352 118.198 371.273 118.094C370.987 117.859 370.479 118.055 369.75 118.68C369.047 119.279 368.227 120.398 367.289 122.039C366.898 122.716 366.586 123.445 366.352 124.227C366.117 124.982 365.948 125.698 365.844 126.375C365.766 127.052 365.753 127.651 365.805 128.172C365.857 128.667 365.961 128.992 366.117 129.148C366.404 129.435 366.729 129.578 367.094 129.578C367.458 129.552 367.823 129.448 368.188 129.266C368.578 129.057 368.956 128.797 369.32 128.484C369.711 128.172 370.049 127.846 370.336 127.508C370.648 127.169 370.896 126.857 371.078 126.57C371.286 126.284 371.404 126.076 371.43 125.945ZM391.625 137.039C391.391 136.883 391.273 136.714 391.273 136.531C391.247 136.349 391.286 136.167 391.391 135.984C391.495 135.776 391.651 135.568 391.859 135.359C392.068 135.177 392.315 134.708 392.602 133.953C392.888 133.224 393.188 132.339 393.5 131.297C393.839 130.229 394.164 129.07 394.477 127.82C394.815 126.57 395.128 125.346 395.414 124.148C395.701 122.951 395.948 121.844 396.156 120.828C396.365 119.812 396.521 119.005 396.625 118.406C396.755 117.677 396.898 116.883 397.055 116.023C397.185 115.268 397.328 114.396 397.484 113.406C397.641 112.391 397.784 111.271 397.914 110.047L401.039 108.641C401.482 108.432 401.794 108.484 401.977 108.797C402.159 109.083 402.159 109.695 401.977 110.633C401.898 111.102 401.755 111.87 401.547 112.938C401.339 113.979 401.091 115.138 400.805 116.414C400.544 117.664 400.258 118.953 399.945 120.281C399.659 121.583 399.372 122.742 399.086 123.758C398.826 124.721 398.526 125.828 398.188 127.078C397.589 129.214 396.755 132.13 395.688 135.828C396.052 136.453 396.729 136.766 397.719 136.766C398.812 136.766 400.076 136.349 401.508 135.516C402.966 134.682 404.372 133.432 405.727 131.766C407.081 130.099 408.266 128.016 409.281 125.516C410.323 122.99 410.974 120.047 411.234 116.688C411.365 114.865 411.273 113.263 410.961 111.883C410.648 110.503 410.167 109.344 409.516 108.406C408.891 107.469 408.109 106.766 407.172 106.297C406.26 105.828 405.245 105.594 404.125 105.594C401.495 105.594 398.773 106.688 395.961 108.875L395.766 105.633C396.443 104.878 397.211 104.305 398.07 103.914C398.956 103.497 399.776 103.185 400.531 102.977C401.417 102.742 402.315 102.612 403.227 102.586C404.893 102.586 406.495 102.911 408.031 103.562C409.594 104.188 410.935 105.151 412.055 106.453C413.201 107.755 414.073 109.396 414.672 111.375C415.271 113.328 415.479 115.62 415.297 118.25C415.193 119.76 414.88 121.336 414.359 122.977C413.865 124.591 413.201 126.18 412.367 127.742C411.56 129.305 410.596 130.789 409.477 132.195C408.357 133.602 407.133 134.826 405.805 135.867C404.477 136.935 403.057 137.768 401.547 138.367C400.036 138.992 398.474 139.305 396.859 139.305C396.365 139.279 395.831 139.188 395.258 139.031C394.763 138.901 394.203 138.68 393.578 138.367C392.953 138.055 392.302 137.612 391.625 137.039ZM434.477 123.875C433.695 125.021 432.81 126.141 431.82 127.234C430.831 128.302 429.776 129.266 428.656 130.125C427.562 130.958 426.43 131.635 425.258 132.156C424.112 132.677 422.992 132.938 421.898 132.938C421.326 132.938 420.701 132.794 420.023 132.508C419.372 132.247 418.773 131.831 418.227 131.258C417.68 130.685 417.237 129.943 416.898 129.031C416.586 128.12 416.495 127.013 416.625 125.711C416.729 124.643 417.055 123.523 417.602 122.352C418.174 121.154 418.865 120.06 419.672 119.07C420.505 118.081 421.43 117.26 422.445 116.609C423.487 115.958 424.529 115.633 425.57 115.633C426.56 115.633 427.276 115.88 427.719 116.375C428.161 116.87 428.357 117.482 428.305 118.211C428.227 119.018 427.992 119.76 427.602 120.438C427.237 121.115 426.794 121.727 426.273 122.273C425.753 122.82 425.193 123.315 424.594 123.758C424.021 124.201 423.474 124.604 422.953 124.969C422.38 125.359 421.833 125.737 421.312 126.102C420.792 126.44 420.336 126.753 419.945 127.039C419.971 127.69 420.089 128.237 420.297 128.68C420.505 129.122 420.766 129.487 421.078 129.773C421.391 130.034 421.742 130.229 422.133 130.359C422.549 130.464 422.966 130.516 423.383 130.516C424.268 130.516 425.193 130.242 426.156 129.695C427.12 129.122 428.057 128.445 428.969 127.664C429.906 126.857 430.766 126.023 431.547 125.164C432.354 124.305 433.018 123.562 433.539 122.938C433.721 122.729 433.904 122.612 434.086 122.586C434.294 122.534 434.451 122.56 434.555 122.664C434.685 122.742 434.75 122.898 434.75 123.133C434.75 123.341 434.659 123.589 434.477 123.875ZM424.477 117.859C424.164 117.859 423.786 118.016 423.344 118.328C422.927 118.641 422.51 119.096 422.094 119.695C421.677 120.268 421.286 120.984 420.922 121.844C420.557 122.677 420.284 123.641 420.102 124.734C420.414 124.5 420.753 124.266 421.117 124.031C421.482 123.771 421.846 123.497 422.211 123.211C423.331 122.352 424.112 121.596 424.555 120.945C424.997 120.294 425.245 119.734 425.297 119.266C425.349 118.771 425.297 118.419 425.141 118.211C424.984 117.977 424.763 117.859 424.477 117.859ZM443.266 132.977C442.667 132.977 442.146 132.859 441.703 132.625C441.286 132.417 440.948 132.13 440.688 131.766C440.427 131.401 440.258 130.984 440.18 130.516C440.102 130.021 440.128 129.5 440.258 128.953C440.336 128.589 440.466 128.107 440.648 127.508C440.831 126.883 441.013 126.219 441.195 125.516C441.404 124.786 441.586 124.07 441.742 123.367C441.924 122.638 442.042 121.987 442.094 121.414C442.146 120.815 442.12 120.333 442.016 119.969C441.911 119.578 441.69 119.383 441.352 119.383C440.935 119.383 440.505 119.526 440.062 119.812C439.62 120.073 439.164 120.438 438.695 120.906C438.253 121.375 437.797 121.922 437.328 122.547C436.885 123.146 436.443 123.771 436 124.422C435.766 125.307 435.57 126.089 435.414 126.766C435.258 127.417 435.115 128.016 434.984 128.562C434.88 129.083 434.776 129.552 434.672 129.969C434.568 130.359 434.477 130.737 434.398 131.102C434.32 131.362 434.086 131.622 433.695 131.883C433.305 132.117 432.888 132.312 432.445 132.469C432.003 132.625 431.625 132.703 431.312 132.703C430.974 132.703 430.831 132.586 430.883 132.352C430.909 132.195 431 131.844 431.156 131.297C431.286 130.75 431.456 130.112 431.664 129.383C431.846 128.628 432.042 127.833 432.25 127C432.458 126.167 432.654 125.372 432.836 124.617C432.966 124.018 433.109 123.354 433.266 122.625C433.396 122 433.552 121.271 433.734 120.438C433.943 119.604 434.177 118.693 434.438 117.703C434.62 117.547 434.802 117.43 434.984 117.352C435.193 117.247 435.401 117.169 435.609 117.117C435.818 117.039 436.039 116.987 436.273 116.961C436.482 116.961 436.69 116.974 436.898 117C437.081 117.026 437.263 117.078 437.445 117.156C437.654 117.208 437.836 117.299 437.992 117.43C437.914 117.612 437.823 117.872 437.719 118.211C437.615 118.523 437.51 118.862 437.406 119.227C437.302 119.643 437.172 120.073 437.016 120.516C437.354 120.047 437.732 119.578 438.148 119.109C438.591 118.615 439.06 118.172 439.555 117.781C440.076 117.391 440.622 117.078 441.195 116.844C441.768 116.583 442.354 116.453 442.953 116.453C443.448 116.453 443.891 116.596 444.281 116.883C444.672 117.169 444.971 117.573 445.18 118.094C445.414 118.589 445.544 119.188 445.57 119.891C445.622 120.594 445.531 121.362 445.297 122.195L444.867 123.914C444.737 124.461 444.568 125.112 444.359 125.867C444.177 126.596 443.943 127.404 443.656 128.289C443.5 128.862 443.435 129.357 443.461 129.773C443.513 130.19 443.773 130.398 444.242 130.398C444.711 130.398 445.297 130.112 446 129.539C446.729 128.966 447.458 128.276 448.188 127.469C448.917 126.661 449.607 125.841 450.258 125.008C450.909 124.148 451.404 123.458 451.742 122.938C451.977 122.599 452.198 122.378 452.406 122.273C452.615 122.169 452.771 122.156 452.875 122.234C453.005 122.312 453.07 122.495 453.07 122.781C453.07 123.042 452.966 123.38 452.758 123.797C452.576 124.161 452.289 124.643 451.898 125.242C451.534 125.841 451.091 126.479 450.57 127.156C450.049 127.833 449.49 128.523 448.891 129.227C448.292 129.904 447.667 130.529 447.016 131.102C446.365 131.648 445.714 132.091 445.062 132.43C444.438 132.794 443.839 132.977 443.266 132.977ZM464.555 122.117C464.659 121.961 464.789 121.87 464.945 121.844C465.128 121.792 465.271 121.805 465.375 121.883C465.479 121.961 465.531 122.091 465.531 122.273C465.557 122.456 465.492 122.703 465.336 123.016C464.815 124.005 464.125 125.073 463.266 126.219C462.432 127.365 461.547 128.445 460.609 129.461C459.672 130.451 458.76 131.271 457.875 131.922C456.99 132.573 456.247 132.898 455.648 132.898C454.789 132.898 454.073 132.729 453.5 132.391C452.927 132.052 452.471 131.635 452.133 131.141C451.82 130.646 451.599 130.112 451.469 129.539C451.339 128.94 451.299 128.393 451.352 127.898C451.378 127.482 451.469 126.74 451.625 125.672C451.781 124.578 451.99 123.328 452.25 121.922C452.51 120.49 452.797 118.966 453.109 117.352C453.448 115.711 453.799 114.135 454.164 112.625C453.721 112.677 453.279 112.729 452.836 112.781C452.393 112.833 451.99 112.859 451.625 112.859C450.792 112.859 450.01 112.768 449.281 112.586C448.526 112.378 447.966 112.182 447.602 112C447.393 111.896 447.302 111.753 447.328 111.57C447.354 111.362 447.432 111.167 447.562 110.984C447.693 110.776 447.862 110.607 448.07 110.477C448.253 110.32 448.422 110.242 448.578 110.242C449.073 110.294 449.607 110.346 450.18 110.398C450.753 110.424 451.378 110.424 452.055 110.398C452.549 110.372 453.018 110.333 453.461 110.281C453.93 110.229 454.385 110.164 454.828 110.086C455.167 108.836 455.492 107.755 455.805 106.844C456.143 105.906 456.443 105.255 456.703 104.891C456.781 104.76 456.951 104.656 457.211 104.578C457.497 104.474 457.797 104.409 458.109 104.383C458.422 104.331 458.721 104.331 459.008 104.383C459.294 104.409 459.503 104.5 459.633 104.656C459.763 104.865 459.815 105.398 459.789 106.258C459.763 107.117 459.62 108.211 459.359 109.539C460.453 109.539 461.417 109.604 462.25 109.734C463.109 109.839 463.839 109.969 464.438 110.125C465.036 110.255 465.518 110.398 465.883 110.555C466.247 110.685 466.521 110.776 466.703 110.828C466.885 110.88 466.977 111.01 466.977 111.219C467.003 111.427 466.964 111.648 466.859 111.883C466.781 112.091 466.638 112.273 466.43 112.43C466.221 112.586 465.987 112.638 465.727 112.586C465.466 112.56 465.167 112.508 464.828 112.43C464.516 112.352 464.125 112.286 463.656 112.234C463.214 112.182 462.68 112.13 462.055 112.078C461.43 112.026 460.701 112 459.867 112C459.711 112 459.529 112.013 459.32 112.039C459.138 112.039 458.943 112.039 458.734 112.039C458.63 112.456 458.526 112.872 458.422 113.289C458.344 113.68 458.227 114.096 458.07 114.539C457.732 115.581 457.341 116.714 456.898 117.938C456.508 119.005 456.039 120.229 455.492 121.609C454.945 122.99 454.333 124.461 453.656 126.023C453.5 127.143 453.513 128.003 453.695 128.602C453.904 129.174 454.151 129.591 454.438 129.852C454.776 130.138 455.193 130.294 455.688 130.32C456.078 130.372 456.547 130.242 457.094 129.93C457.667 129.591 458.253 129.148 458.852 128.602C459.451 128.055 460.049 127.456 460.648 126.805C461.273 126.154 461.846 125.516 462.367 124.891C462.888 124.266 463.344 123.706 463.734 123.211C464.125 122.69 464.398 122.326 464.555 122.117ZM470.805 108.992C470.727 109.279 470.57 109.565 470.336 109.852C470.128 110.112 469.88 110.333 469.594 110.516C469.333 110.672 469.06 110.776 468.773 110.828C468.487 110.88 468.253 110.828 468.07 110.672C467.523 110.255 467.237 109.812 467.211 109.344C467.185 108.849 467.302 108.393 467.562 107.977C467.823 107.534 468.148 107.169 468.539 106.883C468.93 106.57 469.268 106.388 469.555 106.336C469.841 106.284 470.076 106.349 470.258 106.531C470.466 106.688 470.622 106.909 470.727 107.195C470.831 107.456 470.883 107.755 470.883 108.094C470.909 108.432 470.883 108.732 470.805 108.992ZM465.414 117.312C465.544 117.156 465.792 117.026 466.156 116.922C466.521 116.818 466.898 116.74 467.289 116.688C467.68 116.609 468.031 116.57 468.344 116.57C468.682 116.544 468.878 116.544 468.93 116.57C468.956 116.596 468.891 116.87 468.734 117.391C468.578 117.911 468.383 118.523 468.148 119.227C467.914 119.93 467.667 120.659 467.406 121.414C467.146 122.143 466.951 122.742 466.82 123.211C466.69 123.68 466.534 124.214 466.352 124.812C466.169 125.385 466 125.958 465.844 126.531C465.714 127.078 465.622 127.599 465.57 128.094C465.518 128.589 465.557 128.966 465.688 129.227C465.818 129.539 465.961 129.76 466.117 129.891C466.273 129.995 466.443 130.047 466.625 130.047C467.146 130.047 467.797 129.76 468.578 129.188C469.385 128.615 470.193 127.938 471 127.156C471.833 126.349 472.602 125.542 473.305 124.734C474.008 123.901 474.529 123.237 474.867 122.742C475.076 122.482 475.284 122.312 475.492 122.234C475.727 122.156 475.909 122.169 476.039 122.273C476.195 122.378 476.273 122.547 476.273 122.781C476.299 123.016 476.221 123.289 476.039 123.602C475.622 124.331 475.01 125.203 474.203 126.219C473.396 127.208 472.536 128.172 471.625 129.109C470.714 130.021 469.815 130.802 468.93 131.453C468.07 132.104 467.367 132.443 466.82 132.469C466.378 132.495 465.935 132.417 465.492 132.234C465.076 132.078 464.685 131.857 464.32 131.57C463.982 131.258 463.695 130.906 463.461 130.516C463.227 130.099 463.096 129.669 463.07 129.227C462.992 128.576 462.992 127.69 463.07 126.57C463.148 125.424 463.292 124.266 463.5 123.094C463.708 121.896 463.969 120.763 464.281 119.695C464.62 118.628 464.997 117.833 465.414 117.312ZM478.695 130.672C478.852 130.776 479.047 130.828 479.281 130.828C479.542 130.828 479.789 130.776 480.023 130.672C480.284 130.568 480.518 130.424 480.727 130.242C480.961 130.06 481.13 129.826 481.234 129.539C481.339 129.253 481.339 128.849 481.234 128.328C481.13 127.781 480.961 127.208 480.727 126.609C480.518 125.984 480.284 125.359 480.023 124.734C479.763 124.109 479.542 123.536 479.359 123.016C479.203 122.625 479.073 122.26 478.969 121.922C478.865 121.635 478.76 121.362 478.656 121.102C478.578 120.815 478.513 120.62 478.461 120.516C478.331 120.724 478.096 121.062 477.758 121.531C477.445 122 477.094 122.495 476.703 123.016C476.339 123.51 475.987 123.979 475.648 124.422C475.31 124.839 475.076 125.125 474.945 125.281C474.737 125.516 474.529 125.659 474.32 125.711C474.138 125.737 473.982 125.698 473.852 125.594C473.721 125.464 473.643 125.294 473.617 125.086C473.617 124.852 473.721 124.578 473.93 124.266C474.086 124.057 474.32 123.732 474.633 123.289C474.945 122.82 475.258 122.352 475.57 121.883C475.883 121.388 476.169 120.958 476.43 120.594C476.69 120.203 476.833 119.969 476.859 119.891C476.911 119.682 476.833 119.409 476.625 119.07C476.443 118.732 476.417 118.341 476.547 117.898C476.651 117.534 476.885 117.117 477.25 116.648C477.615 116.154 478.044 115.711 478.539 115.32C479.034 114.93 479.542 114.643 480.062 114.461C480.583 114.253 481.052 114.253 481.469 114.461C481.807 114.669 482.081 114.904 482.289 115.164C482.497 115.398 482.576 115.646 482.523 115.906C482.471 116.036 482.393 116.206 482.289 116.414C482.185 116.622 482.029 116.883 481.82 117.195C481.612 117.482 481.312 117.859 480.922 118.328C481 118.927 481.104 119.474 481.234 119.969C481.391 120.464 481.534 120.893 481.664 121.258C481.82 121.701 481.99 122.104 482.172 122.469C482.406 122.938 482.654 123.419 482.914 123.914C483.174 124.409 483.409 124.904 483.617 125.398C483.826 125.867 483.995 126.31 484.125 126.727C484.255 127.143 484.294 127.495 484.242 127.781C484.164 128.224 483.93 128.758 483.539 129.383C483.174 130.008 482.706 130.62 482.133 131.219C481.586 131.792 480.948 132.286 480.219 132.703C479.516 133.12 478.773 133.328 477.992 133.328C477.445 133.328 476.911 133.159 476.391 132.82C475.896 132.482 475.466 132.091 475.102 131.648C474.763 131.18 474.503 130.724 474.32 130.281C474.164 129.839 474.151 129.5 474.281 129.266C474.438 128.953 474.581 128.706 474.711 128.523C474.841 128.341 475.036 128.133 475.297 127.898C475.401 127.82 475.531 127.729 475.688 127.625C475.818 127.547 476 127.469 476.234 127.391C476.469 127.312 476.742 127.221 477.055 127.117C477.315 127.924 477.549 128.562 477.758 129.031C477.966 129.474 478.135 129.826 478.266 130.086C478.422 130.372 478.565 130.568 478.695 130.672ZM501.664 122.117C501.768 121.961 501.898 121.87 502.055 121.844C502.237 121.792 502.38 121.805 502.484 121.883C502.589 121.961 502.641 122.091 502.641 122.273C502.667 122.456 502.602 122.703 502.445 123.016C501.924 124.005 501.234 125.073 500.375 126.219C499.542 127.365 498.656 128.445 497.719 129.461C496.781 130.451 495.87 131.271 494.984 131.922C494.099 132.573 493.357 132.898 492.758 132.898C491.898 132.898 491.182 132.729 490.609 132.391C490.036 132.052 489.581 131.635 489.242 131.141C488.93 130.646 488.708 130.112 488.578 129.539C488.448 128.94 488.409 128.393 488.461 127.898C488.487 127.482 488.578 126.74 488.734 125.672C488.891 124.578 489.099 123.328 489.359 121.922C489.62 120.49 489.906 118.966 490.219 117.352C490.557 115.711 490.909 114.135 491.273 112.625C490.831 112.677 490.388 112.729 489.945 112.781C489.503 112.833 489.099 112.859 488.734 112.859C487.901 112.859 487.12 112.768 486.391 112.586C485.635 112.378 485.076 112.182 484.711 112C484.503 111.896 484.411 111.753 484.438 111.57C484.464 111.362 484.542 111.167 484.672 110.984C484.802 110.776 484.971 110.607 485.18 110.477C485.362 110.32 485.531 110.242 485.688 110.242C486.182 110.294 486.716 110.346 487.289 110.398C487.862 110.424 488.487 110.424 489.164 110.398C489.659 110.372 490.128 110.333 490.57 110.281C491.039 110.229 491.495 110.164 491.938 110.086C492.276 108.836 492.602 107.755 492.914 106.844C493.253 105.906 493.552 105.255 493.812 104.891C493.891 104.76 494.06 104.656 494.32 104.578C494.607 104.474 494.906 104.409 495.219 104.383C495.531 104.331 495.831 104.331 496.117 104.383C496.404 104.409 496.612 104.5 496.742 104.656C496.872 104.865 496.924 105.398 496.898 106.258C496.872 107.117 496.729 108.211 496.469 109.539C497.562 109.539 498.526 109.604 499.359 109.734C500.219 109.839 500.948 109.969 501.547 110.125C502.146 110.255 502.628 110.398 502.992 110.555C503.357 110.685 503.63 110.776 503.812 110.828C503.995 110.88 504.086 111.01 504.086 111.219C504.112 111.427 504.073 111.648 503.969 111.883C503.891 112.091 503.747 112.273 503.539 112.43C503.331 112.586 503.096 112.638 502.836 112.586C502.576 112.56 502.276 112.508 501.938 112.43C501.625 112.352 501.234 112.286 500.766 112.234C500.323 112.182 499.789 112.13 499.164 112.078C498.539 112.026 497.81 112 496.977 112C496.82 112 496.638 112.013 496.43 112.039C496.247 112.039 496.052 112.039 495.844 112.039C495.74 112.456 495.635 112.872 495.531 113.289C495.453 113.68 495.336 114.096 495.18 114.539C494.841 115.581 494.451 116.714 494.008 117.938C493.617 119.005 493.148 120.229 492.602 121.609C492.055 122.99 491.443 124.461 490.766 126.023C490.609 127.143 490.622 128.003 490.805 128.602C491.013 129.174 491.26 129.591 491.547 129.852C491.885 130.138 492.302 130.294 492.797 130.32C493.188 130.372 493.656 130.242 494.203 129.93C494.776 129.591 495.362 129.148 495.961 128.602C496.56 128.055 497.159 127.456 497.758 126.805C498.383 126.154 498.956 125.516 499.477 124.891C499.997 124.266 500.453 123.706 500.844 123.211C501.234 122.69 501.508 122.326 501.664 122.117ZM507.914 108.992C507.836 109.279 507.68 109.565 507.445 109.852C507.237 110.112 506.99 110.333 506.703 110.516C506.443 110.672 506.169 110.776 505.883 110.828C505.596 110.88 505.362 110.828 505.18 110.672C504.633 110.255 504.346 109.812 504.32 109.344C504.294 108.849 504.411 108.393 504.672 107.977C504.932 107.534 505.258 107.169 505.648 106.883C506.039 106.57 506.378 106.388 506.664 106.336C506.951 106.284 507.185 106.349 507.367 106.531C507.576 106.688 507.732 106.909 507.836 107.195C507.94 107.456 507.992 107.755 507.992 108.094C508.018 108.432 507.992 108.732 507.914 108.992ZM502.523 117.312C502.654 117.156 502.901 117.026 503.266 116.922C503.63 116.818 504.008 116.74 504.398 116.688C504.789 116.609 505.141 116.57 505.453 116.57C505.792 116.544 505.987 116.544 506.039 116.57C506.065 116.596 506 116.87 505.844 117.391C505.688 117.911 505.492 118.523 505.258 119.227C505.023 119.93 504.776 120.659 504.516 121.414C504.255 122.143 504.06 122.742 503.93 123.211C503.799 123.68 503.643 124.214 503.461 124.812C503.279 125.385 503.109 125.958 502.953 126.531C502.823 127.078 502.732 127.599 502.68 128.094C502.628 128.589 502.667 128.966 502.797 129.227C502.927 129.539 503.07 129.76 503.227 129.891C503.383 129.995 503.552 130.047 503.734 130.047C504.255 130.047 504.906 129.76 505.688 129.188C506.495 128.615 507.302 127.938 508.109 127.156C508.943 126.349 509.711 125.542 510.414 124.734C511.117 123.901 511.638 123.237 511.977 122.742C512.185 122.482 512.393 122.312 512.602 122.234C512.836 122.156 513.018 122.169 513.148 122.273C513.305 122.378 513.383 122.547 513.383 122.781C513.409 123.016 513.331 123.289 513.148 123.602C512.732 124.331 512.12 125.203 511.312 126.219C510.505 127.208 509.646 128.172 508.734 129.109C507.823 130.021 506.924 130.802 506.039 131.453C505.18 132.104 504.477 132.443 503.93 132.469C503.487 132.495 503.044 132.417 502.602 132.234C502.185 132.078 501.794 131.857 501.43 131.57C501.091 131.258 500.805 130.906 500.57 130.516C500.336 130.099 500.206 129.669 500.18 129.227C500.102 128.576 500.102 127.69 500.18 126.57C500.258 125.424 500.401 124.266 500.609 123.094C500.818 121.896 501.078 120.763 501.391 119.695C501.729 118.628 502.107 117.833 502.523 117.312ZM521.898 132.977C521.299 132.977 520.779 132.859 520.336 132.625C519.919 132.417 519.581 132.13 519.32 131.766C519.06 131.401 518.891 130.984 518.812 130.516C518.734 130.021 518.76 129.5 518.891 128.953C518.969 128.589 519.099 128.107 519.281 127.508C519.464 126.883 519.646 126.219 519.828 125.516C520.036 124.786 520.219 124.07 520.375 123.367C520.557 122.638 520.674 121.987 520.727 121.414C520.779 120.815 520.753 120.333 520.648 119.969C520.544 119.578 520.323 119.383 519.984 119.383C519.568 119.383 519.138 119.526 518.695 119.812C518.253 120.073 517.797 120.438 517.328 120.906C516.885 121.375 516.43 121.922 515.961 122.547C515.518 123.146 515.076 123.771 514.633 124.422C514.398 125.307 514.203 126.089 514.047 126.766C513.891 127.417 513.747 128.016 513.617 128.562C513.513 129.083 513.409 129.552 513.305 129.969C513.201 130.359 513.109 130.737 513.031 131.102C512.953 131.362 512.719 131.622 512.328 131.883C511.938 132.117 511.521 132.312 511.078 132.469C510.635 132.625 510.258 132.703 509.945 132.703C509.607 132.703 509.464 132.586 509.516 132.352C509.542 132.195 509.633 131.844 509.789 131.297C509.919 130.75 510.089 130.112 510.297 129.383C510.479 128.628 510.674 127.833 510.883 127C511.091 126.167 511.286 125.372 511.469 124.617C511.599 124.018 511.742 123.354 511.898 122.625C512.029 122 512.185 121.271 512.367 120.438C512.576 119.604 512.81 118.693 513.07 117.703C513.253 117.547 513.435 117.43 513.617 117.352C513.826 117.247 514.034 117.169 514.242 117.117C514.451 117.039 514.672 116.987 514.906 116.961C515.115 116.961 515.323 116.974 515.531 117C515.714 117.026 515.896 117.078 516.078 117.156C516.286 117.208 516.469 117.299 516.625 117.43C516.547 117.612 516.456 117.872 516.352 118.211C516.247 118.523 516.143 118.862 516.039 119.227C515.935 119.643 515.805 120.073 515.648 120.516C515.987 120.047 516.365 119.578 516.781 119.109C517.224 118.615 517.693 118.172 518.188 117.781C518.708 117.391 519.255 117.078 519.828 116.844C520.401 116.583 520.987 116.453 521.586 116.453C522.081 116.453 522.523 116.596 522.914 116.883C523.305 117.169 523.604 117.573 523.812 118.094C524.047 118.589 524.177 119.188 524.203 119.891C524.255 120.594 524.164 121.362 523.93 122.195L523.5 123.914C523.37 124.461 523.201 125.112 522.992 125.867C522.81 126.596 522.576 127.404 522.289 128.289C522.133 128.862 522.068 129.357 522.094 129.773C522.146 130.19 522.406 130.398 522.875 130.398C523.344 130.398 523.93 130.112 524.633 129.539C525.362 128.966 526.091 128.276 526.82 127.469C527.549 126.661 528.24 125.841 528.891 125.008C529.542 124.148 530.036 123.458 530.375 122.938C530.609 122.599 530.831 122.378 531.039 122.273C531.247 122.169 531.404 122.156 531.508 122.234C531.638 122.312 531.703 122.495 531.703 122.781C531.703 123.042 531.599 123.38 531.391 123.797C531.208 124.161 530.922 124.643 530.531 125.242C530.167 125.841 529.724 126.479 529.203 127.156C528.682 127.833 528.122 128.523 527.523 129.227C526.924 129.904 526.299 130.529 525.648 131.102C524.997 131.648 524.346 132.091 523.695 132.43C523.07 132.794 522.471 132.977 521.898 132.977ZM539.086 137.586C538.956 138.211 538.786 138.992 538.578 139.93C538.396 140.867 538.174 141.857 537.914 142.898C537.68 143.94 537.393 144.969 537.055 145.984C536.742 147.026 536.391 147.951 536 148.758C535.609 149.591 535.18 150.268 534.711 150.789C534.242 151.31 533.721 151.57 533.148 151.57C532.289 151.57 531.547 151.31 530.922 150.789C530.323 150.294 529.815 149.656 529.398 148.875C528.982 148.12 528.682 147.299 528.5 146.414C528.292 145.529 528.188 144.708 528.188 143.953C528.188 142.911 528.279 142.039 528.461 141.336C528.643 140.659 528.956 140.008 529.398 139.383C529.867 138.758 530.492 138.094 531.273 137.391C532.055 136.688 533.057 135.815 534.281 134.773C534.88 134.253 535.453 133.758 536 133.289C536.547 132.82 537.068 132.391 537.562 132C537.693 131.479 537.81 130.997 537.914 130.555C538.044 130.086 538.148 129.669 538.227 129.305C537.549 130.216 536.729 130.984 535.766 131.609C534.828 132.234 533.747 132.547 532.523 132.547C531.404 132.547 530.492 132.052 529.789 131.062C529.112 130.047 528.773 128.562 528.773 126.609C528.773 125.646 528.956 124.539 529.32 123.289C529.685 122.039 530.206 120.867 530.883 119.773C531.56 118.68 532.393 117.755 533.383 117C534.372 116.245 535.479 115.867 536.703 115.867C537.276 115.867 537.771 116.01 538.188 116.297C538.604 116.583 538.956 116.948 539.242 117.391C539.529 117.807 539.75 118.263 539.906 118.758C540.062 119.227 540.18 119.669 540.258 120.086C540.31 119.93 540.349 119.773 540.375 119.617C540.401 119.435 540.44 119.279 540.492 119.148C540.753 118.263 541.039 117.664 541.352 117.352C541.69 117.013 542.185 116.844 542.836 116.844C543.201 116.844 543.5 116.909 543.734 117.039C543.995 117.169 544.125 117.286 544.125 117.391C543.995 117.677 543.891 117.898 543.812 118.055C543.734 118.211 543.656 118.38 543.578 118.562C543.5 118.719 543.422 118.927 543.344 119.188C543.266 119.448 543.161 119.826 543.031 120.32C542.979 120.503 542.875 120.932 542.719 121.609C542.589 122.26 542.406 123.042 542.172 123.953C541.964 124.865 541.729 125.867 541.469 126.961C541.234 128.055 541 129.122 540.766 130.164C541.495 129.747 542.25 129.24 543.031 128.641C543.812 128.042 544.555 127.43 545.258 126.805C545.961 126.18 546.586 125.594 547.133 125.047C547.68 124.474 548.083 124.005 548.344 123.641C548.552 123.328 548.786 123.107 549.047 122.977C549.307 122.846 549.529 122.807 549.711 122.859C549.919 122.885 550.036 123.003 550.062 123.211C550.115 123.393 550.036 123.654 549.828 123.992C549.229 124.956 548.5 125.893 547.641 126.805C546.781 127.69 545.896 128.523 544.984 129.305C544.099 130.06 543.227 130.737 542.367 131.336C541.534 131.909 540.818 132.378 540.219 132.742C539.958 133.914 539.737 134.865 539.555 135.594C539.372 136.323 539.216 136.987 539.086 137.586ZM534.164 129.891C534.711 129.891 535.219 129.747 535.688 129.461C536.182 129.174 536.625 128.849 537.016 128.484C537.406 128.094 537.732 127.703 537.992 127.312C538.253 126.922 538.448 126.609 538.578 126.375C538.682 126.141 538.799 125.828 538.93 125.438C539.086 125.047 539.203 124.669 539.281 124.305C539.359 123.94 539.385 123.615 539.359 123.328C539.359 123.042 539.268 122.885 539.086 122.859C538.93 122.833 538.799 122.729 538.695 122.547C538.617 122.365 538.552 122.156 538.5 121.922C538.448 121.688 538.409 121.453 538.383 121.219C538.383 120.984 538.37 120.776 538.344 120.594C538.214 119.682 537.992 119.018 537.68 118.602C537.367 118.185 537.016 117.977 536.625 117.977C535.974 117.977 535.349 118.237 534.75 118.758C534.177 119.279 533.656 119.956 533.188 120.789C532.745 121.596 532.393 122.495 532.133 123.484C531.872 124.448 531.742 125.372 531.742 126.258C531.742 127.352 531.898 128.237 532.211 128.914C532.523 129.565 533.174 129.891 534.164 129.891ZM532.367 148.016C532.888 148.016 533.305 147.625 533.617 146.844C533.956 146.089 534.307 145.047 534.672 143.719C534.75 143.406 534.854 142.951 534.984 142.352C535.141 141.779 535.31 141.115 535.492 140.359C535.701 139.604 535.909 138.784 536.117 137.898C536.326 137.039 536.547 136.167 536.781 135.281C536.573 135.464 536.352 135.646 536.117 135.828C535.909 136.036 535.688 136.271 535.453 136.531C534.88 137.078 534.32 137.599 533.773 138.094C533.253 138.615 532.784 139.148 532.367 139.695C531.951 140.268 531.612 140.88 531.352 141.531C531.117 142.182 531 142.938 531 143.797C531 144.656 531.026 145.359 531.078 145.906C531.156 146.453 531.247 146.883 531.352 147.195C531.482 147.508 531.625 147.716 531.781 147.82C531.964 147.951 532.159 148.016 532.367 148.016Z" fill="#BD7C1A"/>
<path d="M11.388 31.364C12.74 31.468 14.352 31.572 15.444 31.572C18.304 31.572 24.544 31.26 26.832 31.052C27.976 31 29.068 30.74 29.848 30.428L33.124 33.028C32.552 33.704 32.032 34.276 31.616 34.952C29.9 37.76 27.092 44.468 24.7 49.824C22.62 54.504 19.916 61.212 17.732 64.436C15.808 67.296 13.572 68.492 10.504 68.492C6.344 68.492 3.224 65.528 3.224 60.796C3.224 52.736 10.868 46.6 21.684 46.6C33.54 46.6 43.992 52.892 49.556 56.792L47.164 62.46C40.924 57 31.564 51.176 20.852 51.176C12.688 51.176 8.008 55.7 8.008 60.068C8.008 62.096 9.256 63.188 10.712 63.188C11.856 63.188 12.636 62.72 13.676 61.368C15.652 58.664 17.784 53.204 19.708 48.94C21.684 44.572 23.92 39.32 25.584 35.836C23.504 35.94 17.992 36.148 15.6 36.304C14.508 36.356 12.896 36.512 11.596 36.668L11.388 31.364ZM44.616 43.168C43.888 57.936 40.924 67.192 28.652 73.432L24.336 69.844C36.816 64.54 38.74 54.764 39.26 47.744C39.364 45.976 39.416 44.052 39.26 42.544L44.616 43.168ZM70.356 29.18C70.096 31.104 69.888 33.288 69.784 35.16C69.576 40.932 69.16 52.944 69.16 60.12C69.16 65.632 72.54 67.504 77.116 67.504C86.216 67.504 91.624 62.356 95.368 56.844L99.112 61.316C95.628 66.308 88.608 73.016 77.012 73.016C69.056 73.016 63.752 69.636 63.752 60.952C63.752 53.568 64.272 40.204 64.272 35.16C64.272 33.028 64.116 30.896 63.752 29.128L70.356 29.18ZM134.316 28.4C134.16 29.388 134.056 30.532 134.004 31.988C133.9 34.328 133.9 41.452 133.9 45.82C133.9 52.216 134.68 61.472 134.68 65.216C134.68 69.168 131.872 72.756 125.06 72.756C117.208 72.756 112.996 69.896 112.996 64.644C112.996 59.704 117.676 56.272 125.372 56.272C136.552 56.272 145.08 62.096 149.24 65.528L146.276 70.156C141.44 65.684 133.848 60.536 124.748 60.536C120.328 60.536 117.936 62.252 117.936 64.384C117.936 66.62 119.912 68.128 124.384 68.128C127.244 68.128 129.48 67.296 129.48 63.916C129.48 60.328 128.96 50.656 128.96 45.82C128.96 41.036 129.012 35.056 129.012 31.728C129.012 30.792 128.908 29.232 128.752 28.4H134.316ZM113.672 33.704C117.208 34.328 123.448 34.848 126.776 34.848C133.588 34.848 140.504 34.432 147.628 33.288L147.576 38.02C141.96 38.696 134.16 39.372 126.828 39.372C123.344 39.372 117.104 38.904 113.776 38.488L113.672 33.704ZM113.412 44.832C117 45.456 123.136 45.82 126.256 45.82C134.68 45.82 141.544 45.248 148.148 44.312L148.096 49.2C140.972 50.084 134.94 50.396 126.204 50.396C122.876 50.396 117.052 50.136 113.464 49.72L113.412 44.832ZM182.364 29.96H200.824V33.912H182.364V29.96ZM179.608 26.112H184.496V39.944H179.608V26.112ZM166.348 28.764H171.028V39.684H166.348V28.764ZM164.58 67.92H199.576V72.184H164.58V67.92ZM158.548 37.708H205.608V42.076H158.548V37.708ZM168.168 51.904H196.196V55.596H168.168V51.904ZM161.616 43.74H166.296V74.472H161.616V43.74ZM197.86 43.74H202.644V74.472H197.86V43.74ZM179.712 43.584H183.976V66.672H179.712V43.584ZM169.78 45.768L173.108 44.468C174.668 46.236 176.28 48.68 176.956 50.292L173.42 51.904C172.796 50.188 171.288 47.64 169.78 45.768ZM190.476 44.208L194.376 45.456C192.92 47.744 191.464 50.032 190.164 51.644L186.992 50.448C188.188 48.732 189.696 46.028 190.476 44.208ZM179.296 53.672L182.364 54.764C179.608 59.34 174.46 63.864 169.78 66.048C169.104 65.06 167.856 63.552 166.972 62.824C171.652 61.056 176.696 57.364 179.296 53.672ZM184.548 53.672C187.096 57.26 192.244 60.9 196.768 62.564C195.832 63.344 194.584 64.852 193.908 65.788C189.332 63.656 184.184 59.236 181.324 54.92L184.548 53.672ZM218.4 30.688H223.184V74.316H218.4V30.688ZM209.976 40.776H230.516V45.352H209.976V40.776ZM218.66 42.596L221.624 43.844C219.596 51.228 215.644 60.432 211.64 65.372C211.172 63.968 210.08 61.94 209.248 60.744C212.94 56.584 216.892 48.732 218.66 42.596ZM227.136 26.736L229.996 30.74C224.952 32.664 217.828 34.016 211.796 34.796C211.588 33.704 210.964 32.04 210.444 30.948C216.32 30.064 223.028 28.504 227.136 26.736ZM222.976 45.872C224.328 47.172 229.112 53.048 230.204 54.504L227.292 58.3C226.044 55.752 222.352 49.98 220.792 47.9L222.976 45.872ZM247.052 26.06H251.94V74.316H247.052V26.06ZM229.788 59.808L257.608 55.18L258.388 59.808L230.516 64.488L229.788 59.808ZM233.636 32.352L236.808 29.544C239.824 31.572 243.464 34.588 245.128 36.824L241.696 39.944C240.188 37.76 236.6 34.536 233.636 32.352ZM231.608 45.976L234.728 43.116C237.952 45.196 241.904 48.316 243.776 50.552L240.448 53.776C238.68 51.488 234.832 48.16 231.608 45.976Z" fill="#098BDE"/>
<defs>
<filter id="filter0_d_1201_19" x="314" y="0" width="92" height="92" filterUnits="userSpaceOnUse" color-interpolation-filters="sRGB">
<feFlood flood-opacity="0" result="BackgroundImageFix"/>
<feColorMatrix in="SourceAlpha" type="matrix" values="0 0 0 0 0 0 0 0 0 0 0 0 0 0 0 0 0 0 127 0" result="hardAlpha"/>
<feOffset dx="4" dy="4"/>
<feGaussianBlur stdDeviation="4"/>
<feComposite in2="hardAlpha" operator="out"/>
<feColorMatrix type="matrix" values="0 0 0 0 0 0 0 0 0 0 0 0 0 0 0 0 0 0 0.16 0"/>
<feBlend mode="normal" in2="BackgroundImageFix" result="effect1_dropShadow_1201_19"/>
<feBlend mode="normal" in="SourceGraphic" in2="effect1_dropShadow_1201_19" result="shape"/>
</filter>
</defs>
</svg>
